<svg xmlns="http://www.w3.org/2000/svg" viewBox="0 0 200 200">
  <!-- 背景 -->
  <rect width="200" height="200" fill="#2D4159" />
  
  <!-- 主圆形及阴影 -->
  <circle cx="100" cy="95" r="65" fill="#2D4159" />
  <circle cx="100" cy="100" r="65" fill="#F9E4D4" />
  
  <!-- 圆形边缘高光 -->
  <path d="M100,35 a65,65 0 0,1 65,65 a65,65 0 0,1 -65,65" fill="none" stroke="#FFFFFF" stroke-width="3" stroke-opacity="0.2" />
  
  <!-- 底部阴影效果 -->
  <circle cx="100" cy="105" r="62" fill="#2D4159" fill-opacity="0.1" />
  
  <!-- 字母 Y -->
  <path d="M75,55 L100,85 L125,55 L140,55 L105,95 L105,145 L95,145 L95,95 L60,55 Z" fill="#1D3048" />
  
  <!-- 粉紫色点缀 -->
  <path d="M75,55 L100,85 L125,55 L140,55 L105,95 L105,145 L95,145 L95,95 L60,55 Z" fill="#DAB6D9" fill-opacity="0.2" stroke="#DAB6D9" stroke-width="1" stroke-opacity="0.3" />
</svg>