<?xml version="1.0" standalone="no"?>
<!DOCTYPE svg PUBLIC "-//W3C//DTD SVG 20010904//EN"
 "http://www.w3.org/TR/2001/REC-SVG-20010904/DTD/svg10.dtd">
<svg version="1.0" xmlns="http://www.w3.org/2000/svg"
 width="258.000000pt" height="258.000000pt" viewBox="0 0 258.000000 258.000000"
 preserveAspectRatio="xMidYMid meet">

<g transform="translate(0.000000,258.000000) scale(0.100000,-0.100000)"
fill="#000000" stroke="none">
<path d="M180 2190 l0 -210 210 0 210 0 0 210 0 210 -210 0 -210 0 0 -210z
m360 0 l0 -150 -150 0 -150 0 0 150 0 150 150 0 150 0 0 -150z"/>
<path d="M300 2190 l0 -90 90 0 90 0 0 90 0 90 -90 0 -90 0 0 -90z"/>
<path d="M660 2370 c0 -27 3 -30 30 -30 27 0 30 -3 30 -30 0 -27 3 -30 30 -30
27 0 30 -3 30 -30 0 -27 -3 -30 -30 -30 -27 0 -30 -3 -30 -30 0 -27 -3 -30
-30 -30 l-30 0 0 -90 0 -90 30 0 30 0 0 -60 0 -60 -30 0 c-27 0 -30 3 -30 30
l0 30 -210 0 -210 0 0 -30 c0 -27 -3 -30 -30 -30 -27 0 -30 -3 -30 -30 0 -27
3 -30 30 -30 27 0 30 -3 30 -30 0 -27 -3 -30 -30 -30 l-30 0 0 -180 0 -180 30
0 c27 0 30 -3 30 -30 0 -27 -3 -30 -30 -30 -27 0 -30 -3 -30 -30 l0 -30 60 0
60 0 0 30 c0 27 3 30 30 30 27 0 30 3 30 30 0 27 3 30 30 30 27 0 30 3 30 30
0 27 3 30 30 30 27 0 30 -3 30 -30 l0 -30 60 0 60 0 0 -30 c0 -27 -3 -30 -30
-30 -27 0 -30 -3 -30 -30 0 -27 3 -30 30 -30 27 0 30 3 30 30 0 27 3 30 30 30
27 0 30 -3 30 -30 l0 -30 60 0 60 0 0 -90 0 -90 30 0 30 0 0 60 0 60 30 0 30
0 0 -60 0 -60 30 0 30 0 0 -60 0 -60 -30 0 c-27 0 -30 -3 -30 -30 0 -27 -3
-30 -30 -30 l-30 0 0 60 0 60 -30 0 c-27 0 -30 -3 -30 -30 0 -27 -3 -30 -30
-30 l-30 0 0 120 0 120 -90 0 -90 0 0 -30 0 -30 60 0 60 0 0 -60 0 -60 -30 0
c-27 0 -30 3 -30 30 l0 30 -60 0 -60 0 0 -60 0 -60 30 0 c27 0 30 -3 30 -30
l0 -30 -120 0 -120 0 0 30 c0 27 3 30 30 30 27 0 30 3 30 30 0 27 3 30 30 30
l30 0 0 60 0 60 30 0 30 0 0 60 0 60 -60 0 -60 0 0 -30 0 -30 -90 0 -90 0 0
-60 0 -60 30 0 c27 0 30 3 30 30 0 27 3 30 30 30 27 0 30 -3 30 -30 0 -27 3
-30 30 -30 27 0 30 -3 30 -30 0 -27 -3 -30 -30 -30 -27 0 -30 -3 -30 -30 0
-27 -3 -30 -30 -30 -27 0 -30 -3 -30 -30 0 -27 -3 -30 -30 -30 l-30 0 0 -120
0 -120 30 0 30 0 0 90 0 90 90 0 90 0 0 -30 0 -30 -60 0 -60 0 0 -60 0 -60 30
0 c27 0 30 3 30 30 0 27 3 30 30 30 27 0 30 -3 30 -30 l0 -30 120 0 120 0 0
-210 0 -210 30 0 c27 0 30 -3 30 -30 l0 -30 60 0 60 0 0 30 c0 27 3 30 30 30
27 0 30 -3 30 -30 l0 -30 150 0 150 0 0 60 0 60 -30 0 c-27 0 -30 3 -30 30 0
27 3 30 30 30 27 0 30 3 30 30 0 27 3 30 30 30 27 0 30 3 30 30 0 27 3 30 30
30 l30 0 0 90 0 90 -60 0 -60 0 0 30 c0 27 -3 30 -30 30 l-30 0 0 60 0 60 -90
0 -90 0 0 30 0 30 150 0 150 0 0 30 c0 27 3 30 30 30 27 0 30 -3 30 -30 0 -27
3 -30 30 -30 27 0 30 3 30 30 l0 30 60 0 60 0 0 -30 c0 -27 3 -30 30 -30 27 0
30 -3 30 -30 0 -27 3 -30 30 -30 l30 0 0 -60 0 -60 30 0 30 0 0 -60 0 -60 30
0 30 0 0 -60 0 -60 -30 0 c-27 0 -30 3 -30 30 0 27 -3 30 -30 30 -27 0 -30 -3
-30 -30 l0 -30 -120 0 -120 0 0 -30 c0 -27 3 -30 30 -30 27 0 30 -3 30 -30 0
-27 -3 -30 -30 -30 -27 0 -30 -3 -30 -30 0 -27 3 -30 30 -30 l30 0 0 -60 0
-60 90 0 90 0 0 60 0 60 60 0 60 0 0 30 0 30 60 0 60 0 0 -30 c0 -27 -3 -30
-30 -30 -27 0 -30 -3 -30 -30 0 -27 -3 -30 -30 -30 -27 0 -30 -3 -30 -30 l0
-30 60 0 60 0 0 30 c0 27 3 30 30 30 27 0 30 -3 30 -30 l0 -30 60 0 60 0 0 30
c0 27 3 30 30 30 27 0 30 -3 30 -30 l0 -30 150 0 150 0 0 90 0 90 -30 0 -30 0
0 -60 0 -60 -120 0 -120 0 0 60 0 60 30 0 c27 0 30 -3 30 -30 l0 -30 60 0 60
0 0 60 0 60 30 0 c27 0 30 3 30 30 l0 30 -60 0 -60 0 0 -60 0 -60 -30 0 -30 0
0 90 0 90 30 0 c27 0 30 3 30 30 0 27 -3 30 -30 30 -27 0 -30 3 -30 30 0 27 3
30 30 30 27 0 30 3 30 30 0 27 3 30 30 30 l30 0 0 -90 0 -90 60 0 60 0 0 30
c0 27 -3 30 -30 30 -27 0 -30 3 -30 30 0 27 3 30 30 30 27 0 30 3 30 30 l0 30
-60 0 -60 0 0 30 0 30 60 0 60 0 0 30 c0 27 -3 30 -30 30 -27 0 -30 3 -30 30
0 27 -3 30 -30 30 -27 0 -30 3 -30 30 l0 30 60 0 60 0 0 60 0 60 -30 0 -30 0
0 60 0 60 -60 0 -60 0 0 30 c0 27 -3 30 -30 30 -27 0 -30 3 -30 30 0 27 3 30
30 30 27 0 30 3 30 30 0 27 3 30 30 30 27 0 30 3 30 30 0 27 3 30 30 30 27 0
30 -3 30 -30 0 -27 3 -30 30 -30 l30 0 0 90 0 90 -30 0 c-27 0 -30 3 -30 30 0
27 3 30 30 30 l30 0 0 90 0 90 -30 0 c-27 0 -30 3 -30 30 0 27 3 30 30 30 27
0 30 3 30 30 0 27 -3 30 -30 30 -27 0 -30 -3 -30 -30 0 -27 -3 -30 -30 -30
-27 0 -30 -3 -30 -30 0 -27 -3 -30 -30 -30 -27 0 -30 3 -30 30 0 27 -3 30 -30
30 -27 0 -30 3 -30 30 l0 30 -60 0 -60 0 0 -30 c0 -27 -3 -30 -30 -30 l-30 0
0 -120 0 -120 -30 0 c-27 0 -30 3 -30 30 0 27 -3 30 -30 30 -27 0 -30 3 -30
30 0 27 3 30 30 30 27 0 30 3 30 30 0 27 -3 30 -30 30 -27 0 -30 3 -30 30 0
27 3 30 30 30 l30 0 0 180 0 180 -120 0 -120 0 0 -60 0 -60 -30 0 -30 0 0 -60
0 -60 -30 0 -30 0 0 60 0 60 -30 0 -30 0 0 -60 0 -60 -30 0 -30 0 0 120 0 120
30 0 c27 0 30 -3 30 -30 l0 -30 60 0 60 0 0 60 0 60 30 0 c27 0 30 3 30 30 l0
30 -60 0 -60 0 0 -30 c0 -27 -3 -30 -30 -30 -27 0 -30 3 -30 30 0 27 -3 30
-30 30 -27 0 -30 3 -30 30 l0 30 -180 0 -180 0 0 -60 0 -60 -30 0 -30 0 0 60
0 60 -30 0 -30 0 0 -60 0 -60 -30 0 -30 0 0 60 0 60 -30 0 c-27 0 -30 -3 -30
-30 l0 -30 -60 0 -60 0 0 30 c0 27 -3 30 -30 30 -27 0 -30 -3 -30 -30z m720
-120 l0 -90 -30 0 -30 0 0 -60 0 -60 30 0 c27 0 30 -3 30 -30 0 -27 3 -30 30
-30 l30 0 0 -60 0 -60 -30 0 c-27 0 -30 -3 -30 -30 l0 -30 90 0 90 0 0 60 0
60 30 0 c27 0 30 -3 30 -30 0 -27 3 -30 30 -30 27 0 30 3 30 30 0 27 3 30 30
30 27 0 30 3 30 30 0 27 -3 30 -30 30 -27 0 -30 3 -30 30 0 27 3 30 30 30 27
0 30 -3 30 -30 0 -27 3 -30 30 -30 27 0 30 3 30 30 0 27 3 30 30 30 l30 0 0
-90 0 -90 -30 0 c-27 0 -30 -3 -30 -30 l0 -30 -60 0 -60 0 0 -30 c0 -27 3 -30
30 -30 27 0 30 -3 30 -30 l0 -30 -60 0 -60 0 0 30 c0 27 -3 30 -30 30 l-30 0
0 -60 0 -60 -60 0 c-53 0 -60 -2 -60 -20 0 -17 7 -20 49 -20 28 0 53 -4 56
-10 3 -5 22 -10 41 -10 31 0 34 2 34 30 0 27 3 30 30 30 27 0 30 -3 30 -30 0
-27 -3 -30 -30 -30 l-30 0 0 -60 0 -60 30 0 c27 0 30 3 30 30 0 27 3 30 30 30
27 0 30 -3 30 -30 0 -27 -3 -30 -30 -30 -27 0 -30 -3 -30 -30 0 -27 -3 -30
-30 -30 -27 0 -30 -3 -30 -30 0 -27 3 -30 30 -30 27 0 30 -3 30 -30 0 -27 3
-30 30 -30 27 0 30 -3 30 -30 0 -27 -3 -30 -30 -30 -27 0 -30 -3 -30 -30 0
-27 3 -30 30 -30 27 0 30 -3 30 -30 0 -27 3 -30 30 -30 l30 0 0 90 0 90 30 0
c27 0 30 -3 30 -30 0 -27 3 -30 30 -30 27 0 30 -3 30 -30 l0 -30 60 0 60 0 0
-30 c0 -27 3 -30 30 -30 27 0 30 3 30 30 0 27 3 30 30 30 l30 0 0 -60 0 -60
30 0 c27 0 30 3 30 30 0 27 3 30 30 30 l30 0 0 -60 0 -60 -60 0 -60 0 0 -30
c0 -27 3 -30 30 -30 27 0 30 -3 30 -30 0 -27 -3 -30 -30 -30 -27 0 -30 -3 -30
-30 0 -27 3 -30 30 -30 27 0 30 -3 30 -30 l0 -30 -150 0 -150 0 0 30 c0 27 -3
30 -30 30 l-30 0 0 -120 0 -120 -30 0 c-27 0 -30 3 -30 30 0 27 -3 30 -30 30
-27 0 -30 3 -30 30 0 27 3 30 30 30 l30 0 0 90 0 90 120 0 120 0 0 30 c0 27 3
30 30 30 l30 0 0 60 0 60 -30 0 c-27 0 -30 3 -30 30 0 27 -3 30 -30 30 -27 0
-30 -3 -30 -30 0 -27 -3 -30 -30 -30 -27 0 -30 3 -30 30 l0 30 -60 0 -60 0 0
-30 c0 -27 3 -30 30 -30 27 0 30 -3 30 -30 l0 -30 60 0 60 0 0 -30 0 -30 -120
0 -120 0 0 -90 0 -90 -30 0 -30 0 0 120 0 120 -30 0 c-27 0 -30 -3 -30 -30 0
-27 -3 -30 -30 -30 -27 0 -30 3 -30 30 0 27 -3 30 -30 30 -23 0 -30 4 -30 20
0 18 -7 20 -60 20 -53 0 -60 -2 -60 -20 0 -16 -7 -20 -30 -20 -23 0 -30 4 -30
20 0 16 -7 20 -30 20 -23 0 -30 -4 -30 -20 0 -16 -7 -20 -30 -20 -23 0 -30 4
-30 20 0 16 -7 20 -30 20 -23 0 -30 -4 -30 -20 0 -18 -7 -20 -60 -20 l-60 0 0
34 c0 19 -4 38 -10 41 -5 3 -10 15 -10 26 0 12 -7 19 -20 19 -18 0 -20 7 -20
60 l0 60 -30 0 c-27 0 -30 3 -30 30 0 29 1 30 50 30 l50 0 0 60 c0 53 -2 60
-20 60 -16 0 -20 -7 -20 -30 0 -27 -3 -30 -30 -30 l-30 0 0 60 0 60 50 0 50 0
0 48 c0 26 5 53 12 60 9 9 5 12 -20 12 -29 0 -32 3 -32 30 l0 30 90 0 c83 0
90 -1 90 -20 0 -19 7 -20 120 -20 113 0 120 1 120 20 0 16 -7 20 -30 20 -27 0
-30 3 -30 30 l0 30 -60 0 -60 0 0 60 0 60 -30 0 c-27 0 -30 -3 -30 -30 l0 -30
-60 0 -60 0 0 -30 0 -30 -60 0 -60 0 0 -30 c0 -27 -3 -30 -30 -30 -27 0 -30 3
-30 30 0 27 -3 30 -30 30 -27 0 -30 3 -30 30 0 27 -3 30 -30 30 l-30 0 0 -90
0 -90 60 0 60 0 0 -90 0 -90 -30 0 c-27 0 -30 3 -30 30 0 27 -3 30 -30 30
l-30 0 0 60 0 60 -30 0 -30 0 0 -60 0 -60 -90 0 -90 0 0 30 0 30 -90 0 -90 0
0 -30 c0 -27 -3 -30 -30 -30 -27 0 -30 3 -30 30 0 27 3 30 30 30 27 0 30 3 30
30 l0 30 90 0 90 0 0 -30 0 -30 60 0 60 0 0 30 c0 27 -3 30 -30 30 -27 0 -30
3 -30 30 0 27 3 30 30 30 27 0 30 3 30 30 l0 30 -90 0 -90 0 0 60 0 60 -30 0
c-27 0 -30 3 -30 30 0 27 3 30 30 30 27 0 30 -3 30 -30 l0 -30 60 0 60 0 0 30
c0 27 3 30 30 30 27 0 30 -3 30 -30 0 -27 -3 -30 -30 -30 -27 0 -30 -3 -30
-30 l0 -30 60 0 60 0 0 30 c0 27 3 30 30 30 27 0 30 3 30 30 0 27 3 30 30 30
27 0 30 3 30 30 0 27 3 30 30 30 l30 0 0 60 0 60 -30 0 c-27 0 -30 -3 -30 -30
0 -27 -3 -30 -30 -30 -27 0 -30 3 -30 30 0 27 3 30 30 30 27 0 30 3 30 30 0
27 -3 30 -30 30 -27 0 -30 3 -30 30 0 27 3 30 30 30 27 0 30 3 30 30 0 27 3
30 30 30 27 0 30 3 30 30 0 27 3 30 30 30 l30 0 0 -60 0 -60 30 0 c27 0 30 3
30 30 0 27 3 30 30 30 l30 0 0 -60 0 -60 30 0 c27 0 30 -3 30 -30 0 -27 3 -30
30 -30 27 0 30 3 30 30 0 27 3 30 30 30 l30 0 0 60 0 60 60 0 60 0 0 30 c0 27
-3 30 -30 30 -27 0 -30 3 -30 30 l0 30 60 0 60 0 0 -90z m-240 -30 l0 -60 -30
0 -30 0 0 60 0 60 30 0 30 0 0 -60z m720 -90 l0 -30 -60 0 -60 0 0 30 0 30 60
0 60 0 0 -30z m-1560 -300 c0 -27 -3 -30 -30 -30 -27 0 -30 3 -30 30 0 27 3
30 30 30 27 0 30 -3 30 -30z m1800 -60 c0 -27 -3 -30 -30 -30 -27 0 -30 3 -30
30 0 27 3 30 30 30 27 0 30 -3 30 -30z m240 0 c0 -27 -3 -30 -30 -30 -27 0
-30 -3 -30 -30 0 -27 3 -30 30 -30 27 0 30 -3 30 -30 l0 -30 -60 0 -60 0 0 60
0 60 30 0 c27 0 30 3 30 30 0 27 3 30 30 30 27 0 30 -3 30 -30z m-2040 -60 c0
-27 3 -30 30 -30 27 0 30 -3 30 -30 0 -27 -3 -30 -30 -30 -27 0 -30 3 -30 30
0 27 -3 30 -30 30 -27 0 -30 3 -30 30 0 27 3 30 30 30 27 0 30 -3 30 -30z
m1860 -90 l0 -60 -30 0 c-27 0 -30 -3 -30 -30 0 -27 -3 -30 -30 -30 -27 0 -30
-3 -30 -30 0 -27 3 -30 30 -30 27 0 30 -3 30 -30 0 -27 3 -30 30 -30 l30 0 0
60 0 60 30 0 c27 0 30 3 30 30 0 27 3 30 30 30 l30 0 0 -60 0 -60 -30 0 c-27
0 -30 -3 -30 -30 0 -27 -3 -30 -30 -30 -27 0 -30 -3 -30 -30 0 -27 -3 -30 -30
-30 -27 0 -30 3 -30 30 0 27 -3 30 -30 30 -27 0 -30 -3 -30 -30 l0 -30 -60 0
-60 0 0 30 0 30 60 0 60 0 0 30 c0 27 -3 30 -30 30 l-30 0 0 90 0 90 30 0 c27
0 30 3 30 30 l0 30 60 0 60 0 0 -60z m-360 -30 c0 -27 -3 -30 -30 -30 -27 0
-30 3 -30 30 0 27 3 30 30 30 27 0 30 -3 30 -30z m120 -120 l0 -30 -60 0 -60
0 0 30 0 30 60 0 60 0 0 -30z m-1200 -120 c0 -27 -3 -30 -30 -30 -27 0 -30 3
-30 30 0 27 3 30 30 30 27 0 30 -3 30 -30z m1140 0 l0 -30 -60 0 -60 0 0 30 0
30 60 0 60 0 0 -30z m300 -120 l0 -30 -60 0 -60 0 0 30 0 30 60 0 60 0 0 -30z
m-1560 -240 c0 -27 -3 -30 -30 -30 -27 0 -30 3 -30 30 0 27 3 30 30 30 27 0
30 -3 30 -30z m0 -120 c0 -27 -3 -30 -30 -30 -27 0 -30 -3 -30 -30 0 -27 3
-30 30 -30 27 0 30 -3 30 -30 0 -27 -3 -30 -30 -30 -27 0 -30 3 -30 30 0 27
-3 30 -30 30 -27 0 -30 -3 -30 -30 0 -27 -3 -30 -30 -30 -27 0 -30 3 -30 30 0
27 3 30 30 30 27 0 30 3 30 30 0 27 3 30 30 30 27 0 30 3 30 30 0 27 3 30 30
30 27 0 30 -3 30 -30z m360 -60 c0 -27 -3 -30 -30 -30 -27 0 -30 3 -30 30 0
27 3 30 30 30 27 0 30 -3 30 -30z m-120 -90 l0 -60 30 0 c27 0 30 3 30 30 l0
30 60 0 60 0 0 30 c0 27 3 30 30 30 27 0 30 -3 30 -30 0 -27 3 -30 30 -30 27
0 30 -3 30 -30 0 -27 -3 -30 -30 -30 -27 0 -30 -3 -30 -30 l0 -30 90 0 90 0 0
-60 0 -60 -30 0 c-27 0 -30 3 -30 30 l0 30 -60 0 -60 0 0 -60 0 -60 30 0 c27
0 30 -3 30 -30 0 -27 -3 -30 -30 -30 -27 0 -30 3 -30 30 0 27 -3 30 -30 30
-27 0 -30 3 -30 30 l0 30 -60 0 -60 0 0 60 0 60 -30 0 -30 0 0 -90 0 -90 60 0
60 0 0 -30 c0 -27 3 -30 30 -30 27 0 30 -3 30 -30 0 -27 -3 -30 -30 -30 -27 0
-30 -3 -30 -30 0 -27 -3 -30 -30 -30 l-30 0 0 60 0 60 -30 0 c-27 0 -30 3 -30
30 0 27 -3 30 -30 30 l-30 0 0 60 0 60 -30 0 c-27 0 -30 3 -30 30 l0 30 60 0
60 0 0 30 0 30 -90 0 -90 0 0 60 0 60 90 0 90 0 0 -60z m1260 -150 l0 -90 -90
0 -90 0 0 90 0 90 90 0 90 0 0 -90z m-360 -180 l0 -30 -90 0 -90 0 0 -60 0
-60 -30 0 -30 0 0 90 0 90 120 0 120 0 0 -30z m240 0 c0 -27 3 -30 30 -30 27
0 30 3 30 30 0 27 3 30 30 30 27 0 30 -3 30 -30 0 -27 -3 -30 -30 -30 l-30 0
0 -60 0 -60 -30 0 c-27 0 -30 3 -30 30 0 27 -3 30 -30 30 -27 0 -30 3 -30 30
0 27 -3 30 -30 30 -27 0 -30 3 -30 30 l0 30 60 0 60 0 0 -30z m-1200 -60 c0
-27 3 -30 30 -30 27 0 30 -3 30 -30 l0 -30 -60 0 -60 0 0 60 0 60 30 0 c27 0
30 -3 30 -30z"/>
<path d="M780 2130 c0 -27 3 -30 30 -30 27 0 30 3 30 30 0 27 -3 30 -30 30
-27 0 -30 -3 -30 -30z"/>
<path d="M900 2040 l0 -60 30 0 30 0 0 60 0 60 -30 0 -30 0 0 -60z"/>
<path d="M1200 2070 c0 -27 -3 -30 -30 -30 -27 0 -30 -3 -30 -30 0 -27 -3 -30
-30 -30 -27 0 -30 3 -30 30 0 27 -3 30 -30 30 l-30 0 0 -60 0 -60 -30 0 -30 0
0 -90 0 -90 30 0 c27 0 30 3 30 30 0 27 3 30 30 30 l30 0 0 60 0 60 120 0 120
0 0 60 0 60 -30 0 c-27 0 -30 3 -30 30 0 27 -3 30 -30 30 -27 0 -30 -3 -30
-30z m60 -60 c0 -27 -3 -30 -30 -30 -27 0 -30 3 -30 30 0 27 3 30 30 30 27 0
30 -3 30 -30z"/>
<path d="M1740 1890 c0 -27 3 -30 30 -30 27 0 30 3 30 30 0 27 -3 30 -30 30
-27 0 -30 -3 -30 -30z"/>
<path d="M1200 1830 l0 -30 60 0 60 0 0 -30 c0 -27 3 -30 30 -30 27 0 30 -3
30 -30 l0 -30 60 0 60 0 0 30 0 30 -60 0 -60 0 0 30 c0 27 -3 30 -30 30 -27 0
-30 3 -30 30 l0 30 -60 0 -60 0 0 -30z"/>
<path d="M780 1770 c0 -27 3 -30 30 -30 27 0 30 -3 30 -30 0 -27 3 -30 30 -30
l30 0 0 60 0 60 -60 0 -60 0 0 -30z"/>
<path d="M600 1590 c0 -27 3 -30 30 -30 27 0 30 3 30 30 0 27 -3 30 -30 30
-27 0 -30 -3 -30 -30z"/>
<path d="M1046 1534 c-14 -13 -16 -49 -16 -243 0 -208 2 -229 18 -244 16 -15
48 -17 244 -17 205 0 226 2 241 18 15 16 17 48 17 244 0 205 -2 226 -18 241
-16 15 -48 17 -245 17 -192 0 -228 -2 -241 -16z m341 -100 c46 -35 66 -70 71
-126 8 -104 -52 -178 -152 -186 -66 -5 -116 16 -154 66 -23 30 -27 45 -27 102
0 57 4 72 27 102 15 19 42 42 60 52 45 23 138 17 175 -10z"/>
<path d="M1219 1372 c17 -22 37 -45 46 -52 11 -9 15 -32 15 -81 0 -39 4 -69
10 -69 6 0 10 29 10 66 0 64 1 67 45 117 54 62 39 79 -17 19 l-38 -42 -36 40
c-48 53 -77 54 -35 2z"/>
<path d="M1580 1410 c0 -23 4 -30 20 -30 16 0 20 7 20 30 0 23 -4 30 -20 30
-16 0 -20 -7 -20 -30z"/>
<path d="M1620 1230 c0 -27 3 -30 30 -30 27 0 30 3 30 30 0 27 -3 30 -30 30
-27 0 -30 -3 -30 -30z"/>
<path d="M1580 1110 c0 -29 1 -30 50 -30 49 0 50 1 50 30 0 29 -1 30 -50 30
-49 0 -50 -1 -50 -30z"/>
<path d="M1560 990 c0 -27 3 -30 30 -30 27 0 30 3 30 30 0 27 -3 30 -30 30
-27 0 -30 -3 -30 -30z"/>
<path d="M1740 990 c0 -27 3 -30 30 -30 27 0 30 3 30 30 0 27 -3 30 -30 30
-27 0 -30 -3 -30 -30z"/>
<path d="M2040 810 c0 -27 3 -30 30 -30 27 0 30 3 30 30 0 27 -3 30 -30 30
-27 0 -30 -3 -30 -30z"/>
<path d="M2040 1590 c0 -27 3 -30 30 -30 27 0 30 3 30 30 0 27 -3 30 -30 30
-27 0 -30 -3 -30 -30z"/>
<path d="M900 630 c0 -27 3 -30 30 -30 27 0 30 -3 30 -30 0 -27 3 -30 30 -30
27 0 30 3 30 30 0 27 -3 30 -30 30 -27 0 -30 3 -30 30 0 27 -3 30 -30 30 -27
0 -30 -3 -30 -30z"/>
<path d="M1980 570 c0 -27 3 -30 30 -30 27 0 30 3 30 30 0 27 -3 30 -30 30
-27 0 -30 -3 -30 -30z"/>
<path d="M1980 2190 l0 -210 210 0 210 0 0 210 0 210 -210 0 -210 0 0 -210z
m360 0 l0 -150 -150 0 -150 0 0 150 0 150 150 0 150 0 0 -150z"/>
<path d="M2100 2190 l0 -90 90 0 90 0 0 90 0 90 -90 0 -90 0 0 -90z"/>
<path d="M1740 2310 l0 -30 60 0 60 0 0 30 0 30 -60 0 -60 0 0 -30z"/>
<path d="M2280 1290 l0 -30 60 0 60 0 0 30 0 30 -60 0 -60 0 0 -30z"/>
<path d="M1200 810 c0 -27 3 -30 30 -30 27 0 30 -3 30 -30 l0 -30 60 0 60 0 0
30 0 30 -60 0 -60 0 0 30 c0 27 -3 30 -30 30 -27 0 -30 -3 -30 -30z"/>
<path d="M1440 780 l0 -60 60 0 60 0 0 30 c0 27 -3 30 -30 30 -27 0 -30 3 -30
30 0 27 -3 30 -30 30 l-30 0 0 -60z"/>
<path d="M1500 600 l0 -60 30 0 c27 0 30 3 30 30 0 27 3 30 30 30 27 0 30 3
30 30 l0 30 -60 0 -60 0 0 -60z"/>
<path d="M180 390 l0 -210 210 0 210 0 0 210 0 210 -210 0 -210 0 0 -210z
m360 0 l0 -150 -150 0 -150 0 0 150 0 150 150 0 150 0 0 -150z"/>
<path d="M300 390 l0 -90 90 0 90 0 0 90 0 90 -90 0 -90 0 0 -90z"/>
<path d="M1260 210 c0 -27 3 -30 30 -30 27 0 30 3 30 30 0 27 -3 30 -30 30
-27 0 -30 -3 -30 -30z"/>
</g>
</svg>
