<svg xmlns="http://www.w3.org/2000/svg" viewBox="0 0 400 400">
  <g fill-rule="evenodd">
    <path fill="#bb3a1c" d="M0 200v133.2h199.998V66.8H0V200M74.08 95.25c5.917 1.257 10.506 5.88 11.707 11.796.288 1.417.177 1.455-5.827 1.985l-3.04.268-.256-1.281c-1.597-7.982-12.115-7.789-14.526.266-1.395 4.663-.778 11.825 1.292 15.008 3.351 5.151 11.955 3.895 13.429-1.961.499-1.983.928-2.069 5.941-1.188 3.341.587 3.541 1.403 1.404 5.728-6.645 13.446-27.603 9.697-31.205-5.582C49.307 104.63 59.764 92.21 74.08 95.25m42.801.739c4.278 1.602 8.256 6.376 8.955 10.746l.255 1.596-2.345.294c-1.29.162-3.313.312-4.495.334l-2.148.041-.49-1.9c-1.624-6.303-10.304-6.705-13.614-.63-1.349 2.476-1.921 9.836-1.036 13.347 2.039 8.1 12.88 9.215 14.934 1.535.541-2.021.708-2.055 5.903-1.219l3 .483-.106 1.392c-.838 11.034-18.163 15.994-27.234 7.798-7.872-7.111-7.79-24.012.151-30.966 4.385-3.84 12.32-5.078 18.27-2.851m37.919.954c9.42 4.896 8.717 19.747-1.102 23.263-1.253.449-3.697.751-7.188.889l-5.29.209-.11 6.048-.11 6.048h-8.4l-.104-18.93-.104-18.931 10.104.131 10.104.13 2.2 1.143m-13.3 5.681c-.165.17-.3 2.889-.3 6.043v5.733l2.7-.01c3.817-.013 5.716-.543 6.972-1.943 2.288-2.554 1.792-7.636-.872-8.924-1.499-.726-8.001-1.413-8.5-.899m-32.513 54.623c34.635 8.837 51.813 46.722 33.19 73.199l-1.298 1.847 4.16 4.146c2.289 2.281 4.161 4.333 4.161 4.56 0 .227-2.3 2.708-5.112 5.513l-5.112 5.101-2.788-2.683c-1.533-1.476-3.463-3.3-4.288-4.053l-1.499-1.369-2.796 1.689c-17.644 10.661-39.538 9.194-56.559-3.789-1.789-1.365-2.887-.415-2.457 2.126.915 5.419-4.809 10.005-9.856 7.896-7.698-3.217-5.437-14.352 2.927-14.413 3.447-.025 3.467-.33.3-4.529-3.248-4.307-3.391-3.542 1.541-8.251l2.894-2.763 2.303 2.178c14.111 13.349 33.463 17.338 48.148 9.925l2.477-1.25-15.762-15.79c-8.668-8.684-16.244-16.141-16.834-16.571l-1.072-.782-4.69 4.608c-2.579 2.535-4.799 4.608-4.932 4.608s-3.111-2.873-6.618-6.385l-6.375-6.384 11.98-11.794L87 172.042l4.429.236c4.81.256 7.886-.224 9.484-1.481.921-.724.926-.721 4.004 2.288 3.832 3.746 4.077 2.851-2.517 9.213-3.08 2.972-5.6 5.634-5.6 5.915 0 .534 32.312 32.587 32.851 32.587 1.948 0 4.537-10.628 4.53-18.6-.016-18.235-10.699-34.1-29.981-44.521l-3.2-1.73 2.387.239c1.313.132 3.833.608 5.6 1.059"/>
    <path fill="#134780" d="M199.999 67c0 .11 0 60.005-.001 133.1V333l100.001.101 100.001.101V66.8H300c-55 0-100 .09-100.001.2m46.401 36.6c0 4.4.095 8 .212 8 .292 0 1.605-1.535 7.957-9.3l5.48-6.7h4.838c4.567 0 4.804.039 4.242.7-.327.385-1.93 2.318-3.562 4.296-1.632 1.978-4.348 5.188-6.037 7.134l-3.07 3.537 1.089 1.667c.599.916 3.701 5.626 6.894 10.466 3.194 4.84 5.944 9.03 6.113 9.312.243.407-.768.489-4.966.4l-5.272-.112-1.659-2.692c-2.264-3.673-7.55-12.063-7.752-12.303-.09-.107-1.141.822-2.335 2.065l-2.172 2.26v10.87H238V95.6h8.4v8m42.669-6.7c.412.715 2.724 5.395 5.14 10.4 2.415 5.005 4.538 9.1 4.718 9.1.181 0 2.601-4.68 5.38-10.4l5.051-10.4h9.314l.264 10.265c.145 5.646.264 14.106.264 18.8v8.535h-8v-11.8c0-6.49-.138-11.8-.307-11.8-.169 0-2.801 4.953-5.849 11.007-3.049 6.054-5.693 11.099-5.876 11.213-.483.298-.971-.56-6.716-11.812-2.862-5.605-5.41-10.261-5.663-10.345-.343-.114-.385 2.845-.167 11.692l.293 11.845h-8.03l-.167-18.5c-.092-10.175-.1-18.635-.019-18.8.082-.165 2.28-.3 4.885-.3h4.737l.748 1.3m64.531 2.3v3.6H344v30.4h-8.39l-.105-15.1-.105-15.1-4.9-.112-4.9-.113V95.6h28v3.6m-53.205 68.251c.858 3.272 2.109 7.839 2.78 10.149.671 2.31 1.221 4.293 1.223 4.407.001.115-2.699.215-6 .223-5.875.015-5.998-.002-5.756-.807.136-.453.838-2.713 1.561-5.023 1.502-4.796 2.787-9.249 3.175-11 1.178-5.312 1.066-5.388 3.017 2.051m22.79 6.001c-2.688 10.195-4.413 15.748-4.892 15.748-.187 0-1.157-.623-2.154-1.384-.997-.762-3.054-1.977-4.57-2.7-1.516-.724-2.76-1.443-2.763-1.598-.011-.5 15.239-15.206 15.498-14.947.073.073-.431 2.269-1.119 4.881m-42.381 2.792c4.441 4.47 7.19 7.522 6.88 7.639-1.471.554-5.317 2.811-7.077 4.153-2.404 1.833-1.989 2.468-4.595-7.036-1.146-4.18-2.338-8.488-2.648-9.573-1.085-3.795-1.173-3.852 7.44 4.817m26.248 11.099c23.472 8.719 23.471 41.517-.003 49.454-22.227 7.515-42.293-15.807-31.659-36.797 5.711-11.274 20.003-16.987 31.662-12.657M262 189.047c3.85 1.013 8.395 2.204 10.1 2.647 3.612.938 3.569.828 1.502 3.856-.879 1.287-2.054 3.372-2.611 4.632l-1.013 2.29-6.689-6.398c-7.756-7.419-9.179-8.875-8.664-8.871.206.001 3.525.831 7.375 1.844m73.2 5.736c-8.75 8.501-8.18 8.096-8.791 6.244-.249-.755-1.343-2.854-2.431-4.664-1.088-1.81-1.978-3.412-1.978-3.559 0-.305 18.968-5.541 20.2-5.576.539-.016-1.747 2.451-7 7.555m1.929 13.864c4.769 1.236 9.571 2.46 10.671 2.72l2 .473-2.8.854c-2.369.723-18.296 4.907-18.674 4.906-.069-.001-.126-2.521-.126-5.601s.058-5.599.129-5.599c.071 0 4.031 1.011 8.8 2.247M268.68 212.2c.007 2.97-.051 5.4-.129 5.4-.077 0-1.808-.438-3.846-.974-18.458-4.855-17.91-4.654-14.626-5.37 1.167-.254 5.541-1.345 9.721-2.424 4.18-1.08 7.885-1.978 8.234-1.997.548-.03.635.694.646 5.365m2.563 12.1c.678 1.485 1.846 3.555 2.595 4.601 1.731 2.417 1.714 2.579-.338 3.101-.935.238-2.895.784-4.355 1.213-5.546 1.631-14.493 3.97-14.636 3.827-.129-.128 15.112-15.405 15.396-15.432.057-.006.659 1.205 1.338 2.69m67.957 8.849c2.09 1.994 3.53 3.63 3.2 3.636-1.134.02-20.296-4.948-20.72-5.372-.119-.119.139-.62.574-1.115 1.259-1.432 2.872-4.107 3.963-6.575l1.009-2.282 4.087 4.041c2.248 2.223 5.797 5.673 7.887 7.667m-52.701 6.271c2.425.997 3.063.033-5.948 8.984-5.368 5.332-7.77 7.48-7.6 6.796.777-3.127 5.114-19.88 5.255-20.298.109-.323 1.263.247 3.281 1.62 1.712 1.165 3.967 2.469 5.012 2.898m32.676-2.72c.298 1.045.945 3.34 1.439 5.1.493 1.76 1.547 5.513 2.341 8.34.795 2.827 1.445 5.345 1.445 5.596 0 .251-3.51-3.05-7.8-7.336-4.29-4.286-7.8-7.889-7.8-8.007 0-.118 1.125-.71 2.5-1.315s3.49-1.804 4.7-2.665c2.743-1.95 2.533-1.969 3.175.287m-14.775 5.358c0 .142-.344 1.402-.764 2.8-.925 3.078-3.405 12.132-4.126 15.066-.678 2.761-1.101 2.672-1.93-.406-.373-1.385-1.251-4.588-1.95-7.118-.699-2.53-1.619-5.86-2.044-7.4-.425-1.54-.775-2.89-.779-3-.004-.11 2.603-.2 5.793-.2s5.8.116 5.8.258"/>
    <path fill="#faf8f5" d="M0 33.4v33.4h400V0H0v33.4m65.342 62.216c-15.589 3.085-17.293 31.084-2.241 36.8 8.843 3.358 18.803-.374 21.515-8.062 1.228-3.481 1.066-3.636-4.371-4.194l-2.579-.264-.397 1.441c-1.265 4.579-6.251 6.728-10.944 4.716-7.411-3.176-7.149-20.799.349-23.473 4.925-1.757 10.487 1.267 10.522 5.72.005.587 1.466.621 5.336.122 3.391-.437 3.234-.212 2.271-3.261-2.414-7.641-10.081-11.402-19.461-9.545m39.658.121c-10.372 3.454-15.069 15.69-10.593 27.6 5.089 13.543 26.721 13.772 30.547.324.761-2.674.738-2.703-2.554-3.235-4.129-.667-4.673-.593-4.981.674-1.171 4.812-6.722 7.121-11.332 4.715-7.392-3.857-6.434-21.376 1.283-23.463 4.872-1.316 8.517.792 10.017 5.794.221.738 4.149.727 7.313-.02 3.13-.739-2.186-9.285-7.172-11.53-3.015-1.358-9.662-1.813-12.528-.859m28.048.148c-.136.137-.248 8.588-.248 18.782V133.2h7.979l.111-6.1.11-6.1 5.4-.246c2.97-.135 5.951-.428 6.623-.65 10.643-3.517 11.032-19.262.577-23.389-2.18-.86-19.809-1.572-20.552-.83M238 114.4v18.8h8.4v-10.857l1.9-2.166c2.634-3.004 1.641-3.977 10.359 10.137l1.659 2.686 5.272.112c4.196.089 5.21.007 4.969-.4-.41-.695-13.462-20.307-13.935-20.939-.265-.355.265-1.195 1.8-2.854 1.197-1.294 3.962-4.505 6.145-7.136 2.183-2.631 4.236-5.098 4.562-5.483.56-.661.322-.7-4.245-.7h-4.838l-6.724 8.228-6.724 8.228-.108-8.228-.108-8.228H238v18.8m40.707-18.512c-.086.172-.081 8.637.011 18.812l.167 18.5h7.992l-.293-12.2c-.162-6.71-.194-12.2-.073-12.2.121 0 2.775 4.995 5.898 11.1 5.928 11.591 6.283 12.214 6.796 11.897.173-.107 2.897-5.342 6.055-11.633l5.74-11.438.106 12.237.106 12.237h7.988v-8.535c0-4.694-.119-13.154-.264-18.8l-.264-10.265h-9.321l-5.077 10.5c-2.793 5.775-5.212 10.54-5.376 10.59-.164.049-1.262-2.021-2.441-4.6-1.178-2.58-3.443-7.3-5.033-10.49l-2.891-5.8-4.836-.112c-2.659-.062-4.905.028-4.99.2m46.893 3.3v3.587l4.9.113 4.9.112.105 15.1.105 15.1H344v-30.4h9.6v-7.2h-28v3.588m-175.749 3.979c3.825 1.737 3.776 8.727-.074 10.563-1.585.756-6.372 1.309-7.936.916l-1.041-.261V102.4l3.7.009c2.749.006 4.124.201 5.351.758m148.177 59.693c-1.102 4.511-3.071 11.318-5.367 18.549-.25.788-.098.809 5.741.809 3.299 0 5.998-.133 5.998-.295 0-.162-.253-1.066-.562-2.009-.662-2.016-3.067-10.772-4.189-15.249-.965-3.851-1.088-3.989-1.621-1.805m24.158 7.419c-3.89 3.604-13.386 13.024-13.378 13.27.004.138 1.219.82 2.7 1.517 1.481.696 3.536 1.911 4.568 2.7 1.681 1.285 2.724 1.765 2.724 1.252 0-.1.792-2.935 1.761-6.3 2.539-8.823 3.908-13.983 3.749-14.141-.076-.076-1.031.69-2.124 1.702m-49.386-1.233c0 .321 1.761 6.887 3.206 11.954.627 2.2 1.426 5.032 1.776 6.293l.636 2.292 2.403-1.769c1.322-.973 3.433-2.262 4.691-2.864 1.258-.603 2.37-1.16 2.469-1.239.23-.18-14.467-14.913-14.877-14.913-.167 0-.304.111-.304.246m20.198 17.36c-18.224 3.624-26.673 26.638-15.204 41.408 15.383 19.81 46.671 9.368 46.784-15.614.076-16.703-15.073-29.077-31.58-25.794m-37.598 1.988c.66.705 4.207 4.158 7.882 7.674l6.683 6.392 1.207-2.662c.664-1.464 1.842-3.527 2.617-4.584 1.819-2.477 1.8-2.564-.689-3.196-1.155-.293-5.25-1.383-9.1-2.422-3.85-1.04-7.63-2.024-8.4-2.188l-1.4-.297 1.2 1.283m80.4.426c-3.08.858-7.445 2.048-9.7 2.646-4.579 1.215-4.492 1.124-3.065 3.216.569.835 1.694 2.908 2.5 4.606.806 1.699 1.574 3.049 1.708 3 .999-.363 15.619-15.08 14.957-15.056-.44.016-3.32.731-6.4 1.588m-7.632 18.48c.457 2.242.567 5.116.291 7.6-.165 1.485-.241 2.7-.167 2.7.38 0 16.308-4.18 18.708-4.909l2.8-.851-2-.468c-1.1-.257-5.93-1.48-10.734-2.719-10.209-2.634-9.125-2.469-8.898-1.353m-63.568.344c-1.54.425-4.69 1.225-7 1.778-8.023 1.921-9.768 2.427-9.318 2.705.334.207 19.879 5.473 20.312 5.473.041 0 .068-2.43.059-5.4-.017-6.165.338-5.766-4.053-4.556m3.516 15.656c-.888.935-4.342 4.38-7.676 7.656-3.334 3.276-6.001 6.017-5.926 6.091.123.124 3.287-.695 10.286-2.662 3.038-.854 6.775-1.873 8.9-2.425 1.844-.48 1.85-.671.096-3.112-.772-1.075-1.944-3.145-2.604-4.601-1.422-3.137-1.093-3.036-3.076-.947m57.688 1.265c-.783 1.649-2.061 3.835-2.841 4.856-.78 1.022-1.33 1.945-1.223 2.052.41.41 20.167 5.425 20.689 5.251.207-.069-3.129-3.508-7.413-7.642l-7.789-7.517-1.423 3m-47.598 10.341c-.133.399-4.29 16.461-5.253 20.294-.171.682 2.247-1.481 7.598-6.796 8.864-8.804 8.335-8.074 6.349-8.767-.825-.288-3.082-1.581-5.015-2.874-2.241-1.499-3.574-2.172-3.679-1.857m37.892 1.469c-1.157.847-3.272 2.049-4.7 2.671-1.429.623-2.598 1.229-2.598 1.347 0 .118 3.51 3.721 7.8 8.007s7.8 7.577 7.8 7.314c0-.513-1.596-6.38-2.806-10.314-.406-1.32-1.239-4.245-1.852-6.5-.612-2.255-1.21-4.092-1.328-4.082-.118.01-1.16.71-2.316 1.557m-23.298 5.68c0 .141.469 1.851 1.042 3.8 1.47 5.004 2.922 10.275 3.733 13.545.899 3.629 1.208 3.442 2.48-1.5.906-3.522 3.662-13.677 4.207-15.5.153-.514-.655-.6-5.641-.6-3.202 0-5.821.115-5.821.255M0 366.6V400h400v-66.8H0v33.4"/>
    <path fill="#f0b832" d="M68.691 95.089c.71.088 1.97.09 2.8.003.83-.087.249-.159-1.291-.161-1.54-.002-2.219.069-1.509.158m40 0c.71.088 1.97.09 2.8.003.83-.087.249-.159-1.291-.161-1.54-.002-2.219.069-1.509.158m23.805 19.411.104 18.9h8.4l.11-6.087.111-6.087 4.39-.134 4.39-.133-4.5.02L141 121l-.11 6.1-.111 6.1h-7.994l.107-18.8c.06-10.34-.029-18.8-.196-18.8s-.257 8.505-.2 18.9M149.3 95.876c.385.1 1.015.1 1.4 0 .385-.101.07-.183-.7-.183s-1.085.082-.7.183m-87.8.753c-1.551.841-1.375 1.132.2.33 1.508-.766 1.775-.965 1.267-.943-.202.009-.862.285-1.467.613m40 .198c-.825.436-1.5.881-1.5.991 0 .178 3.159-1.299 3.567-1.667.46-.417-.742-.023-2.067.676m15.333-.678c.412.368 2.767 1.451 2.767 1.272 0-.231-2.218-1.421-2.647-1.421-.157 0-.211.067-.12.149M152 96.084c.11.109.826.409 1.591.667.765.259 1.215.299 1 .088-.215-.21-.931-.51-1.591-.667-.66-.156-1.11-.196-1-.088m-72.465 1.83c1.108.833 2.417 2.048 2.908 2.7 1.847 2.45 2.001 2.153.183-.351-.803-1.105-4.243-3.863-4.82-3.863-.157 0 .62.681 1.729 1.514m-21.02.708c-.707.557-1.666 1.59-2.132 2.295l-.846 1.283 1.232-1.385c.677-.762 1.726-1.79 2.331-2.286 1.515-1.24 1.003-1.159-.585.093m63.062.778c2.386 2.732 2.584 2.92 2.104 2-.23-.44-1.19-1.52-2.134-2.4l-1.716-1.6 1.746 2m35.347-.934c.618.515 1.489 1.386 1.935 1.935.446.55.678.729.516.399-.466-.951-1.902-2.437-2.775-2.872-.456-.228-.317.003.324.538M97.781 99.7l-1.581 1.7 1.7-1.581c.935-.87 1.7-1.635 1.7-1.7 0-.303-.348 0-1.819 1.581m-43.2 3.937c-.352.681-.569 1.308-.482 1.395.087.087.457-.47.823-1.237.822-1.725.537-1.857-.341-.158m50.963-.413-.944.823 1.2-.702c1.579-.925 1.603-.945 1.111-.945-.232 0-.847.371-1.367.824m7.856-.357c.44.243 1.169.733 1.619 1.088.451.355.313.15-.306-.455s-1.348-1.095-1.619-1.088c-.272.007-.134.211.306.455m27.474 5.633c.075 6.183.228 5.454.42-2.001.058-2.255-.029-4.1-.194-4.1-.165.001-.267 2.746-.226 6.101m5.431-5.817c.497.096 1.217.092 1.6-.008.382-.1-.025-.179-.905-.174-.88.004-1.193.086-.695.182m-81.654.948c-.581.457-1.247 1.222-1.48 1.7-.38.778-.344.769.346-.087.424-.526 1.201-1.287 1.727-1.691.526-.404.845-.739.71-.744-.135-.005-.722.365-1.303.822m9.481-.285c.403.324.998.919 1.322 1.322.549.681.56.67.159-.159-.237-.49-.832-1.085-1.322-1.322-.829-.401-.84-.39-.159.159m20.218 1.273c-.442 1-.747 1.975-.677 2.167.07.191.509-.627.975-1.819 1.03-2.63.82-2.875-.298-.348m30.064-1.365c-.008.14.249.86.57 1.6.322.74.585 1.076.586.746.002-.576-1.127-2.866-1.156-2.346m-39.981.42c-.018.151.121.691.308 1.2.838 2.272.877 3.063.159 3.25-.509.133-.446.196.232.23.847.042.906-.072.653-1.254-.291-1.357-1.296-3.902-1.352-3.426m18.522 2.138c-.365.557-.591 1.086-.502 1.175.089.089.465-.367.836-1.013.825-1.438.58-1.557-.334-.162m-26.733.388c.129.44.334 1.295.456 1.9.206 1.023.352 1.095 2.072 1.03l1.85-.07-1.7-.153c-.949-.085-1.708-.364-1.718-.63-.01-.262-.283-1.017-.606-1.677-.323-.66-.483-.84-.354-.4m75.978 2c0 1.414.122 2.262.272 1.885.149-.377.272-1.225.272-1.885 0-.66-.123-1.508-.272-1.885-.15-.377-.272.471-.272 1.885m-35.574-1.1c.451 2.058.499 2.102 2.261 2.043l1.713-.057-1.576-.243c-1.364-.21-1.622-.418-1.912-1.543-.406-1.576-.826-1.748-.486-.2m8.974.071c0 .424-.315.853-.7.953-.527.138-.477.195.2.23.706.036.9-.17.9-.954 0-.55-.09-1-.2-1-.11 0-.2.347-.2.771m35.701 1.029c.004.88.086 1.193.182.695.096-.497.092-1.217-.008-1.6-.1-.382-.179.025-.174.905m-99.68.5c-.229.825-.396 2.04-.372 2.7.034.89.127.718.36-.664.173-1.026.434-2.241.58-2.7.146-.46.171-.836.057-.836-.115 0-.396.675-.625 1.5m19.879-.018c.495.096 1.305.096 1.8 0 .495-.095.09-.173-.9-.173s-1.395.078-.9.173m40 0c.495.096 1.305.096 1.8 0 .495-.095.09-.173-.9-.173s-1.395.078-.9.173m-20.044 1.002c-.135.504-.216 2.806-.18 5.116l.066 4.2.244-5c.261-5.358.249-5.731-.13-4.316M52.479 114.2c.009 2.2.142 4.54.296 5.2.155.66.209-.96.121-3.6-.199-5.999-.438-6.914-.417-1.6m98.392-1.749c-.512.631-.688 1.054-.392.94.54-.207 1.688-1.774 1.449-1.977-.071-.06-.546.407-1.057 1.037M60.909 114.4c0 .99.078 1.395.173.9.096-.495.096-1.305 0-1.8-.095-.495-.173-.09-.173.9m31.584 0c0 .77.082 1.085.183.7.1-.385.1-1.015 0-1.4-.101-.385-.183-.07-.183.7m50.207.289c.715.089 1.885.089 2.6 0 .715-.088.13-.161-1.3-.161-1.43 0-2.015.073-1.3.161m15.324 2.229c-1.681 1.971-1.695 2.007-.267.682 1.266-1.174 2.561-2.846 2.157-2.782-.063.01-.913.955-1.89 2.1m-96.796.715c.016.752.184 1.727.375 2.167.223.515.264.087.115-1.2-.274-2.378-.529-2.881-.49-.967m15.528 3.944c-.333 1.088-.465 1.89-.292 1.784.173-.107.503-.897.734-1.754.38-1.412.561-1.575 1.911-1.716l1.491-.157-1.618-.067c-1.608-.067-1.623-.053-2.226 1.91m40.021.004c-.342 1.084-.482 1.884-.311 1.778.172-.106.523-.896.78-1.755.417-1.391.627-1.579 1.911-1.716l1.443-.154-1.6-.061c-1.581-.062-1.607-.039-2.223 1.908M81.3 120.276c.385.1 1.015.1 1.4 0 .385-.101.07-.183-.7-.183s-1.085.082-.7.183m40 0c.385.1 1.015.1 1.4 0 .385-.101.07-.183-.7-.183s-1.085.082-.7.183m30.3.124c-.804.257-.843.323-.2.332.44.006 1.16-.143 1.6-.332 1.019-.438-.032-.438-1.4 0m-67.252.269c.97.204 1.058 1.413.286 3.931-.135.44.037.192.382-.55.904-1.946.644-3.433-.616-3.516-.973-.063-.974-.06-.052.135m39.852.016c1.326.319 1.433.677.818 2.72-.324 1.077-.516 2.03-.427 2.119.29.29 1.47-4.302 1.212-4.719-.138-.223-.735-.384-1.327-.359-.829.036-.893.091-.276.239m-30.568 1.228c-.038.613 1.042 3.287 1.327 3.287.11 0-.037-.585-.327-1.3-.291-.715-.627-1.57-.748-1.9-.143-.389-.232-.42-.252-.087M74.6 125.05c-.719.612-.866.855-.367.607.733-.364 2.108-1.681 1.716-1.643-.082.008-.689.474-1.349 1.036m-20.191-.35c.005.165.376.75.824 1.3l.815 1-.634-1.3c-.603-1.235-1.025-1.655-1.005-1m10.335.476c.52.453 1.135.824 1.367.824.492 0 .468-.02-1.111-.945l-1.2-.702.944.823m42.539 1.284c.284.18 1.507.316 2.717.302 2.658-.03 2.242-.241-.917-.466-1.294-.092-2.089-.02-1.8.164m16.298.375c-.246.46-1.1 1.585-1.897 2.5l-1.45 1.665 1.389-1.288c1.31-1.213 3.069-3.712 2.614-3.712-.115 0-.41.376-.656.835m-54.874-.145c.719.089 1.799.087 2.4-.004s.013-.164-1.307-.162c-1.32.002-1.812.077-1.093.166m13.545 1.81c-.877 1.19-1.137 1.72-.6 1.224.845-.781 2.583-3.325 2.271-3.324-.068.001-.82.946-1.671 2.1m14.047-1.1c.455.66 1.424 1.74 2.153 2.4.978.887.867.678-.426-.8-2.36-2.698-2.706-3.018-1.727-1.6M57.6 128.943c.99 1.055 2.16 2.109 2.6 2.342.44.233.71.343.6.246-.11-.098-1.28-1.152-2.6-2.342l-2.4-2.164 1.8 1.918m61 2.684c-.66.423-.995.77-.744.771.25.001.88-.352 1.4-.785 1.189-.99.903-.984-.656.014m-54.2 1.567c.33.217 1.035.397 1.567.4 1.284.008.958-.219-.767-.536-.985-.181-1.222-.14-.8.136m9.6.006c-.804.257-.843.323-.2.332.44.006 1.16-.143 1.6-.332 1.019-.438-.032-.438-1.4 0m30.6.113c1.031.617 9.633.595 11-.028.85-.387.729-.412-.8-.17-2.307.365-7.337.367-9.4.002-1.346-.237-1.473-.206-.8.196m-36.1.578c.825.087 2.175.087 3 0 .825-.086.15-.157-1.5-.157s-2.325.071-1.5.157m35.7 23.788c19.282 10.421 29.965 26.286 29.981 44.521.007 7.972-2.582 18.6-4.53 18.6-.539 0-32.851-32.053-32.851-32.587 0-.281 2.52-2.943 5.6-5.915 6.594-6.362 6.349-5.467 2.517-9.213-3.078-3.009-3.083-3.012-4.004-2.288-1.598 1.257-4.674 1.737-9.484 1.481L87 172.042l-11.98 11.795-11.98 11.794 6.375 6.384c3.507 3.512 6.485 6.385 6.618 6.385s2.353-2.073 4.932-4.608l4.69-4.608 1.072.782c.59.43 8.166 7.887 16.834 16.571l15.762 15.79-2.477 1.25c-14.685 7.413-34.037 3.424-48.148-9.925l-2.303-2.178-2.894 2.763c-4.932 4.709-4.789 3.944-1.541 8.251 3.167 4.199 3.147 4.504-.3 4.529-8.364.061-10.625 11.196-2.927 14.413 5.047 2.109 10.771-2.477 9.856-7.896-.43-2.541.668-3.491 2.457-2.126 17.021 12.983 38.915 14.45 56.559 3.789l2.796-1.689 1.499 1.369c.825.753 2.755 2.577 4.288 4.053l2.788 2.683 5.112-5.101c2.812-2.805 5.112-5.286 5.112-5.513 0-.227-1.872-2.279-4.161-4.56l-4.16-4.146 1.298-1.847c11.764-16.726 9.279-41.241-5.82-57.41-8.022-8.589-22.041-15.753-32.97-16.848l-2.387-.239 3.2 1.73M328.493 212c0 .77.082 1.085.183.7.1-.385.1-1.015 0-1.4-.101-.385-.183-.07-.183.7"/>
  </g>
</svg>
