<?xml version="1.0" standalone="no"?>
<!DOCTYPE svg PUBLIC "-//W3C//DTD SVG 20010904//EN"
 "http://www.w3.org/TR/2001/REC-SVG-20010904/DTD/svg10.dtd">
<svg version="1.0" xmlns="http://www.w3.org/2000/svg"
 width="828.000000pt" height="466.000000pt" viewBox="0 0 828.000000 466.000000"
 preserveAspectRatio="xMidYMid meet">

<g transform="translate(0.000000,466.000000) scale(0.100000,-0.100000)"
fill="#000000" stroke="none">
<path d="M0 2330 l0 -2330 4140 0 4140 0 0 2330 0 2330 -4140 0 -4140 0 0
-2330z m1582 1755 c87 -30 170 -128 192 -226 7 -33 2 -35 -100 -44 l-79 -7
-12 44 c-14 53 -46 84 -98 95 -96 21 -173 -27 -202 -126 -23 -80 -15 -212 17
-276 36 -70 67 -90 145 -90 90 0 122 29 160 141 1 3 166 -24 169 -27 2 -2 -5
-31 -15 -64 -24 -78 -74 -136 -147 -172 -51 -25 -67 -28 -162 -28 -99 0 -109
2 -173 33 -55 27 -77 46 -111 92 -61 83 -79 156 -74 301 4 128 25 191 88 262
90 103 258 141 402 92z m773 14 c33 -6 75 -19 95 -29 68 -36 137 -128 154
-207 9 -37 5 -39 -106 -49 -75 -6 -78 -6 -78 15 0 31 -25 76 -56 100 -20 16
-41 21 -81 21 -77 0 -115 -21 -149 -83 -27 -49 -29 -59 -29 -167 0 -104 2
-119 25 -159 38 -67 70 -86 145 -86 79 0 112 21 140 91 10 27 19 50 20 51 0 2
167 -26 170 -29 8 -9 -25 -102 -49 -138 -60 -92 -163 -135 -305 -128 -145 7
-235 68 -299 205 -25 54 -27 66 -27 193 1 116 4 143 23 191 42 106 131 182
242 205 72 16 94 16 165 3z m850 -35 c86 -47 127 -112 133 -214 8 -124 -36
-208 -133 -255 -48 -24 -72 -28 -170 -33 l-115 -5 0 -123 0 -124 -90 0 -90 0
0 391 0 390 213 -3 c194 -3 215 -5 252 -24z m1897 -141 l3 -167 138 167 138
167 100 0 100 0 -20 -27 c-11 -16 -72 -88 -135 -162 -63 -74 -112 -140 -109
-145 4 -6 68 -103 143 -216 75 -113 140 -211 144 -217 6 -10 -17 -13 -102 -13
l-109 0 -59 93 c-32 50 -78 123 -102 160 l-44 69 -44 -49 -43 -48 -1 -112 0
-113 -90 0 -90 0 0 390 0 390 90 0 90 0 2 -167z m977 -48 c57 -118 107 -215
110 -214 3 0 53 97 111 215 l104 214 97 0 96 0 6 -172 c4 -95 7 -271 7 -390
l0 -218 -85 0 -85 0 -1 253 0 252 -120 -237 c-65 -131 -125 -238 -132 -238 -7
0 -67 109 -135 243 l-122 242 6 -257 6 -258 -86 0 -86 0 0 313 c0 173 -3 348
-6 390 l-7 77 109 0 109 0 104 -215z m1241 140 l0 -75 -100 0 -100 0 0 -315 0
-315 -90 0 -90 0 0 315 0 315 -100 0 -100 0 0 75 0 75 290 0 290 0 0 -75z
m-5020 -1212 c166 -47 371 -164 488 -276 94 -90 185 -232 253 -392 57 -135 71
-388 30 -550 -27 -103 -62 -187 -115 -270 l-38 -58 88 -88 89 -89 -110 -110
-110 -110 -84 84 -83 83 -122 -61 c-181 -92 -260 -111 -471 -111 -146 0 -182
4 -255 23 -103 28 -262 103 -350 165 -77 55 -90 51 -90 -32 0 -79 -33 -123
-109 -147 -57 -17 -110 -2 -153 45 -34 36 -38 46 -38 91 0 99 61 163 157 164
31 1 58 6 60 11 1 6 -24 44 -57 85 l-60 75 77 77 77 77 60 -57 c149 -141 327
-233 509 -262 153 -25 354 3 481 67 l49 25 -349 343 -349 343 -95 -94 c-53
-52 -100 -94 -105 -94 -6 0 -69 59 -140 130 l-130 130 245 245 245 245 110 -6
c105 -6 112 -5 160 20 l50 26 65 -65 65 -65 -123 -123 -122 -122 341 -340
c382 -382 347 -360 390 -246 34 91 49 179 49 296 0 126 -15 207 -59 320 -94
244 -297 455 -596 619 -30 17 -30 17 30 10 33 -3 98 -17 145 -31z m3982 -428
l24 -80 -128 0 c-71 0 -128 0 -128 0 3 0 70 224 91 305 17 63 33 122 36 130 3
8 22 -50 43 -130 22 -80 49 -181 62 -225z m-370 -135 c-31 -15 -78 -43 -103
-62 l-46 -36 -57 207 c-32 113 -60 215 -63 226 -3 11 69 -54 160 -144 l165
-164 -56 -27z m748 131 c-32 -117 -61 -215 -63 -217 -3 -3 -39 17 -80 44 -42
27 -87 52 -101 56 -14 3 -26 10 -26 15 0 10 321 323 326 318 2 -1 -24 -98 -56
-216z m-313 -176 c164 -55 288 -174 345 -332 33 -91 37 -240 7 -338 -96 -326
-470 -481 -773 -323 -77 41 -181 145 -223 224 -114 215 -75 465 101 640 110
110 213 152 374 153 75 1 108 -4 169 -24z m-912 -41 c77 -20 167 -43 200 -52
33 -8 62 -16 64 -18 2 -2 -10 -25 -27 -51 -17 -26 -42 -73 -56 -104 l-26 -55
-165 159 c-91 88 -165 161 -165 164 0 2 8 2 18 -1 9 -2 80 -21 157 -42z m1665
43 c0 -2 -74 -76 -164 -164 l-165 -161 -35 72 c-19 39 -44 86 -56 103 -17 26
-19 34 -8 38 25 10 403 113 416 114 6 1 12 0 12 -2z m-2679 -210 c36 -24 64
-70 54 -87 -3 -6 -25 -10 -48 -10 -31 0 -45 5 -55 20 -23 37 -86 21 -80 -21 2
-19 14 -27 58 -41 117 -38 149 -71 137 -144 -11 -69 -65 -104 -157 -104 -74 0
-125 22 -145 61 -22 41 -19 46 26 53 34 5 46 3 64 -14 40 -37 112 -19 103 27
-2 12 -25 25 -72 40 -93 30 -116 53 -116 113 0 32 6 56 20 72 46 59 150 76
211 35z m-521 -72 c14 -44 34 -104 44 -134 l19 -54 44 136 44 137 50 0 c28 0
49 -5 49 -11 0 -5 -30 -95 -66 -200 l-67 -189 -57 0 -58 0 -15 43 c-63 179
-117 341 -117 349 0 5 23 8 52 6 l52 -3 26 -80z m3125 -175 c110 -28 205 -52
210 -54 12 -4 -47 -21 -270 -79 l-170 -44 0 118 c0 101 2 118 15 114 8 -2 105
-27 215 -55z m-1460 -65 c0 -98 -2 -114 -15 -110 -26 8 -364 97 -388 102 -12
3 -24 9 -27 12 -4 7 379 108 415 110 13 1 15 -18 15 -114z m-923 28 c24 -21
23 -65 -1 -87 -26 -24 -70 -17 -94 15 -16 23 -17 30 -7 50 7 13 18 27 24 31
19 13 59 9 78 -9z m2448 -521 c6 -2 10 -7 10 -12 0 -4 -28 -1 -62 7 -102 24
-373 95 -377 99 -2 2 12 28 32 57 19 30 45 77 57 106 l23 52 154 -153 c84 -84
158 -154 163 -156z m-1470 241 c13 -31 39 -76 57 -100 l33 -43 -53 -15 c-155
-44 -382 -105 -391 -105 -10 1 313 319 324 319 3 1 16 -25 30 -56z m216 -253
c28 -20 70 -44 93 -54 22 -11 41 -22 41 -25 0 -3 -75 -80 -166 -171 -91 -91
-163 -155 -160 -144 14 45 116 434 116 440 0 6 10 0 76 -46z m819 -167 c32
-114 60 -217 62 -228 3 -11 -70 56 -161 149 -91 93 -165 170 -163 172 1 1 29
15 62 32 33 17 76 42 95 56 19 14 38 25 41 26 3 0 32 -93 64 -207z m-355 55
c0 -4 -22 -87 -49 -185 -27 -98 -52 -193 -56 -211 -4 -19 -10 -30 -15 -25 -5
6 -120 411 -120 425 0 2 54 3 120 3 66 0 120 -3 120 -7z"/>
<path d="M2920 3825 l0 -125 53 0 c129 1 177 35 177 125 0 90 -48 124 -177
125 l-53 0 0 -125z"/>
</g>
</svg>
