<svg width="800" height="800" viewBox="0 0 800 800" xmlns="http://www.w3.org/2000/svg" style="background:#0f1117">

  <!-- 标题 -->
  <text x="50%" y="170" text-anchor="middle" font-size="36" fill="#ffffff" font-family="Arial, sans-serif" font-weight="bold">
    GitHub Pages + Cloudflare
  </text>

  <!-- 副标题 -->
  <text x="50%" y="230" text-anchor="middle" font-size="24" fill="#cccccc" font-family="Arial, sans-serif">
    自定义域名 HTTPS 配置指南
  </text>

  <!-- GitHub logo 占位 -->
  <g id="github-logo" transform="translate(160, 360) scale(0.14)">
    <path fill="#ffffff" d="M165.9 397.4c0 2-2.3 3.6-5.2 3.6-3.3 .3-5.6-1.3-5.6-3.6 0-2 2.3-3.6 5.2-3.6 3-.3 5.6 1.3 5.6 3.6zm-31.1-4.5c-.7 2 1.3 4.3 4.3 4.9 2.6 1 5.6 0 6.2-2s-1.3-4.3-4.3-5.2c-2.6-.7-5.5 .3-6.2 2.3zm44.2-1.7c-2.9 .7-4.9 2.6-4.6 4.9 .3 2 2.9 3.3 5.9 2.6 2.9-.7 4.9-2.6 4.6-4.6-.3-1.9-3-3.2-5.9-2.9zM244.8 8C106.1 8 0 113.3 0 252c0 110.9 69.8 205.8 169.5 239.2 12.8 2.3 17.3-5.6 17.3-12.1 0-6.2-.3-40.4-.3-61.4 0 0-70 15-84.7-29.8 0 0-11.4-29.1-27.8-36.6 0 0-22.9-15.7 1.6-15.4 0 0 24.9 2 38.6 25.8 21.9 38.6 58.6 27.5 72.9 20.9 2.3-16 8.8-27.1 16-33.7-55.9-6.2-112.3-14.3-112.3-110.5 0-27.5 7.6-41.3 23.6-58.9-2.6-6.5-11.1-33.3 2.6-67.9 20.9-6.5 69 27 69 27 20-5.6 41.5-8.5 62.8-8.5s42.8 2.9 62.8 8.5c0 0 48.1-33.6 69-27 13.7 34.7 5.2 61.4 2.6 67.9 16 17.7 25.8 31.5 25.8 58.9 0 96.5-58.9 104.2-114.8 110.5 9.2 7.9 17 22.9 17 46.4 0 33.7-.3 75.4-.3 83.6 0 6.5 4.6 14.4 17.3 12.1C428.2 457.8 496 362.9 496 252 496 113.3 383.5 8 244.8 8zM97.2 352.9c-1.3 1-1 3.3 .7 5.2 1.6 1.6 3.9 2.3 5.2 1 1.3-1 1-3.3-.7-5.2-1.6-1.6-3.9-2.3-5.2-1zm-10.8-8.1c-.7 1.3 .3 2.9 2.3 3.9 1.6 1 3.6 .7 4.3-.7 .7-1.3-.3-2.9-2.3-3.9-2-.6-3.6-.3-4.3 .7zm32.4 35.6c-1.6 1.3-1 4.3 1.3 6.2 2.3 2.3 5.2 2.6 6.5 1 1.3-1.3 .7-4.3-1.3-6.2-2.2-2.3-5.2-2.6-6.5-1zm-11.4-14.7c-1.6 1-1.6 3.6 0 5.9 1.6 2.3 4.3 3.3 5.6 2.3 1.6-1.3 1.6-3.9 0-6.2-1.4-2.3-4-3.3-5.6-2z"/>
  </g>

  <!-- 箭头连接 -->
  <line x1="250" y1="400" x2="320" y2="400" stroke="#888" stroke-width="2" marker-end="url(#arrow)"/>

  <!-- Cloudflare logo 占位 -->
  <g id="cloudflare-logo" transform="translate(350, 360) scale(0.14)">
    <path fill="#f38020" d="M407.9 319.9l-230.8-2.9a4.6 4.6 0 0 1 -3.6-1.9 4.6 4.6 0 0 1 -.5-4.1 6.1 6.1 0 0 1 5.4-4.1L411.3 303.9c27.6-1.3 57.5-23.6 68-50.8l13.3-34.5a7.9 7.9 0 0 0 .5-2.9 7.7 7.7 0 0 0 -.2-1.6A151.9 151.9 0 0 0 201.3 198.4 68.1 68.1 0 0 0 94.2 269.6C41.9 271.1 0 313.7 0 366.1a96.1 96.1 0 0 0 1 14 4.5 4.5 0 0 0 4.4 3.9l426.1 .1c0 0 .1 0 .1 0a5.6 5.6 0 0 0 5.3-4l3.3-11.3c3.9-13.4 2.4-25.8-4.1-34.9C430.1 325.4 420.1 320.5 407.9 319.9zM513.9 221.1c-2.1 0-4.3 .1-6.4 .2a3.8 3.8 0 0 0 -3.3 2.7l-9.1 31.2c-3.9 13.4-2.4 25.8 4.1 34.9 6 8.4 16.1 13.3 28.2 13.9l49.2 2.9a4.5 4.5 0 0 1 3.5 1.9 4.6 4.6 0 0 1 .5 4.2 6.2 6.2 0 0 1 -5.4 4.1l-51.1 2.9c-27.8 1.3-57.7 23.6-68.1 50.8l-3.7 9.6a2.7 2.7 0 0 0 2.4 3.7c0 0 .1 0 .1 0h175.9a4.7 4.7 0 0 0 4.5-3.4 124.8 124.8 0 0 0 4.7-34C640 277.3 583.5 221.1 513.9 221.1z"/>
  </g>

  <!-- 箭头连接到锁 -->
  <line x1="470" y1="400" x2="540" y2="400" stroke="#888" stroke-width="2" marker-end="url(#arrow)"/>

  <!-- HTTPS 锁标志 -->
  <g transform="translate(570, 360) scale(0.14)">
  <path fill="#00c67c" d="M256 0c4.6 0 9.2 1 13.4 2.9L457.7 82.8c22 9.3 38.4 31 38.3 57.2c-.5 99.2-41.3 280.7-213.6 363.2c-16.7 8-36.1 8-52.8 0C57.3 420.7 16.5 239.2 16 140c-.1-26.2 16.3-47.9 38.3-57.2L242.7 2.9C246.8 1 251.4 0 256 0z"/>
  </g>

  <!-- 底部描述 -->
  <text x="50%" y="580" text-anchor="middle" font-size="20" fill="#666666" font-family="monospace">
    CNAME · A记录 · Enforce HTTPS
  </text>
    <text x="50%" y="620" text-anchor="middle" font-size="20" fill="#666666" font-family="monospace">
    证书签发
  </text>

  <!-- 箭头定义 -->
  <defs>
    <marker id="arrow" markerWidth="10" markerHeight="10" refX="6" refY="3" orient="auto">
      <path d="M0,0 L0,6 L9,3 z" fill="#888"/>
    </marker>
  </defs>
</svg>