<?xml version="1.0" standalone="no"?>
<!DOCTYPE svg PUBLIC "-//W3C//DTD SVG 20010904//EN"
 "http://www.w3.org/TR/2001/REC-SVG-20010904/DTD/svg10.dtd">
<svg version="1.0" xmlns="http://www.w3.org/2000/svg"
 width="828.000000pt" height="466.000000pt" viewBox="0 0 828.000000 466.000000"
 preserveAspectRatio="xMidYMid meet">

<g transform="translate(0.000000,466.000000) scale(0.100000,-0.100000)"
fill="#000000" stroke="none">
<path d="M905 4154 c-16 -8 -41 -29 -55 -47 l-25 -31 -3 -1559 c-2 -1727 -7
-1601 62 -1650 l31 -22 1160 0 1160 0 31 22 c68 49 64 -42 64 1339 l0 1248
-25 35 c-28 42 -647 650 -679 668 -16 9 -220 12 -856 12 -733 1 -839 -1 -865
-15z m2033 -405 c158 -157 256 -262 248 -265 -7 -3 -113 -4 -235 -2 l-223 3
-29 33 -29 32 0 230 c0 127 2 230 4 230 2 0 121 -117 264 -261z m-1560 -104
c2 -206 1 -222 -18 -253 -26 -43 -80 -65 -141 -60 -40 4 -98 33 -98 48 0 3 12
20 27 38 l28 34 31 -18 c26 -15 33 -16 47 -5 14 12 16 43 16 221 0 113 3 210
7 214 4 4 28 6 53 4 l45 -3 3 -220z m399 198 c21 -11 49 -35 61 -54 20 -29 23
-44 20 -96 -5 -75 -26 -109 -88 -140 -32 -17 -62 -23 -107 -23 l-63 0 0 -95 0
-95 -55 0 -55 0 0 259 c0 198 3 261 13 265 6 3 62 4 124 2 86 -3 120 -8 150
-23z m486 13 c18 -7 45 -28 62 -45 l29 -31 -36 -37 -36 -36 -36 37 c-32 32
-43 36 -86 36 -59 0 -102 -31 -121 -87 -17 -51 -7 -181 16 -216 60 -92 194
-67 195 35 0 13 -11 18 -47 20 l-48 3 -3 43 -3 42 104 0 104 0 -3 -97 c-2 -76
-7 -102 -22 -122 -33 -45 -78 -64 -161 -69 -68 -3 -82 -1 -131 25 -32 16 -65
42 -78 62 -94 143 -49 366 89 434 42 21 166 23 212 3z m997 -1815 c0 -734 -3
-1047 -11 -1070 -23 -64 43 -61 -1174 -61 -1217 0 -1151 -3 -1174 61 -12 35
-16 2090 -4 2102 3 4 537 7 1185 7 l1178 0 0 -1039z"/>
<path d="M1600 3700 l0 -82 56 4 c66 6 84 23 84 78 0 48 -24 69 -89 77 l-51 6
0 -83z"/>
<path d="M1238 2819 c-15 -6 -36 -25 -48 -43 -20 -33 -20 -46 -20 -766 0 -646
2 -736 16 -765 32 -68 -6 -65 894 -65 734 0 815 2 840 16 63 38 60 -1 60 809
0 816 3 782 -65 811 -29 12 -165 14 -842 13 -507 0 -818 -4 -835 -10z m1662
-702 c3 -345 2 -627 -1 -627 -4 0 -80 80 -170 177 -210 227 -216 233 -246 233
-34 0 -58 -14 -136 -82 -38 -32 -71 -58 -75 -58 -14 0 -32 19 -196 207 -104
120 -177 195 -192 199 -47 12 -71 -5 -161 -113 -226 -272 -463 -547 -474 -551
-15 -6 -12 1221 3 1236 9 9 202 12 828 10 l815 -3 5 -628z"/>
<path d="M2324 2571 c-90 -22 -161 -96 -184 -191 -34 -144 98 -291 250 -277
132 12 221 106 221 234 1 104 -71 197 -172 227 -57 17 -68 18 -115 7z m120
-85 c82 -34 120 -146 75 -226 -60 -106 -210 -117 -279 -19 -36 49 -39 133 -8
179 50 74 132 100 212 66z"/>
<path d="M5275 4046 c-33 -14 -80 -65 -89 -93 -2 -10 -8 -98 -11 -195 l-7
-178 -86 0 c-111 0 -162 -22 -192 -84 -20 -42 -21 -56 -18 -414 3 -356 4 -372
24 -398 43 -58 68 -69 177 -74 l102 -5 5 -1010 c4 -739 8 -1015 17 -1030 20
-35 57 -63 98 -75 29 -8 344 -10 1166 -8 l1126 3 37 29 c71 53 66 -48 66 1463
l0 1367 -355 356 -355 355 -837 2 c-681 2 -844 0 -868 -11z m1670 -258 c0
-109 -3 -198 -7 -198 -5 0 -386 0 -849 0 l-841 0 4 163 c3 183 12 209 71 226
19 5 355 9 827 8 l795 -2 0 -197z m348 -148 c147 -148 267 -272 267 -275 0 -3
-99 -5 -220 -5 l-220 0 0 45 c0 63 -20 105 -69 147 l-42 36 2 161 c1 89 5 161
9 161 4 0 127 -121 273 -270z m-2057 -490 l40 -165 33 140 c47 203 41 190 87
190 l39 0 33 -145 c18 -80 37 -153 40 -163 5 -12 20 41 40 140 19 87 39 161
45 165 16 10 85 10 90 1 5 -8 -97 -410 -113 -450 -8 -19 -17 -23 -55 -23 -54
0 -53 -1 -92 163 -14 60 -29 105 -33 100 -4 -4 -19 -53 -33 -108 -40 -157 -39
-155 -92 -155 -28 0 -47 5 -49 13 -2 6 -25 93 -50 192 -26 99 -51 197 -57 218
-13 49 -6 59 44 55 l42 -3 41 -165z m809 125 l0 -40 -102 -3 -103 -3 0 -49 0
-50 84 0 84 0 4 -40 4 -40 -89 0 -88 0 3 -62 3 -63 80 -1 c135 -2 127 1 123
-41 l-3 -38 -152 -3 -153 -3 0 234 c0 129 3 237 7 241 4 3 72 5 152 4 l146 -3
0 -40z m299 34 c22 -6 52 -24 68 -39 23 -24 28 -37 28 -78 0 -43 -4 -54 -30
-75 l-29 -25 24 -16 c36 -24 58 -73 52 -114 -15 -92 -78 -124 -234 -120 l-108
3 1 75 c0 41 2 148 2 238 l2 162 93 0 c50 0 110 -5 131 -11z m440 -14 c47 -22
66 -60 66 -127 0 -94 -51 -143 -162 -154 l-68 -7 0 -83 0 -84 -50 0 -50 0 0
233 c0 129 3 237 8 241 14 15 216 0 256 -19z m834 -1346 l-3 -1341 -28 -24
-28 -24 -1124 0 -1124 0 -28 24 -28 24 -3 996 -3 996 846 0 c599 0 859 3 891
11 57 15 108 62 123 114 7 25 11 141 11 303 l0 262 250 0 250 0 -2 -1341z"/>
<path d="M6212 3178 l3 -53 49 3 c56 3 76 15 76 48 0 37 -26 54 -81 54 l-50 0
3 -52z"/>
<path d="M6212 2989 l3 -64 53 1 c61 1 85 18 85 59 0 40 -25 58 -88 63 l-56 5
3 -64z"/>
<path d="M6620 3165 l0 -65 48 0 c26 0 52 4 58 8 20 13 33 48 27 73 -8 36 -31
49 -85 49 l-48 0 0 -65z"/>
<path d="M5584 2441 c-17 -10 -36 -32 -42 -47 -7 -20 -12 -257 -15 -744 -5
-808 -8 -773 67 -810 42 -20 57 -20 842 -20 889 0 846 -3 887 67 17 30 19 75
24 745 6 677 5 715 -12 752 -10 21 -32 47 -49 57 -30 18 -66 19 -851 19 -785
0 -821 -1 -851 -19z m1673 -76 c13 -17 14 -100 11 -627 -2 -335 -6 -608 -9
-608 -3 0 -52 51 -110 112 -204 220 -283 303 -297 311 -25 16 -57 -2 -134 -73
-42 -38 -82 -70 -90 -70 -7 0 -92 88 -187 195 -100 112 -185 198 -198 201 -48
13 -71 -6 -219 -178 -81 -95 -173 -202 -203 -237 -31 -35 -89 -103 -130 -150
-41 -47 -76 -85 -78 -83 -7 5 -3 1194 4 1207 5 7 17 15 28 18 11 3 375 4 808
3 776 -1 789 -1 804 -21z"/>
<path d="M6645 2196 c-170 -74 -196 -315 -47 -419 44 -30 52 -32 134 -32 80 0
89 2 129 30 24 17 55 53 73 85 58 102 34 221 -60 298 -60 50 -163 67 -229 38z
m184 -93 c91 -69 79 -223 -22 -272 -75 -36 -149 -22 -199 37 -32 38 -42 80
-34 136 18 115 159 170 255 99z"/>
<path d="M4200 2842 c-21 -17 -22 -27 -26 -172 l-4 -155 -273 -2 c-263 -3
-273 -4 -289 -24 -16 -19 -18 -49 -18 -293 0 -230 2 -275 16 -294 15 -22 17
-22 290 -22 l274 0 0 -149 c0 -129 2 -152 18 -171 43 -53 51 -46 388 292 284
284 314 317 314 346 0 30 -26 59 -273 305 -395 392 -373 375 -417 339z"/>
</g>
</svg>
