<svg xmlns="http://www.w3.org/2000/svg" viewBox="0 0 400 400">
  <g fill-rule="evenodd">
    <path fill="#103346" d="M43.574 111.589c-.784.415-1.954 1.516-2.6 2.448l-1.174 1.694-.099 73.635c-.115 85.533-.466 79.177 4.499 81.476 2.493 1.154 109.507 1.154 112 0 1.955-.905 3.539-2.588 4.146-4.402.74-2.214.639-120.039-.104-121.753-.684-1.576-31.519-32.34-33.322-33.245-2.14-1.074-81.3-.934-83.346.147m210.965 5.417c-1.586.79-2.266 1.453-3.178 3.1L250.2 122.2l-.128 8.5-.129 8.5-3.871.002c-5.823.004-8.276 1.022-9.986 4.146-.83 1.515-1.206 34.061-.426 36.884 1.175 4.257 3.775 5.768 9.924 5.768 2.429 0 4.42.135 4.425.3.005.165.031 21.36.057 47.1.054 54.32-.132 52.008 4.362 54.299 1.896.967 110.851 1.099 112.692.137 1.539-.804 3.137-2.594 3.859-4.323 1.055-2.526.915-130.647-.145-132.913-.922-1.972-32.484-33.55-34.16-34.178-.762-.286-13.893-.422-40.622-.422h-39.495l-2.018 1.006m-112.421 13.712c6.992 6.995 12.586 12.845 12.431 13-.155.155-5.028.282-10.829.282-15.78 0-14.68 1.071-14.837-14.441-.065-6.358.026-11.559.202-11.559.176 0 6.041 5.723 13.033 12.718m193.441-10.968c.32.386.424 3.32.348 9.826l-.107 9.276-40.979-.039c-22.539-.021-41.049-.108-41.135-.194-.309-.309-.043-14.056.302-15.575.43-1.895 1.027-2.531 3.053-3.253 2.312-.824 77.835-.863 78.518-.041m16.795 16.404c7.628 7.631 12.837 13.138 12.674 13.4-.191.309-3.453.446-10.644.446h-10.369l-.187-.9c-.102-.495-.256-1.937-.34-3.204-.17-2.54-1.591-4.82-3.624-5.818l-1.064-.522v-8.178c0-4.498.136-8.178.302-8.178.167 0 6.13 5.829 13.252 12.954M109.2 125.631c1.675.756 4.8 3.371 4.8 4.016 0 .157-.925 1.021-2.055 1.922l-2.056 1.636-.954-1.294c-5.411-7.333-13.945 2.494-9.866 11.361 2.054 4.464 9.331 4.282 9.331-.234v-1.398l-2.3-.12-2.3-.12V137h10l.117 4.2c.172 6.195-.456 7.413-4.86 9.426-10.529 4.816-20.259-6.522-15.732-18.332 2.434-6.348 9.763-9.424 15.875-6.663m-42.353 10.548c-.045 10.718-.05 10.787-1.02 12.251-2.377 3.593-7.206 4.12-11.004 1.201l-.978-.751 1.378-1.828c1.478-1.961 1.995-2.194 2.777-1.252.662.798 2.647.776 2.957-.033.134-.348.243-4.998.243-10.333 0-11.054-.231-10.303 3.129-10.15l2.562.116-.044 10.779m19.156-9.884c2.944 1.441 4.083 3.58 3.923 7.37-.215 5.119-3.031 7.627-9.161 8.162l-3.165.276v4.341c0 4.957.027 4.925-3.827 4.681L71.8 151l-.106-12.396c-.058-6.818-.011-12.642.104-12.943.381-.992 11.937-.477 14.205.634m-8.404 7.052.001 3.546 2.648-.168c5.672-.362 5.359-6.45-.349-6.789l-2.3-.136v3.547M251.6 152.718c0 .395.432 2.42.959 4.5.528 2.08 1.178 4.997 1.445 6.482.684 3.798.825 3.568 2.741-4.5l1.71-7.2h4.314l.371 1.5c.759 3.071 2.814 11.928 2.947 12.7.122.706 1.866-6.047 2.531-9.8.136-.77.42-2.075.63-2.9l.383-1.5h2.584c3.084 0 3.007-.326 1.357 5.8-.652 2.42-1.438 5.48-1.748 6.8-2.166 9.238-2.527 10.151-4.045 10.261-4.043.293-3.945.414-5.8-7.225-1.45-5.971-1.627-6.179-2.327-2.736-.279 1.375-.841 3.67-1.249 5.1-.408 1.43-.849 3.095-.98 3.7-.23 1.061-.33 1.1-2.798 1.1h-2.561l-.622-1.9c-.343-1.045-.819-2.89-1.059-4.1-.24-1.21-.692-3.01-1.004-4-.815-2.578-2.979-11.418-2.979-12.168 0-.511.496-.632 2.6-.632 2.234 0 2.6.101 2.6.718M292.4 154v2h-10v4.772l4.1.114 4.1.114v4l-4.118.114-4.118.114.118 2.639.118 2.639 4.2-.059c4.922-.069 5.209.061 5.318 2.388l.082 1.765-7.5.109-7.5.109V152h15.2v2m15.955-1.223c3.675 1.875 4.233 8.348.812 9.433-.791.252-.755.334.562 1.271 1.803 1.283 2.422 2.805 2.177 5.353-.465 4.846-3.407 6.235-12.806 6.045l-3.9-.079V152h5.816c4.969 0 6.038.113 7.339.777m19.504.051c7.059 3.418 3.402 13.442-4.967 13.614l-2.892.059v8.299h-5.2V152h5.674c4.921 0 5.9.11 7.385.828m40.061.452c.562.562.667 124.291.108 127.696-.241 1.471-.645 2.263-1.582 3.1l-1.259 1.124H256.413l-1.307-1.167-1.306-1.167-.106-48.184-.107-48.184 41.907-.166 41.906-.166 2.094-1.143c1.656-.905 2.305-1.567 3.1-3.162l1.006-2.018v-13.255c0-7.29.12-13.375.267-13.521.511-.512 23.532-.308 24.053.213m-67.439 5.22.119 2.5 1.979-.128c5.077-.33 4.809-4.872-.287-4.872h-1.93l.119 2.5m19.519.699v3.311l2.166-.254c2.993-.352 3.386-.561 3.765-1.999.675-2.562-.43-3.801-3.69-4.138l-2.241-.231v3.311m-162.6 55.072v50.87l-.837 1.13c-.461.621-1.451 1.344-2.2 1.606-1.829.641-105.789.733-108.084.096-3.337-.927-3.076 3.652-3.078-53.874l-.001-50.902 57.1.102 57.1.101v50.871m143-46.489v2.582l1.3.216c3.195.531 5.547-1.143 4.95-3.522-.329-1.313-1.583-1.858-4.276-1.858H300.4v2.582m-97.346 7.047-1.054.829V190.8h-26.436l-.982.982-.982.982.005 12.918c.006 13.578.073 14.464 1.134 14.99.364.179 6.601.417 13.861.527l13.2.201.109 7.478.108 7.478 1.046.822c1.746 1.374 1.827 1.307 17.625-14.471C235.668 207.746 236 207.38 236 205.835c0-1.54-.337-1.917-13.9-15.526-17.075-17.134-17.01-17.081-19.046-15.48m-143.288 1.34c-.679.295-1.624 1.032-2.1 1.638l-.866 1.101.001 36.046c.002 35.045.024 36.082.783 37.327 1.641 2.691-1.019 2.542 43.181 2.425l39.983-.106 1.235-1.183c2.086-1.999 2.064-1.565 1.936-39.088-.134-39.485.125-36.36-3.147-38.028-1.844-.941-78.861-1.066-81.006-.132m80.001 3.274c.698.268 1.003 60.957.306 60.957-.352 0-6.132-6.107-13.061-13.8-7.072-7.851-6.857-7.818-13.661-2.121-3.651 3.058-4.11 3.192-5.422 1.579-.511-.628-4.22-4.933-8.243-9.566-10.017-11.537-9.623-11.452-16.292-3.495-4.253 5.074-3.202 3.839-14.467 16.991L60.2 240.177l-.103-29.945c-.074-21.788.021-30.092.349-30.488.471-.567 77.863-.861 79.321-.301m-27.678 8.57c-5.146 1.049-9.41 7.144-8.685 12.414 1.564 11.371 16.572 13.713 21.613 3.373 3.959-8.12-3.837-17.639-12.928-15.787m6.511 4.081c1.613.847 2.833 2.209 3.581 3.999 3.464 8.291-7.42 15.084-13.454 8.396-6.163-6.829 1.69-16.687 9.873-12.395m151.927 1.879c-3.335 1.523-3.113-1.13-3.232 38.627-.118 39.367-.279 37.052 2.705 38.786 2.198 1.278 79.396 1.28 81.6.003 3.138-1.818 2.971.367 2.986-39.058.016-39.25.259-35.867-2.74-38.106-1.677-1.253-78.605-1.491-81.319-.252m79.831 3.389c1.046.947 1.372 60.43.33 60.167-.282-.071-4.535-4.449-9.452-9.729-10.331-11.095-9.794-10.6-11.51-10.6-1.235 0-5.99 3.613-8.075 6.136-.839 1.015-2.278.806-3.322-.482-3.015-3.719-14.541-16.398-15.593-17.154-2.87-2.06-4.136-1.145-13.086 9.462-11.37 13.473-18.185 21.238-18.64 21.238-.762 0-.326-58.009.443-58.859.938-1.036-.071-1.011 40.405-.975 36.445.033 37.685.059 38.5.796m-29.03 8.678c-3.943 1.141-7.158 6.113-7.087 10.96.207 14.127 20.348 14.943 22 .892.934-7.948-6.897-14.171-14.913-11.852m7.922 3.798c4.039 2.533 5.106 7.499 2.464 11.476-3.929 5.916-13.407 3.726-14.354-3.318-.916-6.815 6.222-11.713 11.89-8.158"/>
    <path fill="#fbfbfb" d="M0 200v200h400V0H0v200m127.55-88.951c1.797 1.138 32.766 32.057 33.485 33.431.593 1.134.895 118.572.312 121.486-.372 1.859-3.473 5.129-5.341 5.632-1.028.277-19.729.378-56.74.308l-55.207-.106-1.13-.837c-2.143-1.589-3.652-3.997-3.919-6.255-.137-1.159-.195-35.048-.129-75.308L39 116.2l.871-1.6c.959-1.761 3.204-3.706 4.862-4.213.587-.179 19.159-.295 41.271-.256l40.205.069 1.341.849m209.763 5.109c2.331 1.012 34.188 33.393 34.473 35.042.134.77.191 30.933.128 67.029l-.114 65.63-1 1.476c-.55.812-1.72 1.968-2.6 2.57L366.6 289l-54.8.118c-58.794.127-56.731.196-59.227-1.995-3.003-2.637-2.75 1.79-2.973-52.123l-.2-48.4-4.6-.208c-5.952-.27-7.502-1.105-9.61-5.178-.822-1.588-.569-36.116.278-37.9 1.529-3.222 4.057-4.512 8.858-4.519 5.608-.009 5.084.846 5.225-8.519.152-10.129.816-11.958 5.049-13.918 2.153-.996 80.44-1.186 82.713-.2M129.201 129.3c.001 14.809-.929 13.886 13.994 13.894l10.595.006-11.995-11.988c-6.597-6.594-12.13-11.994-12.295-12-.165-.007-.3 4.533-.299 10.088m127.129-8.615c-1.855 1.151-2.08 2.169-2.248 10.215l-.157 7.5H335.2V120l-38.9.011c-35.526.009-38.993.068-39.97.674m83.13 4.304c-.143.372-.26 3.594-.26 7.159v6.483l1.8 1.504c2.27 1.898 3.072 3.437 3.366 6.465l.234 2.4 9.708.107c9.491.105 9.697.09 9.227-.662-1.399-2.241-23.83-24.095-24.075-23.456m-238.838.902c-6.296 1.602-9.589 12.589-5.864 19.565 2.365 4.429 7.603 6.405 13.001 4.907 4.391-1.219 5.549-3.112 5.375-8.782l-.122-3.981H104.8v1.6c0 1.594.005 1.6 1.567 1.6 2.483 0 2.833.272 2.833 2.201 0 5.214-8.505 5.854-10.618.799-1.301-3.111-1.382-3.462-1.36-5.919.069-7.576 6.659-11.758 11.434-7.254l1.462 1.378 1.341-1.023c3.82-2.914-4.336-6.745-10.837-5.091m-38.355.376c-.147.146-.267 4.618-.267 9.938 0 11.244-.48 12.479-4.101 10.541-1.17-.626-2.934 1.268-2.294 2.464.96 1.794 6.055 2.002 8.175.334 2.119-1.667 2.22-2.272 2.22-13.324V126h-1.733c-.954 0-1.854.12-2 .267m10.488.033c-.188 1.254-.272 22.531-.092 23.22.193.738.514.88 1.984.88H76.4v-3.967c0-5.125.048-5.232 2.343-5.235 7.461-.01 10.811-2.831 10.383-8.745-.223-3.084-1.537-4.909-4.186-5.812-1.966-.67-12.093-.953-12.185-.341m9.403 3.284c5.021 1.909 3.333 7.665-2.331 7.951l-2.923.147-.279-1.487c-.286-1.527-.234-5.602.083-6.495.214-.602 3.962-.682 5.45-.116m165.553 23.139c-.369.234.008 2.224 1.533 8.094 1.112 4.281 2.3 8.863 2.64 10.183.339 1.32.797 2.625 1.016 2.9.558.702 3.5.66 3.5-.049 0-.302.422-1.877.937-3.5.515-1.623 1.267-4.445 1.67-6.271 1.22-5.523 1.732-5.102 3.776 3.103 1.691 6.791 1.694 6.796 3.927 7.096 1.766.237 1.782.217 2.331-2.879.157-.88.51-2.141.787-2.803.276-.661.709-2.348.963-3.747.254-1.4.626-2.838.828-3.197.437-.78 1.981-7.39 1.981-8.485 0-.612-.286-.768-1.41-.768-1.699 0-1.876.361-3.016 6.174-2.022 10.301-2.943 12.057-3.959 7.545-.287-1.276-1.018-4.389-1.625-6.919-.606-2.53-1.215-5.095-1.354-5.7-.204-.892-.473-1.1-1.42-1.1-1.592 0-1.823.56-3.632 8.8-1.663 7.576-2.465 9.009-3.242 5.798-.159-.659-.556-2.278-.882-3.598-.325-1.32-.791-3.376-1.035-4.569-1.259-6.166-2.177-7.466-4.314-6.108m30.556-.056c-.147.146-.267 4.985-.267 10.753v10.487l.9.241c.495.133 3.465.244 6.6.247l5.7.005v-3.2h-9.632l.116-3.3.116-3.3 4.002-.2c3.227-.161 3.994-.316 3.961-.8-.144-2.111.075-2-3.949-2-4.384 0-4.516-.106-4.407-3.538.087-2.744.286-2.848 5.45-2.856 4.517-.006 4.934-.19 4.469-1.967-.22-.844-12.261-1.371-13.059-.572m17.914.24c-.107.278-.147 5.183-.088 10.9l.107 10.393 3.963.115c6.589.192 9.216-.732 10.445-3.673 1.154-2.762.31-5.927-1.887-7.071-.506-.263-.988-.537-1.069-.607-.082-.07.503-.742 1.3-1.493 3.179-2.998 1.618-7.653-2.89-8.62-2.962-.635-9.631-.598-9.881.056m19.919-.263c-.382.17-.5 2.718-.5 10.771v10.549l1.419.266c1.908.358 1.952.274 2.181-4.161l.2-3.869 3-.232c1.65-.127 3.657-.515 4.46-.863 4.779-2.066 4.771-10.45-.011-11.95-1.548-.486-9.914-.883-10.749-.511m30 .879-1.7.123-.002 12.677c-.003 14.334-.114 15.098-2.547 17.531-3.092 3.093-.753 2.946-46.987 2.946h-40.99l.232 47.664c.262 53.591-.01 49.346 3.2 50.013.79.164 25.384.259 54.654.211l53.218-.088.87-.87c1.472-1.472 1.504-2.886 1.528-67.417l.024-62.686-9.9-.114c-5.445-.062-10.665-.058-11.6.01m-40.933 2.46c3.918 1.999 1.988 5.617-2.998 5.617-1.771 0-2.579-.155-2.602-.5-.087-1.326.119-5.316.289-5.59.373-.604 3.796-.3 5.311.473m19.536.008c5.097 2.313 1.185 8.472-4.479 7.051-1.173-.295-1.645-7.125-.524-7.577 1.104-.446 3.393-.205 5.003.526M43.6 213.813c0 55.255-.127 52.446 2.417 53.333 1.857.647 106.509.647 108.366 0 2.544-.887 2.417 1.922 2.417-53.333V163.6H43.6v50.213m261.841-48.997c4.443 1.689 2.405 6.384-2.77 6.384h-2.966l-.229-1.7c-.127-.935-.126-2.465.001-3.4l.232-1.7h2.319c1.276 0 2.812.187 3.413.416m-83.949 24.081c15.645 15.626 15.971 16 15.519 17.803-.449 1.789-30.596 31.7-31.95 31.7-3.429 0-4.035-1.28-4.074-8.6-.016-3.08-.064-6.095-.108-6.7l-.079-1.1-11.9-.002c-17.735-.004-16.1 1.587-16.1-15.661 0-17.989-1.596-16.337 15.787-16.337 9.475 0 12.225-.112 12.266-.5.029-.275.106-3.02.171-6.1.065-3.08.131-6.07.147-6.645.043-1.571 1.837-3.155 3.571-3.155 1.353 0 2.298.863 16.75 15.297m-80.031-13.041c.943.447 1.693 1.269 2.361 2.586l.978 1.931v34.581c0 38.582.132 36.718-2.766 39.156-1.862 1.567-.813 1.532-42.905 1.407-38.746-.116-39.08-.124-40.175-.942-2.996-2.237-2.742 1.248-2.856-39.104-.115-40.495-.322-37.571 2.798-39.473 1.852-1.129 80.201-1.264 82.565-.142m-23.556 4.027c.497.096 1.217.092 1.6-.008.382-.1-.025-.179-.905-.174-.88.004-1.193.086-.695.182m234.377 13.835c3.126 2.167 2.953-.251 2.829 39.482L355 268.6l-.96 1.347c-2.142 3.002.403 2.834-43.255 2.844l-39.015.009-1.762-.9c-3.723-1.902-3.408 1.686-3.408-38.829 0-39.576-.165-37.102 2.611-39.078 2.128-1.516 2.64-1.533 42.423-1.463l39.035.07 1.613 1.118m-52.577 30.569c.609.092 1.509.09 2-.005.492-.095-.005-.171-1.105-.168-1.1.003-1.503.081-.895.173m24.6-.004c.497.096 1.217.092 1.6-.008.382-.1-.025-.179-.905-.174-.88.004-1.193.086-.695.182"/>
    <path fill="#99a6a5" d="m41.375 112.9-1.175 1.3 1.3-1.175c.715-.646 1.3-1.231 1.3-1.3 0-.309-.33-.037-1.425 1.175m-1.932 2.933c-.134.348-.243 34.193-.243 75.213 0 76.141.021 77.354 1.359 77.354.11 0-.062-.628-.383-1.395-.504-1.207-.568-11.486-.479-76.6.057-41.363.077-75.205.046-75.205-.032 0-.167.285-.3.633m89.363 13.267c.003 5.885.138 10.908.3 11.163.162.255.243-4.515.181-10.6l-.113-11.063 12.713 12.6 12.713 12.6-12.598-12.7c-6.928-6.985-12.733-12.7-12.9-12.7-.166 0-.299 4.815-.296 10.7m7.194-9.375c0 .069.585.654 1.3 1.3l1.3 1.175-1.175-1.3c-1.095-1.212-1.425-1.484-1.425-1.175m199.114 9.313.114 9.362h-81.209l-.125-6.9-.124-6.9.015 7 .015 7 40.9.102 40.9.102v-9.379c0-5.158-.135-9.461-.3-9.564-.165-.102-.249 4.028-.186 9.177m-85.423 1.648-.091 8.087-4.3.129-4.3.128 4.313.085c5.208.103 4.734 1.003 4.587-8.727l-.118-7.788-.091 8.086m89.109.69c0 4.277.135 7.86.3 7.963.165.102.247-3.247.183-7.442-.091-5.904 0-7.703.4-7.957.383-.243.336-.329-.183-.334-.643-.006-.7.629-.7 7.77m-274.609-5.889 2.196.153.116 10.28.117 10.28-.01-10.4-.01-10.4-2.302-.033-2.302-.033 2.195.153m10.709.009c1.265.079 3.335.079 4.6 0 1.265-.08.23-.145-2.3-.145s-3.565.065-2.3.145m20.734 3.16c-.899 1.021-1.634 2.051-1.634 2.289s.297-.012.66-.556c.364-.544 1.209-1.574 1.879-2.289.67-.715 1.108-1.3.973-1.3-.134 0-.979.835-1.878 1.856m16.666-.63c.495.564.9 1.182.9 1.374 0 .192-.405.81-.9 1.374l-.9 1.026 1.1-.97c.605-.533 1.1-1.177 1.1-1.43 0-.253-.495-.897-1.1-1.43l-1.1-.97.9 1.026M359.6 138.6c5.387 5.39 9.884 9.8 9.994 9.8.11 0-4.207-4.41-9.594-9.8-5.387-5.39-9.884-9.8-9.994-9.8-.11 0 4.207 4.41 9.594 9.8M151 134.4c2.633 2.64 4.877 4.8 4.987 4.8.11 0-1.954-2.16-4.587-4.8-2.633-2.64-4.877-4.8-4.987-4.8-.11 0 1.954 2.16 4.587 4.8m-74.136-1.124c-.035 1.912.071 3.561.236 3.663.165.103.25-.921.189-2.276-.2-4.411-.36-4.933-.425-1.387m31.801-1.976c1.294 1.71 1.432 1.761 2.186.8.494-.629.481-.647-.129-.169-.589.461-.843.356-1.935-.8l-1.257-1.331 1.135 1.5m-18.956 1.9c0 .99.078 1.395.173.9.096-.495.096-1.305 0-1.8-.095-.495-.173-.09-.173.9m8.025 4.8c0 1.65.071 2.325.157 1.5.087-.825.087-2.175 0-3-.086-.825-.157-.15-.157 1.5M82.6 136.427c-.66.423-.995.77-.744.771.25.001.88-.352 1.4-.785 1.189-.99.903-.984-.656.014m9.934 1.973c0 1.65.071 2.325.157 1.5.087-.825.087-2.175 0-3-.086-.825-.157-.15-.157 1.5m65.466 3c.746.77 1.447 1.4 1.557 1.4.11 0-.411-.63-1.157-1.4-.746-.77-1.447-1.4-1.557-1.4-.11 0 .411.63 1.157 1.4m-53.739-.102c.102.166 1.065.302 2.138.302h1.953l.172 1.5.171 1.5-.047-1.6-.048-1.6-2.263-.202c-1.244-.111-2.179-.066-2.076.1m-11.393.902c-.006.44.143 1.16.332 1.6.438 1.019.438-.032 0-1.4-.257-.804-.323-.843-.332-.2m-15.917 4.2c0 2.53.065 3.565.145 2.3.079-1.265.079-3.335 0-4.6-.08-1.265-.145-.23-.145 2.3m21.449-3.311c0 .232.371.847.824 1.367l.823.944-.702-1.2c-.925-1.579-.945-1.603-.945-1.111m62.595 62.511c0 33.33.047 46.965.105 30.3.058-16.665.058-43.935 0-60.6s-.105-3.03-.105 30.3m73.895-43.087c-.089 16.895.107 19.887 1.304 19.887.129 0 .003-.405-.28-.9-.388-.679-.566-5.218-.724-18.5l-.21-17.6-.09 17.113M344.07 147.7l-.07 1.9 10.1-.093 10.1-.092-9.877-.115-9.878-.114-.152-1.693-.153-1.693-.07 1.9m19.155.131c.756.897 1.456 1.566 1.555 1.486.099-.079-.52-.813-1.375-1.63l-1.555-1.487 1.375 1.631M54.88 147.68c-.91.91.562 3.124 2.074 3.119.245-.001-.139-.359-.854-.795-1.37-.835-1.615-1.529-.82-2.324.264-.264.39-.48.28-.48-.11 0-.416.216-.68.48m56.895.82-1.175 1.3 1.3-1.175c.715-.646 1.3-1.231 1.3-1.3 0-.309-.33-.037-1.425 1.175m-47.146.662-1.171 1.438 1.351-1.287c.742-.708 1.269-1.355 1.17-1.438-.098-.083-.706.496-1.35 1.287m181.994 3.201c-.124.2-.058.785.146 1.3.337.851.365.818.301-.362-.076-1.411-.11-1.483-.447-.938m23.244-.063c-.308.511-1.543 6.957-1.367 7.133.091.091.523-1.544.959-3.634.754-3.612.821-4.186.408-3.499m21.669 1.487.143 1.788-4.94.112-4.939.113-.033 2.302-.033 2.302.153-2.19.152-2.19 4.881-.112 4.88-.112.122-1.9c.067-1.045-.024-1.9-.203-1.9-.179 0-.261.804-.183 1.787m4.142 5.913c.079 7.748.225 6.84.418-2.601.057-2.805-.031-5.1-.196-5.1-.165.001-.265 3.466-.222 7.701m19.616 3.6.106 11.3h1.967c1.273 0 2.003-.18 2.07-.51.057-.28.012-.326-.1-.1s-.999.41-1.97.41H315.6v-10.967c0-8.399.117-11.014.5-11.168.296-.12.212-.215-.206-.233-.662-.03-.7.685-.6 11.268m56.501 53.9c0 35.97.047 50.685.105 32.7.058-17.985.058-47.415 0-65.4-.058-17.985-.105-3.27-.105 32.7M326.4 152.686c.33.122.96.388 1.4.59.787.362.788.358.024-.254-.428-.342-1.058-.608-1.4-.59-.539.027-.542.061-.024.254m-75.12 1.514c0 .44.144 1.25.32 1.8.254.792.32.833.32.2 0-.44-.144-1.25-.32-1.8-.254-.792-.32-.833-.32-.2m58.575.4c.925 1.579.945 1.603.945 1.111 0-.232-.371-.847-.824-1.367l-.823-.944.702 1.2m34.32 10.2c0 6.05.056 8.525.124 5.5.068-3.025.068-7.975 0-11-.068-3.025-.124-.55-.124 5.5m-70.746-8.971c-.148.586-.191 1.143-.097 1.237.095.094.292-.308.439-.895.148-.586.191-1.143.097-1.237-.095-.094-.292.308-.439.895m26.325.348c-.122.317-.137.902-.034 1.3.125.481.203.362.234-.357.044-1.025.163-1.087 2.346-1.224l2.3-.145-2.313-.075c-1.697-.056-2.371.077-2.533.501m20.946-.295c.495.096 1.305.096 1.8 0 .495-.095.09-.173-.9-.173s-1.395.078-.9.173m-9.837 1.918c-.037.88-.447 2.225-.913 2.989-.515.846-.61 1.193-.241.887.94-.781 1.565-2.646 1.384-4.129-.16-1.303-.167-1.295-.23.253m-4.409.638c-.054 1.03-.903 2.055-2.054 2.478-.514.189-.51.225.03.252 1.016.051 2.461-1.759 2.257-2.829-.171-.901-.18-.897-.233.099m24.447.562c.004.88.086 1.193.182.695.096-.497.092-1.217-.008-1.6-.1-.382-.179.025-.174.905m-74.039 1.062c-.262 1.132-.403 2.131-.314 2.219.089.089.382-.757.652-1.881s.411-2.123.313-2.22c-.097-.097-.39.75-.651 1.882m69.631-.862c0 .77.082 1.085.183.7.1-.385.1-1.015 0-1.4-.101-.385-.183-.07-.183.7m-78.437-.4c0 .33.155.96.344 1.4.217.504.344.578.344.2 0-.33-.155-.96-.344-1.4-.217-.504-.344-.578-.344-.2m24.173 1.429c-.148.586-.191 1.143-.097 1.237.095.094.292-.308.439-.895.148-.586.191-1.143.097-1.237-.095-.094-.292.308-.439.895m-11.748 1.353c.552.884.941.773.581-.165-.13-.339-.424-.617-.653-.617-.263 0-.237.287.072.782M290.114 163c.003 1.1.081 1.503.173.895.092-.609.09-1.509-.005-2-.095-.492-.171.005-.168 1.105m10.986-1.518c.495.096 1.305.096 1.8 0 .495-.095.09-.173-.9-.173s-1.395.078-.9.173m18.865 1.044c.179.179 1.116.265 2.081.192l1.754-.133-2.081-.192c-1.144-.106-1.934-.046-1.754.133m9.488.774-.72 1.3.825-1c.731-.887 1.056-1.6.728-1.6-.062 0-.437.585-.833 1.3m-286.068.4c-.105.275-.144 23.18-.086 50.9l.104 50.4.099-50.703.098-50.702 56.762.102c31.219.057 56.678-.032 56.576-.197-.348-.563-113.339-.364-113.553.2m210.295.9c0 .44.144 1.25.32 1.8.254.792.32.833.32.2 0-.44-.144-1.25-.32-1.8-.254-.792-.32-.833-.32-.2m73.32.627c-.66.423-.995.77-.744.771.25.001.88-.352 1.4-.785 1.189-.99.903-.984-.656.014m-15.763 1.108c.253.724.355 1.98.228 2.791-.183 1.175-.143 1.322.199.727.496-.866.206-3.743-.443-4.392-.313-.313-.308-.057.016.874m-61.181.065c0 .33.155.96.344 1.4.217.504.344.578.344.2 0-.33-.155-.96-.344-1.4-.217-.504-.344-.578-.344-.2m69.805-.1c-.102.165.742.248 1.877.184 3.409-.19 3.825-.372.986-.43-1.472-.029-2.76.081-2.863.246m-64.661.667c0 .311-.225.657-.5.768-.299.121-.218.215.2.233.444.02.7-.261.7-.768 0-.44-.09-.8-.2-.8-.11 0-.2.255-.2.567m44.52 1.433c0 1.21.075 1.705.167 1.1.091-.605.091-1.595 0-2.2-.092-.605-.167-.11-.167 1.1m-29.491-.571c-.148.586-.191 1.143-.097 1.237.095.094.292-.308.439-.895.148-.586.191-1.143.097-1.237-.095-.094-.292.308-.439.895m36.502 1.173c-.344.759-.458 1.276-.253 1.15.408-.253 1.224-2.184 1.011-2.396-.073-.073-.414.488-.758 1.246m-55.863.198c.02 1.039.65 2.746.664 1.8.006-.44-.143-1.16-.332-1.6-.211-.49-.339-.568-.332-.2m44.898 2.8.034 2.6 5.101.019 5.1.018-4.982-.13-4.981-.131-.153-2.488-.152-2.488.033 2.6m-8.767-.907 4.601.132v3.157l-7 .123-7.001.124 7.101-.015 7.1-.014V171l-4.701-.02-4.7-.02 4.6.133m14.101-.004c.715.089 1.885.089 2.6 0 .715-.088.13-.161-1.3-.161-1.43 0-2.015.073-1.3.161m-44.392 2.421c-.252.964-4.004 1.369-4.445.48-.112-.226-.157-.18-.102.1.156.782 3.984.899 4.612.142.277-.333.427-.832.335-1.108-.092-.277-.272-.103-.4.386m7.655 1.014c.179.179 1.206.266 2.281.194l1.956-.131-2.281-.193c-1.255-.107-2.135-.048-1.956.13M220.4 188.6c7.808 7.81 14.286 14.2 14.396 14.2.11 0-6.188-6.39-13.996-14.2-7.808-7.81-14.286-14.2-14.396-14.2-.11 0 6.188 6.39 13.996 14.2M60.138 175.506c-.416.265 39.811.257 68.462-.013 6.16-.058-6.62-.145-28.4-.193-21.78-.048-39.808.044-40.062.206M80.47 179.5c10.708.059 28.348.059 39.2 0 10.851-.059 2.09-.108-19.47-.108s-30.439.049-19.73.108M56.192 215c0 19.58.048 27.531.108 17.67.06-9.862.059-25.882 0-35.6-.06-9.719-.109-1.65-.108 17.93m145.162-30.6c0 2.75.064 3.875.142 2.5.078-1.375.078-3.625 0-5s-.142-.25-.142 2.5m-57.163 30.8c0 19.47.049 27.435.109 17.7s.06-25.665 0-35.4-.109-1.77-.109 17.7m-84.094-5.3c-.091 27.922 0 30.761.941 29.238.176-.285.11-.353-.174-.178-.343.213-.485-7.144-.564-29.238l-.105-29.522-.098 29.7m80 .886L140 239.773l-2.3-2.182-2.3-2.182 2.286 2.377c1.257 1.307 2.383 2.279 2.502 2.159.12-.119.17-13.251.112-29.181l-.105-28.964-.098 28.986m96.303-27.861c0 .069.585.654 1.3 1.3l1.3 1.175-1.175-1.3c-1.095-1.212-1.425-1.484-1.425-1.175m13.1 33.775c.056 16.885.148 38.44.205 47.9.057 9.46.147-4.355.199-30.7.053-26.345-.039-47.9-.204-47.9-.165 0-.255 13.815-.2 30.7m4.195 8.8c.052 21.505.142 32.8.199 25.1.275-36.743.278-64.2.006-64.2-.165 0-.257 17.595-.205 39.1m-134.462-36.979c.092.067.707.437 1.367.824l1.2.702-.944-.823c-.52-.453-1.135-.824-1.367-.824-.232 0-.347.054-.256.121m2.767 1.604c0 .069.585.654 1.3 1.3l1.3 1.175-1.175-1.3c-1.095-1.212-1.425-1.484-1.425-1.175m66.2.275-13.2.216 13.076.092c8.387.059 13.165-.051 13.324-.308.136-.22.192-.359.124-.308-.068.05-6.064.189-13.324.308m-74.295 1.083c.497.096 1.217.092 1.6-.008.382-.1-.025-.179-.905-.174-.88.004-1.193.086-.695.182m59.477 1.02c-.106.276-.145 6.531-.087 13.9l.106 13.397.199-13.9c.11-7.645.149-13.9.087-13.9-.061 0-.199.226-.305.503m93.667 4.512c-.137.358-.208 7.521-.158 15.918l.091 15.267.209-15.8c.224-16.945.23-16.352-.142-15.385m24.621.085c10.488.059 27.768.059 38.4 0 10.631-.059 2.05-.108-19.07-.108s-29.819.049-19.33.108m63.031 24.838c.056 13.784.149 29.382.207 34.662.059 5.28.146-5.79.193-24.6.048-18.81-.045-34.408-.207-34.662-.162-.254-.249 10.816-.193 24.6m-83.487-23.964c-.498.93-.589 58.026-.092 58.026.176 0 .941-.675 1.7-1.5l1.378-1.5-1.5 1.378-1.5 1.379v-28.505c0-18.884.14-28.766.414-29.278.228-.426.324-.774.214-.774-.11 0-.386.348-.614.774m50.386 7.644c-.438.297-.276.334.6.138 1.471-.329 1.79-.558.767-.55-.422.003-1.037.189-1.367.412M122.975 207.3l-1.175 1.3 1.3-1.175c1.212-1.095 1.484-1.425 1.175-1.425-.069 0-.654.585-1.3 1.3m-8.875-.224c.385.1 1.015.1 1.4 0 .385-.101.07-.183-.7-.183s-1.085.082-.7.183m202.875 1.424-1.175 1.3 1.3-1.175c.715-.646 1.3-1.231 1.3-1.3 0-.309-.33-.037-1.425 1.175m-230.8.4L85 210.2l1.3-1.175c1.212-1.095 1.484-1.425 1.175-1.425-.069 0-.654.585-1.3 1.3m25.225 1.524c.44.176 1.97.318 3.4.316 3.281-.004 2.707-.222-1.2-.455-1.701-.102-2.654-.042-2.2.139m224.901 5.376c.113 1.54.271 2.875.352 2.967.294.333.082-4.189-.233-4.967-.185-.458-.236.398-.119 2M101.6 218.525c0 .069.585.654 1.3 1.3l1.3 1.175-1.175-1.3c-1.095-1.212-1.425-1.484-1.425-1.175M76.175 220.9 75 222.2l1.3-1.175c1.212-1.095 1.484-1.425 1.175-1.425-.069 0-.654.585-1.3 1.3m291.615 29.5c0 16.83.05 23.715.11 15.3s.06-22.185 0-30.6c-.06-8.415-.11-1.53-.11 15.3M123.2 222.2c.746.77 1.447 1.4 1.557 1.4.11 0-.411-.63-1.157-1.4-.746-.77-1.447-1.4-1.557-1.4-.11 0 .411.63 1.157 1.4m57.924-.701c3.149.068 8.189.068 11.2 0 3.012-.068.436-.123-5.724-.123s-8.624.056-5.476.123M105.6 223c.746.77 1.447 1.4 1.557 1.4.11 0-.411-.63-1.157-1.4-.746-.77-1.447-1.4-1.557-1.4-.11 0 .411.63 1.157 1.4m95.701.8c.004.88.086 1.193.182.695.096-.497.092-1.217-.008-1.6-.1-.382-.179.025-.174.905m98.604.883c.497.096 1.217.092 1.6-.008.382-.1-.025-.179-.905-.174-.88.004-1.193.086-.695.182m24.395-.001c.495.096 1.305.096 1.8 0 .495-.095.09-.173-.9-.173s-1.395.078-.9.173M71.775 226.1l-1.175 1.3 1.3-1.175c1.212-1.095 1.484-1.425 1.175-1.425-.069 0-.654.585-1.3 1.3m54.225-.775c0 .069.585.654 1.3 1.3l1.3 1.175-1.175-1.3c-1.095-1.212-1.425-1.484-1.425-1.175m170.575 1.175-1.175 1.3 1.3-1.175c1.212-1.095 1.484-1.425 1.175-1.425-.069 0-.654.585-1.3 1.3m-95.229 2.9c.001 2.2.068 3.049.149 1.887.081-1.163.081-2.963-.002-4-.082-1.038-.148-.087-.147 2.113m92.429.3L292.6 231l1.3-1.175c.715-.646 1.3-1.231 1.3-1.3 0-.309-.33-.037-1.425 1.175m-226.4 1.6-1.175 1.3 1.3-1.175c1.212-1.095 1.484-1.425 1.175-1.425-.069 0-.654.585-1.3 1.3m64.425.3c.859.88 1.652 1.6 1.762 1.6.11 0-.503-.72-1.362-1.6-.859-.88-1.652-1.6-1.762-1.6-.11 0 .503.72 1.362 1.6m-66.825 2.5-1.175 1.3 1.3-1.175c1.212-1.095 1.484-1.425 1.175-1.425-.069 0-.654.585-1.3 1.3m245.425-.375c0 .069.585.654 1.3 1.3l1.3 1.175-1.175-1.3c-1.095-1.212-1.425-1.484-1.425-1.175M62.575 236.9l-1.175 1.3 1.3-1.175c1.212-1.095 1.484-1.425 1.175-1.425-.069 0-.654.585-1.3 1.3M334 239.8c.746.77 1.447 1.4 1.557 1.4.11 0-.411-.63-1.157-1.4-.746-.77-1.447-1.4-1.557-1.4-.11 0 .411.63 1.157 1.4m-10.613 1.5L321 243.8l2.5-2.387c1.375-1.314 2.5-2.439 2.5-2.5 0-.296-.395.065-2.613 2.387m-40.812 1.6-1.175 1.3 1.3-1.175c.715-.646 1.3-1.231 1.3-1.3 0-.309-.33-.037-1.425 1.175m35.025-1.175c0 .069.585.654 1.3 1.3l1.3 1.175-1.175-1.3c-1.095-1.212-1.425-1.484-1.425-1.175m21.8 3.875c.859.88 1.652 1.6 1.762 1.6.11 0-.503-.72-1.362-1.6-.859-.88-1.652-1.6-1.762-1.6-.11 0 .503.72 1.362 1.6m-59.625.5-1.175 1.3 1.3-1.175c.715-.646 1.3-1.231 1.3-1.3 0-.309-.33-.037-1.425 1.175m-2.4 2.8-1.175 1.3 1.3-1.175c1.212-1.095 1.484-1.425 1.175-1.425-.069 0-.654.585-1.3 1.3M345 251.6c1.083 1.1 2.06 2 2.17 2 .11 0-.687-.9-1.77-2s-2.06-2-2.17-2c-.11 0 .687.9 1.77 2m-288.6-.511c0 .232.371.847.824 1.367l.823.944-.702-1.2c-.925-1.579-.945-1.603-.945-1.111M266.559 261.6c0 3.19.062 4.495.138 2.9.076-1.595.076-4.205 0-5.8-.076-1.595-.138-.29-.138 2.9m.241 6.689c0 .232.371.847.824 1.367l.823.944-.702-1.2c-.925-1.579-.945-1.603-.945-1.111m-12.746 13.362c-.03.579.26 1.297.646 1.6.609.478.64.471.238-.051-.254-.33-.544-1.05-.645-1.6l-.184-1-.055 1.051m29.877 7.449c15.032.058 39.512.058 54.4 0 14.888-.058 2.589-.106-27.331-.106-29.92 0-42.101.048-27.069.106"/>
    <path fill="#d3f1f9" d="M65.53 110.3c11.072.059 29.072.059 40 0 10.929-.059 1.87-.108-20.13-.108s-30.941.049-19.87.108m71.67 10.3c4.946 4.95 9.083 9 9.193 9 .11 0-3.847-4.05-8.793-9s-9.083-9-9.193-9c-.11 0 3.847 4.05 8.793 9m138.93-4.7c11.182.059 29.362.059 40.4 0 11.039-.059 1.89-.108-20.33-.108s-31.251.049-20.07.108M354.4 133c9.128 9.13 16.686 16.6 16.796 16.6.11 0-7.268-7.47-16.396-16.6-9.128-9.13-16.686-16.6-16.796-16.6-.11 0 7.268 7.47 16.396 16.6M38.996 191.2c0 40.59.047 57.195.104 36.9.057-20.295.057-53.505 0-73.8-.057-20.295-.104-3.69-.104 36.9m238.274-71.3c10.488.059 27.768.059 38.4 0 10.631-.059 2.05-.108-19.07-.108s-29.819.049-19.33.108m61.962 4.8c.022.491.096.537.249.153.141-.357 3.162 2.361 8.668 7.8L356.6 141l-8.396-8.5c-8.484-8.588-9.029-9.062-8.972-7.8m-238.63.868c-.438.171.732.237 2.6.147 4.637-.223 5.257-.418 1.398-.44-1.76-.011-3.559.121-3.998.293M61.689 135.1l.088 9.5.212-9.2.211-9.2 1.9-.122 1.9-.122v10.242c0 11.097-.097 11.677-2.246 13.367-.584.459-.891.835-.683.835.484 0 2.293-1.931 2.88-3.074.298-.58.449-4.378.449-11.3V125.6h-4.8l.089 9.5m10.405 3 .106 12.5 2.287.12 2.286.119.114-4.519.113-4.52 2-.237 2-.237-2.057-.063c-2.526-.077-2.543-.043-2.543 5.17v3.967h-1.753c-1.47 0-1.791-.142-1.984-.88-.18-.689-.096-21.966.092-23.22.087-.578 10.248-.334 12.011.288.916.323 1.563.42 1.436.215-.491-.795-3.421-1.199-8.708-1.201l-5.505-.002.105 12.5M108 125.689c.11.103.83.493 1.6.867 1.016.492 1.235.521.8.104-.33-.316-1.05-.706-1.6-.867-.55-.161-.91-.208-.8-.104m-10.7 1.718c-3.696 3.163-5.596 10.081-4.12 14.993.166.55.216-.53.111-2.4-.325-5.812 1.643-10.926 4.957-12.881.744-.439 1.352-.87 1.352-.959 0-.461-.829-.012-2.3 1.247m-9.701.893c.523.715 1.014 1.3 1.09 1.3.304 0-.688-1.5-1.344-2.033-.432-.351-.335-.071.254.733m24.301-.274c1.239 1.412 1.148 1.789-.76 3.171-.913.662-1.494 1.203-1.291 1.203.61 0 3.351-2.42 3.351-2.959 0-.276-.495-.938-1.1-1.471L111 127l.9 1.026m-8.395 1.057c.497.096 1.217.092 1.6-.008.382-.1-.025-.179-.905-.174-.88.004-1.193.086-.695.182m-26.87.775c-.226.595-.183.643.221.242.616-.611 3.879-.656 5.418-.075.915.346 1.031.329.619-.087-.893-.902-5.92-.966-6.258-.08m23.919.233c-1.312 1.012-2.123 1.945-2.141 2.463-.007.195.376-.141.852-.745.475-.605 1.42-1.438 2.1-1.853.679-.414 1.034-.754.789-.755-.245 0-.965.4-1.6.89m-11.431 2.432c.107 1.681-.045 2.995-.461 3.991-.342.817-.531 1.486-.421 1.486.957 0 1.82-6.254 1.034-7.492-.171-.27-.24.636-.152 2.015m-5.51-1.847c-.007.262.167.588.387.724.846.523.452 3.784-.582 4.818-.54.54-.841.982-.67.982.953 0 2.052-1.955 2.052-3.649 0-1.51-1.149-4.293-1.187-2.875m-7.082 2.724c.002 1.54.074 2.121.161 1.291.087-.83.085-2.09-.003-2.8-.089-.71-.16-.031-.158 1.509m20.921 1.5c-.338 1.262-.3 5.606.054 6.16.162.253.294-1.232.294-3.3 0-4.135-.002-4.151-.348-2.86M76.8 137.297c0 .167 1.215.278 2.7.249 2.798-.057 2.487-.225-.8-.432-1.045-.066-1.9.017-1.9.183m27.527.19c-.075.172-.135 1.033-.132 1.913l.005 1.6 2.2.2c3.531.321 3.136 4.5-.525 5.559-.976.282-1.067.377-.389.405 1.678.068 3.714-2.213 3.714-4.163 0-1.929-.35-2.201-2.833-2.201-1.562 0-1.567-.006-1.567-1.6v-1.6h8.212l.122 4.002c.094 3.07-.027 4.303-.523 5.3-.621 1.248-.618 1.27.072.585.608-.605.717-1.425.717-5.4V137.4l-4.468-.113c-2.458-.062-4.53.028-4.605.2m-17.805 1.95-1.122 1.036 1.3-.864c1.191-.791 1.579-1.209 1.122-1.209-.097 0-.682.467-1.3 1.037M341.6 141c.746.77 1.447 1.4 1.557 1.4.11 0-.411-.63-1.157-1.4-.746-.77-1.447-1.4-1.557-1.4-.11 0 .411.63 1.157 1.4m-203.476 2.499c3.038.068 7.898.068 10.8 0 2.902-.068.416-.124-5.524-.124s-8.314.056-5.276.124M93.609 144c-.016 1.682 4.573 6.443 6.151 6.383.242-.009-.111-.324-.785-.7-2.286-1.275-2.976-1.957-4.169-4.122-.655-1.188-1.194-1.891-1.197-1.561m5.382.801c.352.869 1.926 1.923 3.257 2.181l1.152.223-1.2-.453c-.66-.248-1.707-.924-2.326-1.501-.619-.577-1.016-.78-.883-.45m62.11 43.337c.055 24.014.147 51.312.204 60.662.057 9.35.144-10.09.193-43.2.049-33.11-.042-60.408-.204-60.662-.162-.254-.249 19.186-.193 43.2m-99.703-42.445c-.497 1.133-2.291 1.4-3.606.539-1.59-1.042-3.799 2.204-2.327 3.419.602.496.621.465.199-.327-.696-1.307.986-3.246 2.235-2.578 1.738.93 4.51-.12 4.04-1.53-.079-.236-.322-.021-.541.477M107.6 150.4c-.824.264-.859.326-.2.354.44.019 1.07-.141 1.4-.354.701-.453.214-.453-1.2 0m-48.7.676c.385.1 1.015.1 1.4 0 .385-.101.07-.183-.7-.183s-1.085.082-.7.183m44.207.014c.719.089 1.799.087 2.4-.004s.013-.164-1.307-.162c-1.32.002-1.812.077-1.093.166m143.96 1.177c-.571.57-.228.94.507.547 1.581-.846 2.774-.514 3.178.886.207.715.392.973.412.574.091-1.824-2.843-3.261-4.097-2.007m11.831.678c-.247.541-.545 1.675-.664 2.519l-.216 1.536.428-1.4c.898-2.941 1.085-3.2 2.312-3.2.646 0 1.267.185 1.379.41.112.226.158.18.102-.1-.204-1.032-2.848-.847-3.341.235m11.385-.665c-.104.176-.299.95-.432 1.72l-.244 1.4.53-1.4c.461-1.22.726-1.416 2.054-1.528l1.525-.127-.235 1.927c-.151 1.23-.113 1.626.104 1.094 1.007-2.468.745-3.158-1.249-3.286-1.025-.067-1.949.023-2.053.2m7.593-.023c-.152.152-.276 5.196-.276 11.21V174.4l.9-.046c.687-.036.733-.09.194-.231-.657-.171-.699-.94-.6-10.854l.106-10.669 6.469-.11c5.904-.1 6.487-.048 6.677.6.167.568.192.55.126-.09-.084-.816-12.826-1.512-13.596-.743m18.385.043c-.103.165 1.641.249 3.876.186 2.538-.071 4.846.093 6.148.438 1.147.303 2 .414 1.896.246-.564-.913-11.402-1.703-11.92-.87m19.875.007c-.255.163 1.005.243 2.8.178 4.792-.173 5.377-.369 1.264-.424-1.98-.027-3.809.084-4.064.246m9.064.493c1.368.438 2.419.438 1.4 0-.44-.189-1.16-.338-1.6-.332-.643.009-.604.075.2.332m19.052.716c-.108.174.466.251 1.276.171 2.214-.218 2.477-.42.596-.455-.922-.018-1.765.11-1.872.284m13.546-.02 9.797.118.106 33.093.106 33.093-.004-33.2-.003-33.2-9.9-.011-9.9-.01 9.798.117m-29.384.126c-.008.123.436.833.986 1.578.55.745.999 1.185.998.978-.002-.406-1.96-2.927-1.984-2.556m-37.214 1.165c0 .219-1.956.442-4.5.514l-4.5.128 4.7.085c3.949.072 4.7-.01 4.7-.514 0-.33-.09-.6-.2-.6-.11 0-.2.174-.2.387m8.657.72c-.104.169.56.25 1.477.179 2.691-.207 3.019-.39.79-.44-1.142-.025-2.162.092-2.267.261m19.843-.042c-1.121.452-.649 7.282.524 7.577 2.303.578 5.983-.663 6.492-2.189.091-.274-.282-.05-.83.498-1.056 1.055-3 1.601-4.923 1.382l-1.163-.133v-6.8l2.4.047c1.554.03 2.118-.065 1.6-.272-.892-.356-3.329-.421-4.1-.11m-9.186 2.335c.003 1.1.081 1.503.173.895.092-.609.09-1.509-.005-2-.095-.492-.171.005-.168 1.105m-4.136-.726c.637 1.319.514 2.169-.478 3.3l-.9 1.026 1.1-.97c1.235-1.089 1.403-2.299.478-3.454-.601-.75-.608-.746-.2.098m-58.31.326c-.006.44.143 1.16.332 1.6.438 1.019.438-.032 0-1.4-.257-.804-.323-.843-.332-.2m82.452 1.4c0 1.21.075 1.705.167 1.1.091-.605.091-1.595 0-2.2-.092-.605-.167-.11-.167 1.1m-67.252-1.2c.02 1.039.65 2.746.664 1.8.006-.44-.143-1.16-.332-1.6-.211-.49-.339-.568-.332-.2m4.952 3.62c-.384 1.779-.618 3.315-.519 3.414.099.099.495-1.275.879-3.054s.618-3.315.519-3.414c-.099-.099-.495 1.275-.879 3.054m-15.778-.62c-.015.44.224 1.7.53 2.8.723 2.598.76 1.463.045-1.4-.302-1.21-.561-1.84-.575-1.4m29.15.1c.406.838.693.9 4.193.9 3.241 0 3.781.096 3.939.7.138.527.195.477.23-.2.045-.874-.064-.9-3.81-.9-3.19 0-3.954-.121-4.422-.7-.511-.632-.524-.612-.13.2m-21.785.2c-.523 1.56-1.033 4.007-.869 4.171.105.105.417-.821.694-2.057.363-1.625.656-2.189 1.056-2.035.305.116.444.034.309-.184-.34-.55-.989-.493-1.19.105m-3.378 2.149c-.256 1.016-.383 1.93-.284 2.03.198.198.451-.565.857-2.579.397-1.975-.043-1.552-.573.549m4.817-1.049c-.014.33.403 2.22.928 4.2.524 1.98.965 3.33.98 3 .014-.33-.403-2.22-.928-4.2-.524-1.98-.965-3.33-.98-3m10.214-.097c-.103.167-.294 1.022-.424 1.9-.267 1.796-.074 1.53.508-.703.369-1.415.337-1.878-.084-1.197m38.384 2.477c.244.341.644.98.888 1.42.244.44.449.585.456.322.007-.262-.393-.901-.888-1.419s-.7-.663-.456-.323m-152.85 49.42c0 27.5.048 38.691.106 24.869.058-13.822.058-36.322 0-50-.058-13.678-.106-2.369-.106 25.131m124.866-49.1c-.102.165 1.102.251 2.677.191 5.145-.197 5.739-.355 1.587-.424-2.242-.037-4.161.068-4.264.233m17.74.003c0 .166.855.249 1.9.183 3.287-.207 3.598-.375.8-.432-1.485-.029-2.7.082-2.7.249m-49.544.497c0 .33.155.96.344 1.4.217.504.344.578.344.2 0-.33-.155-.96-.344-1.4-.217-.504-.344-.578-.344-.2m55.884.243c.504.353 1.073 1.028 1.263 1.5.227.562.355.642.372.232.03-.739-1.402-2.375-2.08-2.375-.26 0-.06.289.445.643m-24.286 2.857c-.029 1.595.081 2.9.246 2.9.165 0 .248-.945.184-2.1-.193-3.521-.372-3.854-.43-.8m37.755-1.8c-.247.743-.442 7.867-.209 7.635.209-.207.684-8.137.487-8.136-.061.001-.187.226-.278.501m-52.739 1.11c-.222.816-.339.885-.664.39-.238-.362-.396-.411-.4-.124-.003.262.154.575.349.696.477.295 1.363-.817 1.153-1.448-.092-.277-.289-.058-.438.486m44.576.303c-.025.722-.315 1.982-.644 2.8-.524 1.303-.525 1.392-.005.718.696-.903 1.158-3.037.886-4.091-.109-.425-.21-.181-.237.573m-15.553.487c0 .77.082 1.085.183.7.1-.385.1-1.015 0-1.4-.101-.385-.183-.07-.183.7m-44.837-.4c0 .33.155.96.344 1.4.217.504.344.578.344.2 0-.33-.155-.96-.344-1.4-.217-.504-.344-.578-.344-.2m6.573 1.829c-.148.586-.191 1.143-.097 1.237.095.094.292-.308.439-.895.148-.586.191-1.143.097-1.237-.095-.094-.292.308-.439.895m12.02-.414c-.137.358-.234.951-.215 1.318.019.367.193.136.387-.513.377-1.262.244-1.887-.172-.805m36.351 1.012c-.66.423-.995.77-.744.771.25.001.88-.352 1.4-.785 1.189-.99.903-.984-.656.014m-42.544-.027c0 .33.155.96.344 1.4.217.504.344.578.344.2 0-.33-.155-.96-.344-1.4-.217-.504-.344-.578-.344-.2m-11.612.6c-.084.851.814 3.4 1.198 3.4.23 0 .265-.216.082-.5-.178-.275-.53-1.13-.782-1.9s-.476-1.22-.498-1m39.665 1.8c0 .99.078 1.395.173.9.096-.495.096-1.305 0-1.8-.095-.495-.173-.09-.173.9m-34.68-.171c-.148.586-.191 1.143-.097 1.237.095.094.292-.308.439-.895.148-.586.191-1.143.097-1.237-.095-.094-.292.308-.439.895m7.439.771c.09.516.494.832 1.136.89.548.049.726-.017.396-.147-.33-.129-.841-.529-1.136-.889-.485-.592-.523-.578-.396.146m-61.011.507c-.104.169.534.239 1.418.154l1.608-.153 15.144 15.124c15.092 15.073 16.182 16.352 15.29 17.944-.186.334-6.729 7.046-14.538 14.915-7.809 7.87-14.451 14.669-14.76 15.109-.309.44 6.21-5.969 14.487-14.242 14.695-14.687 15.891-16.078 15.334-17.832-.661-2.082-30.841-31.326-32.328-31.326-.806 0-1.55.138-1.655.307m-1.703 1.87c-.122.317-.151.902-.065 1.3.098.451.235.235.365-.577.217-1.362.076-1.704-.3-.723M344.12 177.6c0 1.21.075 1.705.167 1.1.091-.605.091-1.595 0-2.2-.092-.605-.167-.11-.167 1.1m-143.164 1.722c-.042 1.19-.016 1.215.367.365.249-.554.267-1.057.044-1.278-.222-.222-.385.139-.411.913m-56.655 25.616c.056 14.114.149 30.072.207 35.462.059 5.39.146-5.95.193-25.2.048-19.25-.045-35.208-.207-35.462-.162-.254-.249 11.086-.193 25.2m-83.724-24.819c-.101.265-.137 13.67-.08 29.79l.103 29.31 8.4-9.857c4.62-5.422 10.542-12.462 13.161-15.645 7.932-9.644 6.993-9.892 20.395 5.383 6.424 7.321 7.444 8.312 7.444 7.233 0-.256.111-.355.247-.219.136.136 1.781-1.045 3.657-2.624 3.188-2.685 3.559-2.886 5.732-3.093 1.278-.123 2.269-.169 2.203-.103-.215.215 3.551 3.871 3.891 3.777.181-.05.232.067.112.261-.26.42 1.499 2.164 1.888 1.872.148-.112.185-.089.082.051-.324.439 1.426 2.568 1.88 2.288.238-.147.328-.099.201.107-.127.205 2.088 2.798 4.923 5.761l5.153 5.389-.085-30-.084-30-39.52-.081c-30.468-.062-39.562.03-39.703.4M242 186.259c3.312.294 7.512.317 7.34.041-.103-.165-2.112-.27-4.464-.233-2.352.037-3.646.123-2.876.192m32.931.441c11.401.059 29.941.059 41.2 0 11.258-.059 1.929-.107-20.731-.107s-31.871.048-20.469.107m-157.236 1.259c5.99 1.636 9.906 7.537 8.667 13.062-.245 1.088-.452 2.519-.462 3.179-.01.66-.098.971-.196.69-.105-.302-.649.143-1.337 1.093-4.179 5.769-12.527 6.431-17.859 1.417-8.74-8.218-.452-22.619 11.187-19.441m83.105 1.355c0 .616-1.088.684-12.5.786l-12.5.112 12.676.094c12.594.093 13.953-.037 12.769-1.221-.327-.327-.445-.266-.445.229m90.93 3.386c10.742.059 28.202.059 38.8 0 10.599-.059 1.81-.108-19.53-.108s-30.011.049-19.27.108m-118.84 13.356c-.083 12.332-.032 13.519.61 14.219.385.419.52.502.3.183-.237-.343-.486-6.146-.61-14.219l-.211-13.639-.089 13.456m177.51-12.97c.33.122.96.388 1.4.59.787.362.788.358.024-.254-.428-.342-1.058-.608-1.4-.59-.539.027-.542.061-.024.254m-82.077 1.614c-.705.821-1.233 1.7-1.022 1.7.082 0 .548-.54 1.036-1.2.964-1.304.955-1.628-.014-.5m3.291 3.274c-.522.976-.527 1.343-.014 1.026.22-.136.4.033.4.376 0 .343-.184.624-.409.624-.276 0-.4 9.093-.38 27.811.017 15.658.182 27.717.378 27.596.191-.118 4.63-5.208 9.865-11.311 5.234-6.103 11.027-12.851 12.873-14.996 1.846-2.145 3.528-3.9 3.738-3.9.21 0 .272-.178.138-.395-.145-.235.034-.289.442-.132.466.178.593.112.397-.205-.205-.332.25-.468 1.558-.468 1.13 0 1.751.155 1.6.4-.136.22-.076.4.133.4.21 0 3.408 3.375 7.107 7.5 3.699 4.125 7.654 8.467 8.788 9.649l2.061 2.149 3.727-3.449c2.05-1.897 3.886-3.449 4.079-3.449.194 0 .242-.178.108-.395-.145-.235.034-.289.442-.132.466.178.593.112.397-.205-.193-.312.06-.468.758-.468.596 0 .941.172.8.4-.136.22-.005.4.291.4.297 0 1.418.892 2.491 1.982 1.074 1.09 2.13 1.872 2.347 1.738.231-.143.267-.037.086.256-.193.312.123.908.838 1.581.631.594 3.832 3.988 7.115 7.543 3.282 3.555 6.147 6.352 6.368 6.216.238-.147.296.023.145.418-.141.366-.082.666.132.666.246 0 .385-10.733.381-29.5-.003-16.242-.158-29.26-.345-28.966-.257.406-.39.334-.556-.301-.139-.529-.063-.738.206-.572.25.155.307.072.139-.199-.579-.938-78.12-.63-78.624.312m-5.025 27.426c0 14.74.05 20.712.111 13.271.061-7.441.061-19.501 0-26.8-.061-7.299-.111-1.211-.111 13.529m62.929-19.367c.944.406 2.225 1.099 2.845 1.54.62.442 1.271.674 1.446.515.176-.158.203-.084.061.165-.143.249.12.935.583 1.523 2.157 2.743 2.849 6.829 1.766 10.429-.32 1.062-.471 2.126-.336 2.363.135.238.102.303-.073.145-.429-.388-2.666 2.473-2.342 2.996.14.228.082.307-.131.176-.51-.315-2.633 1.086-2.24 1.478.167.167.123.267-.097.223-.22-.044-.49-.045-.6 0-2.54 1.019-9.543.769-10.823-.386-.365-.33-1.304-1.09-2.086-1.689-3.637-2.787-4.843-9.366-2.567-14.001 1.105-2.25 3.888-5.11 4.972-5.11.303 0 .464-.141.357-.314-.107-.173.108-.344.476-.38.369-.036 1.391-.231 2.271-.433 2.003-.461 4.296-.194 6.518.76M188.5 221.9l12.3.112.04 1.094.04 1.094.297-1c.478-1.61.527-1.604-12.501-1.506l-12.476.094 12.3.112m12.3 11.01c0 .793.155 1.538.344 1.655.189.117.27-.451.181-1.262-.217-1.964-.525-2.195-.525-.393m.432 2.714c-.018.342.248.972.59 1.4.612.764.616.763.254-.024-.202-.44-.468-1.07-.59-1.4-.193-.518-.227-.515-.254.024M204.8 238l-1.4.295 1.276.052c.702.029 1.388-.127 1.524-.347.136-.22.192-.376.124-.347-.068.029-.754.185-1.524.347m-148 14.525c0 .069.585.654 1.3 1.3L59.4 255l-1.175-1.3c-1.095-1.212-1.425-1.484-1.425-1.175m209.709 1.875c0 .99.078 1.395.173.9.096-.495.096-1.305 0-1.8-.095-.495-.173-.09-.173.9M80.7 255.5c10.835.059 28.565.059 39.4 0 10.835-.059 1.97-.108-19.7-.108-21.67 0-30.535.049-19.7.108m173.476 14.3c0 6.16.056 8.624.123 5.476.068-3.149.068-8.189 0-11.2-.068-3.012-.123-.436-.123 5.724M156 265.953c0 .267-.585.74-1.3 1.051-.715.31-1.005.572-.644.58.85.021 2.635-1.424 2.244-1.816-.165-.166-.3-.083-.3.185M73.731 267.9c14.702.058 38.642.058 53.2 0s2.529-.106-26.731-.106-41.171.048-26.469.106m-1 4c15.252.058 40.092.058 55.2 0 15.108-.058 2.629-.106-27.731-.106-30.36 0-42.721.048-27.469.106m218.369.8c10.835.059 28.565.059 39.4 0 10.835-.059 1.97-.108-19.7-.108-21.67 0-30.535.049-19.7.108m76.08 8.39c-.109.929-.047 1.537.14 1.35.186-.186.276-.946.199-1.689-.136-1.318-.144-1.309-.339.339m-78.68 3.586c.385.1 1.015.1 1.4 0 .385-.101.07-.183-.7-.183s-1.085.082-.7.183m71.805.007c.497.096 1.217.092 1.6-.008.382-.1-.025-.179-.905-.174-.88.004-1.193.086-.695.182"/>
    <path fill="#7c7c7c" d="M65.53 110.7c11.072.059 29.072.059 40 0 10.929-.059 1.87-.108-20.13-.108s-30.941.049-19.87.108m-25.837 6.5c0 .77.082 1.085.183.7.1-.385.1-1.015 0-1.4-.101-.385-.183-.07-.183.7m94.29.5c.981 1.045 1.836 1.9 1.9 1.9.301 0-.017-.359-1.783-2.017l-1.9-1.783 1.783 1.9m204.417-.375c0 .069.585.654 1.3 1.3l1.3 1.175-1.175-1.3c-1.095-1.212-1.425-1.484-1.425-1.175M141.694 130.7l12.724 12.7-10.909.21-10.909.209 10.833.091c5.959.049 10.961-.037 11.116-.192.256-.256-24.853-25.718-25.361-25.718-.119 0 5.509 5.715 12.506 12.7M296.8 119.597l38.6.203.107 9.474.107 9.474-1.307.178-1.307.178 1.4-.052 1.4-.052.107-9.35c.076-6.561-.028-9.514-.348-9.9-.383-.461-6.683-.534-38.908-.453l-38.451.097 38.6.203m45.6 1.803c.746.77 1.447 1.4 1.557 1.4.11 0-.411-.63-1.157-1.4-.746-.77-1.447-1.4-1.557-1.4-.11 0 .411.63 1.157 1.4m9.901 15.002c6.874 6.932 12.499 12.737 12.499 12.9 0 .164-4.725.34-10.5.391l-10.5.093 10.373.114c6.806.075 10.516-.029 10.79-.303.288-.288-3.509-4.311-12.373-13.107l-12.788-12.69 12.499 12.602m-250.396-11.319c.497.096 1.217.092 1.6-.008.382-.1-.025-.179-.905-.174-.88.004-1.193.086-.695.182m3.6 0c.497.096 1.217.092 1.6-.008.382-.1-.025-.179-.905-.174-.88.004-1.193.086-.695.182m-44.112.617c-.308.846-.412 20.28-.107 19.974.263-.262.659-20.475.401-20.474-.061 0-.194.225-.294.5m10.388.004c-.106.278-.143 5.903-.081 12.5l.112 11.996.094-12.267c.072-9.367.212-12.314.594-12.468.392-.158.389-.209-.013-.233-.281-.018-.599.195-.706.472m23.994 2.396-1.175 1.3 1.3-1.175c.715-.646 1.3-1.231 1.3-1.3 0-.309-.33-.037-1.425 1.175M151.2 135c4.506 4.51 8.283 8.2 8.393 8.2.11 0-3.487-3.69-7.993-8.2s-8.283-8.2-8.393-8.2c-.11 0 3.487 3.69 7.993 8.2m-73.822-1.6.022 3.6 2.2.038 2.2.038-2.085-.158-2.086-.159-.137-3.479-.137-3.48.023 3.6m1.322-3.518c.495.096 1.305.096 1.8 0 .495-.095.09-.173-.9-.173s-1.395.078-.9.173m5.401 3.518c.004.88.086 1.193.182.695.096-.497.092-1.217-.008-1.6-.1-.382-.179.025-.174.905m19.766 3.667c-.367.366-.338 4.042.033 4.272.165.103.238-.797.162-2l-.139-2.186 5.001.124c2.751.067 4.918-.012 4.815-.177-.23-.371-9.504-.402-9.872-.033m9.883 5.133c.001 2.42.066 3.358.146 2.085.08-1.273.079-3.253-.002-4.4-.08-1.147-.145-.105-.144 2.315m227.844-.797c1.593 1.918 1.727 2.042 1.292 1.193-.227-.443-.834-1.162-1.349-1.598-.904-.764-.902-.75.057.405m-212.394-.339c0 .218.495.833 1.1 1.366l1.1.97-1-1.2c-.55-.66-1.045-1.275-1.1-1.367-.055-.091-.1.012-.1.231M77.286 146.3l.085 4.7.127-4.479.128-4.478 1.887-.15 1.887-.149-2.1-.072-2.1-.072.086 4.7m266.438.7c.002 1.32.077 1.812.166 1.093.089-.719.087-1.799-.004-2.4s-.164-.013-.162 1.307m-240.624-.318c.495.096 1.305.096 1.8 0 .495-.095.09-.173-.9-.173s-1.395.078-.9.173m-7.5 1.518c.746.77 1.447 1.4 1.557 1.4.11 0-.411-.63-1.157-1.4-.746-.77-1.447-1.4-1.557-1.4-.11 0 .411.63 1.157 1.4m-23.64 2.722c.178.177 1.385.264 2.682.195L77 150.99l-2.682-.195c-1.475-.107-2.536-.05-2.358.127m32.44.278-3 .256 2.8.044c1.54.024 3.16-.111 3.6-.3.443-.191.533-.324.2-.3-.33.024-1.95.159-3.6.3m-45.495.287c.609.092 1.509.09 2-.005.492-.095-.005-.171-1.105-.168-1.1.003-1.503.081-.895.173M262.659 153c.526 2.334.95 3.301.702 1.6-.129-.88-.4-1.87-.603-2.2-.247-.402-.28-.203-.099.6m11.79-.4c-.033.44-.153 1.25-.266 1.8l-.206 1 .429-.981c.236-.54.355-1.35.266-1.8-.159-.798-.165-.798-.223-.019m2.928 10.8c0 6.38.055 8.934.122 5.676.068-3.259.067-8.479 0-11.6-.068-3.122-.123-.456-.122 5.924m14.562-9.4c-.077 1.1-.004 2 .161 2s.3-.9.3-2c0-2.581-.283-2.58-.461 0m3.345 9.3c-.046 6.325.051 11.5.216 11.5.165.001.254-3.374.198-7.5-.194-14.17-.329-15.481-.414-4m19.6 0c-.046 6.325.051 11.5.216 11.5.165.001.254-3.374.198-7.5-.194-14.17-.329-15.481-.414-4m28.898-9.997c-.107.277-.143 6.262-.082 13.3l.112 12.797.094-13.094.094-13.094 11.9-.112 11.9-.112-11.913-.094c-9.274-.073-11.955.017-12.105.409m-13.976 1.362c.384.586.839 1.531 1.012 2.1.224.74.323.82.348.282.033-.733-1.419-3.447-1.845-3.447-.117 0 .101.479.485 1.065m38.389 61.935c0 34.76.047 48.921.105 31.469.058-17.453.058-45.893 0-63.2-.058-17.308-.105-3.029-.105 31.731m-116.139-60.4c-.012.22.332 1.75.765 3.4s.699 2.28.591 1.4c-.197-1.602-1.313-5.553-1.356-4.8m30.11 2.2.034 2.6 4.1.114 4.1.114v3.544l-4.1.114-4.1.114-.118 2.9c-.064 1.595.026 2.9.2 2.901.175 0 .258-1.253.186-2.786l-.133-2.786 4.133-.115L290.6 165v-4l-4.081-.114-4.082-.114-.152-2.486-.152-2.486.033 2.6m17.888.1c-.029 1.485.082 2.7.249 2.7.166 0 .249-.855.183-1.9-.207-3.287-.375-3.598-.432-.8m19.683.5c.002 1.76.072 2.43.156 1.489.085-.94.084-2.38-.002-3.2-.086-.819-.155-.049-.154 1.711m-62.908-.371c-.275 1.228-.423 2.31-.329 2.404.094.095.397-.833.671-2.062.275-1.228.423-2.31.329-2.404-.094-.095-.397.833-.671 2.062m48.636-1.829c.255.33.543 1.14.64 1.8l.175 1.2.06-1.251c.037-.772-.208-1.461-.64-1.8-.609-.478-.64-.471-.235.051m19.783.2c.356.44.747 1.07.868 1.4.187.509.226.504.252-.038.018-.351-.373-.981-.868-1.4-.892-.756-.894-.755-.252.038m-13.955 1c0 .77.082 1.085.183.7.1-.385.1-1.015 0-1.4-.101-.385-.183-.07-.183.7m-38.56 1.686c-.362 1.383-.595 2.578-.519 2.657.216.223 1.464-4.309 1.312-4.765-.075-.224-.431.725-.793 2.108m-8.684-1.086c-.017.22.323 1.66.755 3.2.433 1.54.697 2.157.587 1.371-.219-1.558-1.293-5.218-1.342-4.571m-4.036 3.1c-.007.385.154.7.358.7s.453.315.553.7c.142.544.194.561.23.076.025-.342-.218-.972-.541-1.4-.532-.702-.589-.709-.6-.076m6.856 2.39c-.246 1.161-.554 2.56-.685 3.11-.174.73-.135.838.145.4.461-.72 1.416-5.188 1.163-5.441-.098-.098-.378.771-.623 1.931m-18.063-1.057c.003.422.189 1.037.412 1.367.297.438.334.276.138-.6-.329-1.471-.558-1.79-.55-.767M157.2 213.92l.2 50.68.102-50.378c.055-27.709-.035-50.515-.2-50.68-.166-.166-.212 22.504-.102 50.378m98.205-49.147c-.152.895-.439 1.627-.64 1.627s-.365.27-.365.6c0 .33.162.6.36.6.405 0 1.445-3.929 1.125-4.249-.113-.112-.329.527-.48 1.422m15.033 3.723c-.748 2.917-1.535 5.529-1.748 5.804-.257.331-.241.5.046.5.238 0 .633-.765.877-1.7.244-.935.894-3.373 1.443-5.418.549-2.044.941-3.891.87-4.103-.07-.212-.74 2.001-1.488 4.917M300 167.8c0 2.858.043 2.998.9 2.954.677-.035.727-.092.2-.23-.577-.15-.7-.644-.7-2.8v-2.617l2.592.165c1.425.091 2.37.024 2.1-.147-.271-.172-1.527-.316-2.792-.319l-2.3-.006v3m-41.35-.15c-.333 1.667-.01 1.99.35.35.152-.691.193-1.341.091-1.442-.102-.102-.3.389-.441 1.092m60.879 3.751c-.071 1.87.006 3.4.171 3.4.165-.001.3-1.531.3-3.401 0-4.393-.303-4.393-.471.001M250.467 169c-.006.852 1.025 4.277 1.083 3.6.019-.22-.216-1.3-.522-2.4-.306-1.1-.559-1.64-.561-1.2m34.633 1.695c1.155.081 3.045.081 4.2 0 1.155-.081.21-.147-2.1-.147s-3.255.066-2.1.147m26.1.008c0 .239-.489 1.034-1.086 1.766-.893 1.095-.922 1.19-.163.535 1.078-.929 1.814-2.173 1.481-2.505-.127-.128-.232-.036-.232.204m-54 2.35c0 .433-.216 1.003-.48 1.267-.365.365-.367.48-.008.48.522 0 1.13-1.891.736-2.285-.136-.137-.248.106-.248.538m34.752.46c-.131.794-.073 1.168.149.946.202-.202.3-.792.218-1.313-.126-.801-.182-.744-.367.367M201.517 183.6c-.064 3.961.018 7.201.183 7.2.165 0 .3-3.24.3-7.2s-.082-7.2-.183-7.2c-.1 0-.235 3.24-.3 7.2M56.592 215c0 19.8.048 27.841.108 17.87.059-9.972.059-26.172 0-36-.06-9.829-.108-1.67-.108 18.13M326.9 186.297c1.705.075 4.495.075 6.2 0s.31-.136-3.1-.136-4.805.061-3.1.136M122.8 191.4c.746.77 1.447 1.4 1.557 1.4.11 0-.411-.63-1.157-1.4-.746-.77-1.447-1.4-1.557-1.4-.11 0 .411.63 1.157 1.4m-13.513 1.7c-.957.935-.973.981-.106.306 1.707-1.33 1.788-1.406 1.505-1.406-.15 0-.78.495-1.399 1.1m10.91.501c1.896 2.217 1.923 2.241 1.489 1.399-.227-.44-.924-1.249-1.549-1.799l-1.137-.998 1.197 1.398M291.5 193.1c10.615.059 27.985.059 38.6 0 10.615-.059 1.93-.108-19.3-.108s-29.915.049-19.3.108m-6.426 3.599c3.781.066 10.081.066 14 0 3.919-.065.826-.119-6.874-.119-7.7 0-10.907.054-7.126.119m26.226-.001c2.145.072 5.655.072 7.8 0 2.145-.072.39-.131-3.9-.131s-6.045.059-3.9.131m21.816-.001c1.383.078 3.543.077 4.8-.002 1.256-.079.124-.143-2.516-.142-2.64 0-3.668.065-2.284.144m11.991-.007c.719.089 1.799.087 2.4-.004s.013-.164-1.307-.162c-1.32.002-1.812.077-1.093.166m4.804.733.889.622.097 29.878.098 29.877.105-29.766c.112-31.597.131-31.234-1.651-31.234-.235 0-.027.28.462.623M122.52 199.2c0 1.21.075 1.705.167 1.1.091-.605.091-1.595 0-2.2-.092-.605-.167-.11-.167 1.1m-16.019-.2c.004.88.086 1.193.182.695.096-.497.092-1.217-.008-1.6-.1-.382-.179.025-.174.905m19.6.4c.004.88.086 1.193.182.695.096-.497.092-1.217-.008-1.6-.1-.382-.179.025-.174.905m-4.292 2.972c-.145.458-.741 1.416-1.323 2.13-.913 1.12-.931 1.189-.131.499 1.002-.864 2.225-2.955 1.911-3.268-.106-.106-.312.181-.457.639M236.093 206c0 .77.082 1.085.183.7.1-.385.1-1.015 0-1.4-.101-.385-.183-.07-.183.7m88.212-.517c.497.096 1.217.092 1.6-.008.382-.1-.025-.179-.905-.174-.88.004-1.193.086-.695.182m-7.127 3.217-1.378 1.5 1.5-1.378c1.396-1.284 1.684-1.622 1.378-1.622-.066 0-.741.675-1.5 1.5m-230.8.4L85 210.6l1.5-1.378c1.396-1.284 1.684-1.622 1.378-1.622-.066 0-.741.675-1.5 1.5M326 208.955c0 .085.53.232 1.179.327.648.095 1.088.026.976-.154-.198-.321-2.155-.478-2.155-.173m-6.759 2.459c-.682.778-1.241 1.534-1.241 1.68 0 .146.136.095.303-.114.167-.209.83-.965 1.475-1.68.644-.715 1.067-1.3.938-1.3-.128 0-.792.636-1.475 1.414m10.359-1.289c0 .069.585.654 1.3 1.3l1.3 1.175-1.175-1.3c-1.095-1.212-1.425-1.484-1.425-1.175m-99.019 2.775L229 214.6l1.7-1.581c1.581-1.471 1.884-1.819 1.581-1.819-.065 0-.83.765-1.7 1.7m19.533 1.3c.003 1.1.081 1.503.173.895.092-.609.09-1.509-.005-2-.095-.492-.171.005-.168 1.105m82.126-.8c.138.44.387 1.79.553 3l.302 2.2.035-1.8c.018-.99-.231-2.34-.554-3-.323-.66-.475-.84-.336-.4m-235.44-.075c0 .069.585.654 1.3 1.3l1.3 1.175-1.175-1.3c-1.095-1.212-1.425-1.484-1.425-1.175m220.509 3.475c0 .99.078 1.395.173.9.096-.495.096-1.305 0-1.8-.095-.495-.173-.09-.173.9M99.2 216.125c0 .069.585.654 1.3 1.3l1.3 1.175-1.175-1.3c-1.095-1.212-1.425-1.484-1.425-1.175m2.8 3.2c0 .069.585.654 1.3 1.3l1.3 1.175-1.175-1.3c-1.095-1.212-1.425-1.484-1.425-1.175m97.491 2.157 2.091.159.123 7.28.124 7.279-.015-7.4-.014-7.4-2.2-.038-2.2-.038 2.091.158M330 222.86c-.77.675-1.038 1.045-.596.821.731-.37 2.543-2.103 2.158-2.065-.089.009-.792.569-1.562 1.244m-224.2.74c.859.88 1.652 1.6 1.762 1.6.11 0-.503-.72-1.362-1.6-.859-.88-1.652-1.6-1.762-1.6-.11 0 .503.72 1.362 1.6m17.8-.675c0 .069.585.654 1.3 1.3l1.3 1.175-1.175-1.3c-1.095-1.212-1.425-1.484-1.425-1.175m93.588 3.375L214.6 229l2.7-2.588c2.508-2.405 2.883-2.812 2.588-2.812-.061 0-1.276 1.215-2.7 2.7m32.921-.3c0 .99.078 1.395.173.9.096-.495.096-1.305 0-1.8-.095-.495-.173-.09-.173.9m46.472.9L295 228.6l1.7-1.581c1.581-1.471 1.884-1.819 1.581-1.819-.065 0-.83.765-1.7 1.7m-188.419-.6c.777.917 2.01 1.192 2.415.537.123-.199-.142-.267-.59-.15-.477.125-1.18-.097-1.7-.537l-.887-.75.762.9m20.221 1.8c1.658 1.766 2.017 2.084 2.017 1.783 0-.064-.855-.919-1.9-1.9l-1.9-1.783 1.783 1.9M306 229c.746.77 1.447 1.4 1.557 1.4.11 0-.411-.63-1.157-1.4-.746-.77-1.447-1.4-1.557-1.4-.11 0 .411.63 1.157 1.4m-39.072 1.4c0 1.43.073 2.015.161 1.3.089-.715.089-1.885 0-2.6-.088-.715-.161-.13-.161 1.3m57.372-2.118c.495.096 1.305.096 1.8 0 .495-.095.09-.173-.9-.173s-1.395.078-.9.173m-30.525 1.818-1.175 1.3 1.3-1.175c1.212-1.095 1.484-1.425 1.175-1.425-.069 0-.654.585-1.3 1.3m-83.782 3.4-4.193 4.3 4.3-4.193c2.365-2.306 4.3-4.241 4.3-4.3 0-.289-.513.199-4.407 4.193M133 233.2c1.306 1.32 2.465 2.4 2.575 2.4.11 0-.869-1.08-2.175-2.4-1.306-1.32-2.465-2.4-2.575-2.4-.11 0 .869 1.08 2.175 2.4m175-1.875c0 .069.585.654 1.3 1.3l1.3 1.175-1.175-1.3c-1.095-1.212-1.425-1.484-1.425-1.175M266.892 250.8c-.044 9.35.052 17.208.214 17.463.267.42.253-18.548-.022-29.863-.062-2.53-.148 3.05-.192 12.4M312.2 236c.859.88 1.652 1.6 1.762 1.6.11 0-.503-.72-1.362-1.6-.859-.88-1.652-1.6-1.762-1.6-.11 0 .503.72 1.362 1.6m-174.114 2.601c1.037 1.078 1.947 1.879 2.021 1.78.074-.1-.774-.982-1.886-1.961l-2.021-1.78 1.886 1.961m190.714-1.645c0 .086.617.229 1.372.317.755.088 1.284.017 1.176-.157-.193-.313-2.548-.461-2.548-.16m-13 3.044c.859.88 1.652 1.6 1.762 1.6.11 0-.503-.72-1.362-1.6-.859-.88-1.652-1.6-1.762-1.6-.11 0 .503.72 1.362 1.6m19.4 1.4c1.417 1.43 2.667 2.6 2.777 2.6.11 0-.96-1.17-2.377-2.6-1.417-1.43-2.667-2.6-2.777-2.6-.11 0 .96 1.17 2.377 2.6m-53.025 2.3L281 245l1.3-1.175c.715-.646 1.3-1.231 1.3-1.3 0-.309-.33-.037-1.425 1.175m58.625 3.7c1.195 1.21 2.263 2.2 2.373 2.2.11 0-.778-.99-1.973-2.2-1.195-1.21-2.263-2.2-2.373-2.2-.11 0 .778.99 1.973 2.2m5.2 5.6c1.195 1.21 2.263 2.2 2.373 2.2.11 0-.778-.99-1.973-2.2-1.195-1.21-2.263-2.2-2.373-2.2-.11 0 .778.99 1.973 2.2m-265.3 2.1c10.835.059 28.565.059 39.4 0 10.835-.059 1.97-.108-19.7-.108-21.67 0-30.535.049-19.7.108m191.285.318c-.282.34-.754.526-1.049.413-.295-.113-.536-.032-.536.182 0 .663 1.042.425 1.8-.413.398-.44.628-.8.511-.8-.117 0-.444.278-.726.618m82.573 5.982c0 3.08.063 4.287.139 2.682.076-1.604.076-4.124-.001-5.6-.077-1.475-.139-.162-.138 2.918m-104.396 1.2c0 3.52.062 4.906.136 3.081.074-1.825.074-4.705-.001-6.4-.075-1.695-.136-.201-.135 3.319m3.608 10.4c.001 4.84.059 6.765.129 4.278s.07-6.447-.001-8.8c-.07-2.353-.128-.318-.128 4.522m-180.039-4.7c14.702.058 38.642.058 53.2 0s2.529-.106-26.731-.106-41.171.048-26.469.106m84.844 1-1.175 1.3 1.3-1.175c1.212-1.095 1.484-1.425 1.175-1.425-.069 0-.654.585-1.3 1.3m127.494 15.8c14.448.058 38.208.058 52.8 0 14.592-.058 2.771-.106-26.269-.106s-40.979.048-26.531.106m82.906 1.4-1.175 1.3 1.3-1.175c.715-.646 1.3-1.231 1.3-1.3 0-.309-.33-.037-1.425 1.175m-85.675 2.2c15.125.058 39.875.058 55 0s2.75-.106-27.5-.106-42.625.048-27.5.106"/>
    <path fill="#f8ea90" d="M111.375 192.096c-7.674 4.073-4.558 15.332 4.046 14.619 7.195-.597 9.458-9.362 3.606-13.965-1.28-1.007-6.196-1.427-7.652-.654M322.4 209.528c-1.089.494-2.4 1.459-2.4 1.768 0 .167-.348.652-.774 1.078-5.584 5.584 3.259 15.1 10.102 10.871 7.417-4.585.992-17.306-6.928-13.717"/>
  </g>
</svg>
