<?xml version="1.0" standalone="no"?>
<!DOCTYPE svg PUBLIC "-//W3C//DTD SVG 20010904//EN"
 "http://www.w3.org/TR/2001/REC-SVG-20010904/DTD/svg10.dtd">
<svg version="1.0" xmlns="http://www.w3.org/2000/svg"
 width="828.000000pt" height="466.000000pt" viewBox="0 0 828.000000 466.000000"
 preserveAspectRatio="xMidYMid meet">

<g transform="translate(0.000000,466.000000) scale(0.100000,-0.100000)"
fill="#000000" stroke="none">
<path d="M810 4098 c-87 -44 -80 79 -80 -1413 0 -1291 1 -1321 20 -1352 43
-72 5 -68 690 -68 l615 0 0 35 0 35 -610 5 c-335 3 -611 7 -612 8 -21 22 -23
138 -23 1343 0 819 4 1307 10 1319 20 38 52 40 741 40 l668 0 3 -274 c3 -259
4 -276 24 -302 11 -15 33 -37 48 -48 26 -20 43 -21 302 -24 l274 -3 0 -564 0
-565 40 0 40 0 0 594 0 593 -332 332 -331 331 -721 0 -722 0 -44 -22z m2000
-620 c0 -13 -413 -9 -449 3 -19 7 -36 22 -42 36 -5 13 -9 124 -9 246 l0 222
250 -250 c138 -137 250 -253 250 -257z"/>
<path d="M5495 4005 c-18 -17 -25 -35 -25 -62 0 -21 -3 -55 -6 -75 l-7 -38
-121 0 c-79 0 -140 -5 -172 -15 -62 -18 -128 -80 -160 -150 l-24 -52 2 -1054
3 -1054 23 -45 c31 -58 57 -86 112 -118 l45 -27 1130 0 1130 0 60 40 c48 32
66 52 92 103 l33 64 0 1046 0 1047 -24 50 c-33 69 -87 120 -152 145 -44 16
-78 20 -179 20 l-125 0 0 59 c0 32 -5 72 -10 88 -20 55 -107 72 -156 30 -24
-21 -27 -32 -32 -100 l-5 -77 -633 0 -634 0 0 69 c0 60 -3 74 -26 100 -22 26
-33 31 -70 31 -34 0 -51 -6 -69 -25z m1432 -357 c-2 -18 -4 -4 -4 32 0 36 2
50 4 33 2 -18 2 -48 0 -65z m-1539 75 c-32 -2 -84 -2 -115 0 -32 2 -6 3 57 3
63 0 89 -1 58 -3z m69 -105 c-2 -24 -4 -7 -4 37 0 44 2 63 4 43 2 -21 2 -57 0
-80z m256 105 l-42 -4 -4 -77 -3 -77 -2 83 -2 82 48 -2 47 -1 -42 -4z m430 0
c-13 -2 -33 -2 -45 0 -13 2 -3 4 22 4 25 0 35 -2 23 -4z m54 1 c-3 -3 -12 -4
-19 -1 -8 3 -5 6 6 6 11 1 17 -2 13 -5z m476 -1 c-18 -2 -48 -2 -65 0 -18 2
-4 4 32 4 36 0 50 -2 33 -4z m660 0 c-23 -2 -64 -2 -90 0 -26 2 -7 3 42 3 50
0 71 -1 48 -3z m-2256 -375 c-1 -51 -3 -12 -3 87 0 99 2 141 3 93 2 -48 2
-129 0 -180z m2060 230 c-3 -8 -6 -5 -6 6 -1 11 2 17 5 13 3 -3 4 -12 1 -19z
m380 -55 c-2 -16 -4 -3 -4 27 0 30 2 43 4 28 2 -16 2 -40 0 -55z m12 -196 c-3
-95 -16 -74 -17 26 -1 71 1 85 9 62 5 -16 8 -56 8 -88z m1 -961 c0 -574 -3
-813 -11 -837 -18 -54 -58 -100 -105 -120 -41 -19 -81 -19 -1131 -17 -1083 3
-1088 3 -1128 24 -29 15 -48 36 -67 74 l-28 52 0 814 0 814 1235 0 1235 0 0
-804z"/>
<path d="M5748 2823 c-56 -17 -150 -98 -179 -154 -11 -22 -22 -59 -25 -83 -7
-51 -9 -51 106 -60 l65 -6 20 52 c29 73 79 112 148 112 106 2 157 -48 157
-150 0 -93 -33 -138 -277 -385 l-213 -216 0 -71 0 -72 340 0 340 0 0 75 0 75
-212 0 -211 0 119 122 c272 278 348 438 280 584 -62 134 -169 195 -336 193
-41 -1 -96 -8 -122 -16z"/>
<path d="M6350 2745 l0 -85 240 0 c132 0 240 -2 240 -4 0 -2 -21 -35 -46 -73
-72 -108 -170 -317 -209 -448 -30 -100 -53 -239 -55 -327 0 -16 11 -18 99 -18
l99 0 12 103 c22 183 71 349 151 511 43 86 119 205 144 226 11 9 15 35 15 106
l0 94 -345 0 -345 0 0 -85z"/>
<path d="M4221 3043 c-14 -17 -19 -33 -15 -47 6 -18 178 -207 223 -243 12 -11
-92 -13 -528 -13 -355 0 -549 -4 -562 -10 -14 -8 -19 -21 -19 -55 0 -34 5 -47
19 -55 13 -6 208 -10 563 -10 l543 0 -117 -117 c-64 -65 -119 -128 -122 -140
-10 -32 33 -78 65 -70 32 8 389 368 389 392 0 27 -370 395 -397 395 -12 0 -31
-12 -42 -27z"/>
<path d="M1137 3004 c-4 -4 -7 -169 -7 -366 l0 -359 78 3 77 3 0 227 c0 124 2
225 4 223 7 -7 141 -307 141 -316 0 -5 30 -9 68 -9 l67 0 77 173 77 172 1
-237 0 -238 75 0 75 0 0 365 0 365 -94 0 -94 0 -75 -182 c-41 -101 -81 -199
-89 -218 l-14 -34 -43 104 c-24 58 -65 155 -90 215 l-46 110 -90 3 c-50 1 -94
0 -98 -4z"/>
<path d="M2000 2645 l0 -365 123 0 c208 0 289 22 362 97 72 74 100 167 93 309
-5 102 -29 169 -81 222 -75 79 -160 102 -370 102 l-127 0 0 -365z m352 198
c62 -36 73 -62 76 -191 3 -109 2 -119 -20 -152 -34 -50 -87 -73 -185 -78 l-83
-5 0 220 c0 121 3 223 8 227 13 15 172 -2 204 -21z"/>
<path d="M2836 2137 c-15 -11 -20 -32 -24 -91 -4 -67 -8 -79 -26 -86 -11 -4
-50 -19 -85 -34 -55 -22 -67 -24 -80 -12 -27 23 -107 66 -123 66 -15 0 -154
-134 -171 -165 -9 -16 11 -61 50 -113 16 -21 23 -41 20 -55 -10 -41 -51 -142
-60 -148 -6 -4 -39 -10 -74 -14 -89 -9 -93 -15 -93 -146 0 -61 4 -118 10 -128
7 -13 27 -20 72 -25 66 -8 98 -20 98 -37 0 -6 11 -39 25 -74 l26 -64 -29 -40
c-39 -54 -56 -96 -45 -115 20 -36 157 -166 175 -166 24 0 53 15 100 53 l38 30
59 -27 c32 -14 68 -26 79 -26 23 0 28 -11 37 -90 12 -92 8 -90 148 -90 67 0
128 4 135 8 7 5 15 39 19 78 7 80 12 89 55 98 18 4 52 16 76 27 l42 21 63 -41
c35 -23 70 -41 78 -41 22 0 179 164 179 187 0 11 -18 46 -41 78 l-41 58 21 46
c11 25 24 62 29 81 8 35 9 35 79 45 102 15 103 16 103 155 0 133 -8 150 -72
150 -57 0 -99 12 -105 29 -2 9 -16 44 -30 79 l-25 62 41 63 c22 35 41 70 41
78 0 22 -162 179 -185 179 -11 0 -45 -17 -74 -39 l-55 -38 -50 23 c-28 13 -65
27 -83 30 -34 6 -37 13 -48 107 -4 32 -14 65 -22 73 -20 19 -231 20 -257 1z
m281 -473 c71 -34 141 -102 173 -169 20 -40 26 -69 28 -148 4 -94 2 -102 -27
-162 -38 -77 -102 -138 -187 -176 -84 -38 -191 -40 -274 -5 -113 49 -196 150
-220 269 -27 134 45 293 167 368 105 65 237 74 340 23z"/>
</g>
</svg>
