<svg xmlns="http://www.w3.org/2000/svg" viewBox="0 0 400 400">
  <g fill-rule="evenodd">
    <path fill="#0b0a0a" d="M40.317 113.595c-1.761.531-3.568 2.029-4.162 3.452-.954 2.282-.813 128.645.146 130.525 1.656 3.247-.79 3.015 32.928 3.135l29.971.108v-3.2l-29.235-.107-29.235-.108-.965-1.122-.965-1.123V119.213l1.167-1.307 1.167-1.306 33.433-.107 33.433-.106v12.619c0 19.313-.988 18.303 18.2 18.594l13.2.2.103 27.3.103 27.3h3.194v-57.413l-15.912-15.894-15.911-15.893-34.789.034c-19.133.019-35.276.182-35.871.361m225.314 5.041c-1.01.849-1.232 1.334-1.234 2.7-.002.915-.116 2.594-.252 3.731l-.249 2.067-6.648.133c-9.282.186-13.824 2.699-15.77 8.726-1.012 3.132-1.045 101.187-.036 104.15.875 2.566 4.044 5.946 6.882 7.339l2.276 1.118h106.8l2.288-1.072c2.743-1.286 5.479-3.983 6.471-6.38.398-.961.885-2.061 1.082-2.443.206-.399.359-21.901.359-50.559v-49.864l-.875-2.4c-2.243-6.151-6.347-8.423-15.572-8.619l-6.647-.142-.207-3.642c-.26-4.561-1.31-5.879-4.683-5.879-3.258 0-4.044.987-4.307 5.413-.117 1.973-.354 3.767-.527 3.987-.206.262-10.875.364-30.948.295l-30.634-.105v-3.215c0-5.918-3.743-8.559-7.569-5.339m-137.066 17.679c3.979 4.024 7.298 7.497 7.374 7.718.092.266-3.691.363-11.135.285l-11.274-.118-.965-1.122-.965-1.123v-22.512l4.865 4.778c2.676 2.629 8.121 8.071 12.1 12.094m135.474-.707c.324 5.694 1.125 6.792 4.958 6.792 3.271 0 3.965-1.068 4.203-6.464l.2-4.536h61.2l.092 2.6c.219 6.216 1.235 8.029 4.658 8.312 3.724.309 4.745-1.023 5.028-6.559l.222-4.353 6.2.001c6.821.001 8.133.36 10.454 2.862 2.428 2.618 2.546 3.188 2.546 12.337v8.4H244.6v-8.6c0-13.382 1.681-15.246 13.6-15.079l5.6.079.239 4.208m99.469 23.125c.405.259.486 8.264.4 39.895L363.8 238.2l-.965 1.6c-1.39 2.306-2.422 3.363-4.235 4.339L357 245l-52.2.119c-35.277.08-52.665-.016-53.635-.297-2.429-.703-4.73-2.669-5.791-4.946l-.966-2.076-.004-39.467c-.003-31.203.101-39.508.496-39.665.857-.342 118.071-.277 118.608.065m-158.983 5.581c-.474.302-1.325 2.185-1.325 2.934 0 .218 2.52 3.07 5.6 6.338 3.08 3.268 5.6 6.048 5.6 6.178 0 .13-11.852.236-26.338.236-29.733 0-27.662-.233-27.662 3.117 0 2.58-1.085 2.483 27.774 2.483 21.88 0 26.226.09 26.226.545 0 .3-2.353 2.83-5.228 5.622-5.703 5.537-6.399 6.647-5.389 8.6.514.994.89 1.233 1.939 1.233 1.675 0 19.078-17.134 19.078-18.783 0-.694-2.346-3.304-8.88-9.88-8.973-9.029-9.787-9.645-11.395-8.623m-149.458 2.753c-.147.146-.267 7.976-.267 17.4V201.6h7.236l-.118-11c-.111-10.361.026-11.834.944-10.176.275.497 3.216 7.148 5.87 13.276l.823 1.9h5.695l1.218-2.7c1.069-2.37 2.349-5.126 5.168-11.126.42-.895.764-1.855.764-2.134 0-.278.199-.44.442-.359.307.102.46 3.515.5 11.133L83.4 201.4l3.304.116 3.305.116-.105-17.316L89.8 167h-8.348l-1.87 4.4c-1.028 2.42-2.804 6.65-3.946 9.4-1.141 2.75-2.255 5.432-2.475 5.961-.527 1.267-.81.89-2.379-3.161-.725-1.87-1.443-3.58-1.597-3.8-.155-.22-.511-1.12-.792-2-.281-.88-.844-2.227-1.252-2.994-.407-.767-.741-1.531-.741-1.698 0-.168-.624-1.655-1.387-3.306l-1.386-3.002H59.48c-2.281 0-4.267.12-4.413.267m42 0c-.147.146-.267 7.976-.267 17.4V201.6l6.5-.007c15.61-.017 21.058-4.592 21.09-17.716.025-9.825-4.331-15.405-13.002-16.658-3.121-.451-13.908-.566-14.321-.152m16.375 7.395c3.363 1.581 3.958 3.084 3.958 10.001v5.863l-1.223 1.537c-1.986 2.495-4.471 3.464-8.977 3.504l-3.8.033-.113-10.2c-.146-13.325-.567-12.178 4.345-11.856 2.811.184 4.526.514 5.81 1.118m167.958.606c-7.36 1.045-12.606 5.842-13.263 12.127l-.251 2.405 2.157.003c1.186.002 3.075.114 4.197.249l2.04.245.228-1.409c1.442-8.883 14.923-8.753 15.426.149.289 5.105-1.105 7.087-14.626 20.795l-8.908 9.032v6.936h32.4v-7.186l-10.292-.107-10.293-.107 5.84-6c8.83-9.071 10.679-11.432 13.265-16.939 5.038-10.73-4.99-22.03-17.92-20.193m25.486 4.357.114 3.824 11.422-.035c6.283-.02 11.532.073 11.665.207.134.133-.826 1.893-2.133 3.911-7.16 11.056-11.883 23.933-12.531 34.168l-.26 4.1h9.173l.256-2.7c1.287-13.555 6.795-28.199 13.902-36.956l1.506-1.855V175.6h-33.229l.115 3.825m-169.883 29.772c-.621.686-1.145 3.673-1.378 7.856-.014.248-.837.656-1.829.906s-2.8.895-4.019 1.434l-2.215.98-2.871-1.787c-4.013-2.497-4.17-2.461-8.618 1.987-4.35 4.35-4.32 4.189-1.588 8.515 1.852 2.932 1.858 2.693-.203 8.112l-.989 2.6-3.672.646c-4.812.846-4.621.551-4.621 7.154 0 6.801-.196 6.565 6.175 7.438 1.423.195 2.425.786 2.425 1.431 0 .204.562 1.795 1.25 3.535l1.25 3.163-1.393 2.116c-3.031 4.606-3.084 4.251 1.346 9.11 4.7 5.156 5.032 5.187 10.571.962 1.098-.838 1.311-.876 2.044-.363.449.315 2.133 1.016 3.74 1.557 3.385 1.14 3.399 1.158 3.76 4.851.45 4.613.43 4.6 7.192 4.6 6.608 0 6.507.05 6.849-3.426.508-5.177.23-4.749 3.874-5.953 1.795-.593 3.621-1.329 4.057-1.634.716-.502 1.044-.38 3.374 1.248 4.2 2.936 4.316 2.917 8.721-1.47 4.548-4.529 4.626-4.89 1.929-8.911l-1.836-2.737 1.006-2.258c.553-1.243 1.13-2.936 1.281-3.763.343-1.873.293-1.845 4.447-2.517 4.547-.736 4.51-.674 4.525-7.47.015-6.428.011-6.435-4.387-6.921-3.606-.398-4.244-.706-4.541-2.193-.14-.698-.705-2.166-1.256-3.264-1.309-2.606-1.305-2.64.797-5.889 2.506-3.873 2.479-3.981-2.15-8.592-4.527-4.51-4.255-4.457-8.347-1.615l-2.497 1.734-2.445-1.157c-1.345-.636-3.137-1.273-3.983-1.416-1.792-.302-2.16-1.084-2.604-5.516-.386-3.862-.418-3.88-6.941-3.88-4.993 0-5.576.075-6.23.797m13.597 22.23c13.12 6.218 13.395 25.207.458 31.578-16.711 8.231-32.896-11.277-21.657-26.102 4.766-6.286 14.295-8.748 21.199-5.476"/>
    <path fill="#fbfbf9" d="M0 200v200h400V0H0v200m127.091-71.104 16.114 16.096-.102 28.804L143 202.6l-1.897.122-1.897.122-.103-27.322L139 148.2l-13-.2c-19.092-.294-18.4.423-18.4-19.057v-12.157l-33.235.107-33.234.107-.966 1.122-.965 1.123v62.933c0 61.364.019 62.957.765 63.878l.764.944 29.336.2 29.335.2.122 1.9.122 1.9H39.72l-1.654-1.198c-3.1-2.246-2.866 3.288-2.866-67.867 0-71.499-.246-65.566 2.807-67.74 2.113-1.505 2.621-1.525 38.182-1.561l34.788-.034 16.114 16.096m144.422-11.072c1.511 1.059 2.087 2.701 2.087 5.956v3.02h61.102l.175-3.656c.215-4.505 1.316-5.944 4.549-5.944 4.152 0 4.972 1.36 5.341 8.866.029.585.815.684 6.533.819 8.899.211 12.312 1.94 15.072 7.636l1.201 2.479.185 42c.103 23.1.059 46.23-.096 51.4l-.283 9.4-1.177 2.144c-1.412 2.572-3.624 4.584-6.602 6.006l-2.2 1.05H250.583l-2.657-1.308c-3.104-1.528-4.802-3.309-6.391-6.705l-1.147-2.452.106-50.967.106-50.968 1.363-2.514c2.994-5.522 6.105-7.009 15.237-7.286l6.6-.2.212-3.544c.309-5.156 3.967-7.707 7.501-5.232m-159.832 13.113.119 11.133 1.122.965 1.123.965h10.844c5.964 0 10.769-.077 10.678-.17-5.414-5.525-14.732-14.894-18.726-18.829l-5.278-5.198.118 11.134m132.94 28.63c-.125.201-.181 17.886-.124 39.3l.103 38.933 1.2 2.188c.863 1.573 1.753 2.528 3.169 3.4l1.968 1.212H357l1.828-1.075c1.996-1.173 3.769-3.422 4.381-5.557.243-.845.391-16.069.391-40.065V159.2h-59.376c-35.536 0-59.468.147-59.603.367m-28.523 13.159c6.83 6.848 9.102 9.366 9.102 10.09 0 1.809-17.931 19.277-19.62 19.114-1.646-.159-2.964-2.059-2.556-3.683.141-.563 2.714-3.503 5.716-6.535l5.46-5.512-26.532-.2c-29.824-.225-27.668.025-27.668-3.2 0-3.224-2.136-2.975 27.509-3.2l26.374-.2-5.346-5.599c-6.301-6.599-6.855-8.011-3.837-9.769 1.619-.943 2.315-.412 11.398 8.694M64.6 168.212c.904 1.82 1.064 2.197 4.936 11.588 1.542 3.74 2.948 6.772 3.125 6.737.176-.034 1.187-2.194 2.245-4.8 6.798-16.731 5.768-15.308 11.024-15.214l4.27.077.104 17.715.104 17.715-3.704-.115L83 201.8v-10.88c0-5.985-.123-10.755-.272-10.6-.15.154-1.739 3.518-3.531 7.476C75.215 196.591 75.705 196 72.4 196c-3.26 0-2.712.675-6.583-8.109-1.723-3.91-3.208-7.033-3.301-6.94-.093.092-.156 4.641-.141 10.109.032 11.798.339 11.005-4.209 10.857L54.6 201.8l-.104-17.154c-.123-20.169-.641-18.311 5.064-18.159l4.24.113.8 1.612m46.788-1.393c10.513 1.519 16.152 12.216 12.566 23.839-2.681 8.687-7.526 11.321-20.854 11.335l-6.7.007v-17.533c0-9.644.12-17.654.267-17.8.414-.414 11.602-.299 14.721.152m-7.585 7.228c-.119.312-.169 5.154-.11 10.76L103.8 195l3.4-.034c7.431-.074 9.898-2.346 10.229-9.423.395-8.451-1.932-11.308-9.624-11.814-3.063-.201-3.826-.14-4.002.318m186.627 1.574c5.869 1.695 10.532 7.629 10.512 13.379-.023 6.333-3.585 12.207-13.784 22.731-3.235 3.338-5.825 6.128-5.756 6.199.069.072 4.507.162 9.862.2l9.736.07.114 3.9.115 3.9H268v-7.408l7.244-7.196C287.948 198.777 292 193.554 292 189.797c0-8.835-12.808-10.065-15.026-1.442l-.475 1.845-3.549-.114c-5.607-.179-5.499-.123-5.228-2.754.978-9.478 11.553-14.932 22.708-11.711m49.964 4.181.006 4.002-2.158 2.868c-6.341 8.43-11.377 20.98-12.649 31.528-.266 2.2-.602 4.81-.747 5.8l-.263 1.8-4.935.113-4.935.112.293-3.712c.891-11.272 5.672-24.52 12.662-35.082l2.27-3.431-11.669-.2-11.669-.2v-8l16.6-.2c10.837-.131 16.702-.061 16.894.2.162.22.297 2.201.3 4.402m-190.839 28.953c.529.529.843 1.637 1.049 3.7.431 4.309.59 4.57 3.261 5.347 1.271.369 2.99 1.018 3.82 1.441l1.509.77 2.483-1.806c3.761-2.737 4.243-2.628 8.894 2.016 4.657 4.649 4.676 4.821 1.094 10.116l-1.176 1.74 1.355 2.934c.746 1.614 1.356 3.197 1.356 3.517 0 .659.767.894 4.2 1.283 4.235.48 4.2.416 4.2 7.547 0 7.133.119 6.902-3.867 7.476-4.379.631-4.409.643-4.675 1.972-.134.671-.706 2.375-1.271 3.788l-1.028 2.568 1.821 2.714c2.653 3.955 2.584 4.256-2.055 8.978-4.576 4.658-4.671 4.679-8.654 1.992l-2.893-1.953-1.789.893c-.984.491-2.661 1.144-3.728 1.451-2.329.671-2.486.937-2.787 4.708-.353 4.421-.406 4.453-7.274 4.453-6.653 0-6.777-.066-7.195-3.8-.443-3.966-.856-4.883-2.322-5.16-.706-.133-2.354-.747-3.663-1.364l-2.381-1.121-2.791 1.922c-4.225 2.911-4.553 2.831-9.215-2.272-4.452-4.872-4.433-4.783-1.882-8.691 1.612-2.469 1.876-3.121 1.521-3.751-.236-.42-.894-2.023-1.462-3.563l-1.032-2.8-2.989-.529c-5.558-.983-5.558-.984-5.459-8.13.088-6.356.116-6.396 5.039-7.093l3.587-.508.677-2.07c.373-1.138 1.031-2.83 1.461-3.758l.783-1.689-1.905-2.865c-2.746-4.131-2.685-4.426 1.853-8.984 4.423-4.441 4.533-4.466 8.612-1.99l2.937 1.783 2.162-.956c1.189-.525 2.808-1.077 3.598-1.225 1.963-.368 2.107-.644 2.611-4.986.569-4.909.403-4.8 7.331-4.8 4.881 0 5.612.088 6.279.755m-10.745 22.286c-15.33 4.12-17.422 24.585-3.246 31.741 16.763 8.462 32.934-12.725 20.484-26.836-4.222-4.786-10.759-6.646-17.238-4.905"/>
    <path fill="#ba5543" d="M40.2 113.222c-.66.193-1.83.902-2.6 1.577l-1.4 1.226 1.932-1.312 1.933-1.313 35.447-.108 35.448-.109 15.92 15.902 15.92 15.902V202.4h-3.194l-.103-27.3-.103-27.3-13.2-.2c-14.729-.223-14.931-.261-16.899-3.181-.495-.735-.901-1.144-.901-.909 0 .708 2.009 2.872 3.348 3.604 1.086.595 2.977.713 14.252.886l13 .2.103 27.322.103 27.322 1.897-.122L143 202.6l.103-28.804.102-28.804-16.114-16.096-16.114-16.096-34.788.036c-19.134.02-35.329.194-35.989.386m1.155 3.57c-.464.188-1.229.831-1.7 1.429l-.855 1.087v125.847l.965 1.123.965 1.122 29.235.108 29.235.107v3.185H69.826c-18.683 0-29.784-.146-30.5-.402-1.05-.376-1.074-.362-.35.2.676.524 4.663.602 30.722.602h29.946l-.122-1.9-.122-1.9-29.335-.2-29.336-.2-.764-.944c-.746-.921-.765-2.514-.765-63.878v-62.933l.965-1.123.966-1.122 33.229-.107 33.229-.107.111 12.507.112 12.507.094-12.7.094-12.7-32.9.025c-18.095.014-33.28.179-33.745.367m-5.912 1.041c-.351.913-.288 128.277.063 128.829.162.254.294-28.771.294-64.5s-.026-64.962-.057-64.962c-.032 0-.167.285-.3.633m230.063.612-1.306 1.246 1.331-1.046c4.024-3.162 7.669-.629 7.669 5.33v3.215l30.634.105c20.073.069 30.742-.033 30.948-.295.173-.22.41-2.014.527-3.987.316-5.308 3.874-7.395 7.462-4.376.817.687 1.148.817.982.385-.786-2.047-5.415-2.47-7.421-.678-1.23 1.1-1.287 1.286-1.455 4.8l-.175 3.656H273.6v-3.02c0-6.03-4.354-8.9-8.094-5.335m-149.112 6.063c2.747 2.8 5.057 5.092 5.133 5.092.404 0-.569-1.024-5.127-5.392l-5-4.793 4.994 5.093M264.12 122.4c0 1.21.075 1.705.167 1.1.091-.605.091-1.595 0-2.2-.092-.605-.167-.11-.167 1.1m80.34 3.46-.06 1.259 6.7.17c3.685.094 7.06.306 7.5.471l.8.3-.8-.53c-.557-.369-2.764-.571-7.277-.664l-6.476-.134-.164-1.066c-.15-.982-.168-.966-.223.194m-87.26.917c-8.478.286-12.098 1.797-14.573 6.084-.583 1.01-.258.778 1.324-.943 3.563-3.878 5.323-4.492 13.349-4.652 3.692-.073 6.7-.298 6.7-.5 0-.201-.045-.331-.1-.289-.055.042-3.07.177-6.7.3m104.239 2.589c1.116.752 2.614 2.057 3.33 2.9 1.155 1.364 1.202 1.386.418.206-.95-1.431-4.566-4.472-5.318-4.472-.252 0 .455.615 1.57 1.366m-110.55 2.416c-5.417 1.709-6.289 3.735-6.289 14.618v8.6h119.2v-8.4c0-9.149-.118-9.719-2.546-12.337-2.321-2.502-3.633-2.861-10.454-2.862l-6.2-.001-.222 4.353c-.283 5.536-1.304 6.868-5.028 6.559-3.423-.283-4.439-2.096-4.658-8.312l-.092-2.6h-61.2l-.2 4.536c-.238 5.396-.932 6.464-4.203 6.464-3.833 0-4.634-1.098-4.958-6.792l-.239-4.208-5.6-.079c-3.791-.053-6.153.096-7.311.461m-126.489.52c0 .22.27.624.6.898.335.278.6.321.6.098 0-.22-.27-.624-.6-.898-.335-.278-.6-.321-.6-.098m116.765 3.196c-.891 1.737-1.05 102.293-.165 104.19.336.722.474.952.306.512-.641-1.677-.572-101.997.072-103.866.689-1.999.587-2.397-.213-.836m125.464.102c.147.55.435 1.27.638 1.6.258.417.29.295.104-.4-.147-.55-.435-1.27-.638-1.6-.258-.417-.29-.295-.104.4m-234.843 4.306 3.986 4.081-10.786.113-10.786.114 10.9.093c5.995.051 10.9-.053 10.9-.231 0-.279-7.13-7.539-7.918-8.063-.155-.103 1.512 1.649 3.704 3.893M244.9 158.668c-.275.109-.5.319-.5.465 0 .147 26.82.221 59.6.164l59.6-.102-.018 38.902c-.014 31.355-.121 39.193-.55 40.396-.293.821-.382 1.4-.197 1.286 1.049-.649 1.161-4.695 1.163-42.036.002-35.237-.058-38.88-.637-39.103-.757-.29-117.731-.263-118.461.028m-28.982 14.169c6.507 6.621 8.882 9.289 8.882 9.98 0 .691-2.369 3.346-8.89 9.963l-8.891 9.02 9.091-9.018c6.758-6.704 9.09-9.261 9.09-9.966 0-.703-2.337-3.272-9.082-9.982l-9.083-9.034 8.883 9.037m-12.924-6.417c-.355 1.117.143 1.772 5.906 7.78l4.987 5.2-26.376.2c-29.782.226-27.585-.044-27.444 3.376l.067 1.624.163-1.6c.328-3.232-1.817-3 27.765-3 14.486 0 26.338-.106 26.338-.236s-2.537-2.928-5.639-6.219c-4.866-5.163-5.605-6.117-5.392-6.964.297-1.185-.009-1.317-.375-.161m-148.149.526c-.326.393-.424 5.369-.349 17.7L54.6 201.8l3.8.025 3.8.025-3.704-.14-3.704-.14.104-17.285L55 167l4.316-.114 4.317-.113.802 1.813c.441.998.886 1.814.989 1.814.261 0-.945-2.823-1.482-3.469-.631-.761-8.464-.747-9.097.015m26.178.343c-.343.489-.617 1.074-.609 1.3.008.226.263-.039.566-.589.304-.55 1.062-1.114 1.686-1.253l1.134-.252-1.077-.048c-.697-.03-1.298.267-1.7.842m5.777-.526 3 .237.104 17.316.105 17.316-3.305-.116-3.304-.116-.058-10.986c-.04-7.618-.193-11.031-.5-11.133-.243-.081-.442.033-.442.253s-.114.73-.254 1.133c-.241.697-.226.698.3.025.476-.608.554.834.554 10.2V201.8l3.704.115 3.704.115-.104-17.715L90.2 166.6l-3.2-.037-3.2-.037 3 .237m9.867-.096c-.147.146-.267 8.156-.267 17.8V202l6.7-.007c8.804-.009 13.79-1.092 15.716-3.412.309-.373-.134-.205-.985.372-2.855 1.938-5.001 2.347-13.335 2.547l-7.705.185.105-17.342L97 167l7.4.023c10.222.032 14.096 1.359 17 5.821 2.117 3.254 2.249 3.396 1.139 1.235-2.041-3.975-5.928-6.505-11.151-7.26-3.119-.451-14.307-.566-14.721-.152m-17.6 5c-.586 1.357-1.001 2.532-.923 2.611.079.078.624-.967 1.212-2.322.587-1.356 1.003-2.531.922-2.611-.08-.081-.626.964-1.211 2.322m-12.623 1.542c.256.765.626 1.567.821 1.782.196.215.147-.235-.109-1s-.626-1.567-.821-1.782c-.196-.215-.147.235.109 1m36.951.891c-.121.495-.169 5.49-.108 11.1l.113 10.2 3.8-.023c2.09-.013 4.16-.231 4.6-.483.657-.377.514-.409-.8-.177-.88.156-2.86.283-4.4.283h-2.8v-21.2l2.6-.231 2.6-.231-2.692-.069c-2.488-.064-2.71-.001-2.913.831m7.205-.128c1.911.325 3.191.961 4.779 2.377l1.179 1.051-.621-.989c-.829-1.322-3.801-2.798-5.537-2.75l-1.4.039 1.6.272m172.278.639c.105.106 1.563.366 3.239.579 1.676.212 3.551.478 4.165.592.615.113.398-.034-.482-.327-1.569-.523-7.299-1.221-6.922-.844m-205.845 1.822c-.366.917-.591 1.742-.5 1.834.092.091.467-.584.834-1.5.366-.917.591-1.742.5-1.834-.092-.091-.467.584-.834 1.5m201.467-1.185c-.715.206-1.3.472-1.3.59 0 .119.376.097.836-.049.459-.146 1.674-.407 2.7-.58 1.633-.276 1.691-.316.464-.326-.77-.006-1.985.158-2.7.365m44.7-.048-16.6.2-.116 3.764c-.064 2.07.026 3.907.2 4.082.174.175.259-1.474.189-3.664l-.126-3.982H340l.084 4.3.085 4.3.129-4.11c.072-2.261-.011-4.331-.184-4.6-.243-.379-4.077-.445-16.914-.29m-31.567.928c.636.487 3.167 1.808 3.167 1.653 0-.268-2.518-1.778-2.967-1.78-.201 0-.291.056-.2.127m-17.289 1.095c-.894.779-.898.8-.066.397.482-.233.988-.603 1.123-.822.394-.636-.038-.463-1.057.425M68.618 178.5c.15.495.437 1.076.638 1.291.201.215.163-.19-.084-.9-.507-1.453-.975-1.783-.554-.391m48.148.109c.213.655.482 1.551.598 1.991.116.44.133.096.038-.765s-.364-1.757-.598-1.991c-.301-.301-.312-.076-.038.765M367.77 186.2c.001 4.84.059 6.765.129 4.278s.07-6.447-.001-8.8c-.07-2.353-.128-.318-.128 4.522m-96.485-6.446c-.889.965-1.902 2.306-2.251 2.98-1.023 1.979-.717 2.03.398.066.562-.99 1.676-2.475 2.476-3.3.8-.825 1.351-1.5 1.224-1.5s-.958.789-1.847 1.754m25.592.282c.948 1.23 1.951 2.58 2.229 3 .29.439.264.252-.061-.44-.312-.663-1.314-2.013-2.228-3l-1.662-1.796 1.722 2.236m-235.271-.169c.009.507.778 1.591.805 1.133.012-.22.367.23.789 1 .948 1.732 1.014 1.108.081-.771-.631-1.27-1.689-2.13-1.675-1.362m62.878 3.583c-.046 2.228-.173 4.658-.283 5.4l-.198 1.35.412-1.309c.227-.721.354-3.151.283-5.4l-.129-4.091-.085 4.05m-62.311 7.95c0 5.5.057 7.805.126 5.123.069-2.682.069-7.182 0-10-.069-2.818-.125-.623-.126 4.877m220.027-9.059c-1.706.558-3.31 1.666-3.966 2.739l-.685 1.12 1.022-1.118c3.735-4.087 10.108-3.331 12.794 1.518.576 1.041.628 1.067.393.2-.897-3.315-5.907-5.652-9.558-4.459m-211.772.151c-.046.473 1.258 3.556 1.43 3.383.087-.087-.192-.95-.621-1.917-.429-.967-.793-1.627-.809-1.466m10.172 1.369c-.336.804-.518 1.554-.405 1.667.113.113.205.107.205-.012 0-.12.272-.87.605-1.667.333-.797.516-1.449.406-1.449-.11 0-.475.658-.811 1.461m238.12-.361c8.34.083 11.245.232 11.038.568-.175.282-.103.346.187.166 1.368-.845-.809-1.027-11.269-.94l-11.276.093 11.32.113m-254.292 1.1c0 .22.258.85.572 1.4.314.55.572.82.572.6 0-.22-.258-.85-.572-1.4-.314-.55-.572-.82-.572-.6m96.292.651c.426.451 5.262.585 26.952.749l26.432.2-3.725 4-3.724 4 3.872-3.792c2.13-2.086 3.873-4.021 3.873-4.3 0-.405-5.294-.508-26.226-.508-18.606 0-26.48-.13-27.1-.449-.736-.378-.792-.362-.354.1m107.133.785c-.139.695-.231 1.827-.204 2.514.029.744.189.29.394-1.122.368-2.524.233-3.51-.19-1.392m-194.801.172c-.135.354-.428.531-.649.394-.222-.137-.403-.069-.403.151 0 .823.776.839 1.212.024.249-.465.37-.928.27-1.029-.101-.1-.294.107-.43.46m203.738 1.218c-.214.564-.39 1.375-.39 1.802 0 .729-.247.765-4.1.596l-4.1-.18 3.8.374c4.66.458 4.42.542 4.999-1.738.52-2.046.412-2.487-.209-.854m60.733-.326c-.705.821-1.233 1.7-1.022 1.7.082 0 .548-.54 1.036-1.2.964-1.304.955-1.628-.014-.5m-258.907 1c-.299.715-1.18 2.695-1.957 4.4l-1.413 3.1h-2.803c-2.248 0-2.884-.139-3.211-.7-.224-.385-.413-.497-.42-.249-.027.991 1.168 1.385 3.852 1.268l2.736-.119 1.673-3.4c1.825-3.71 2.596-5.6 2.286-5.6-.11 0-.444.585-.743 1.3m38.63-.226c-.025.701-.225 1.746-.445 2.323-.245.646-.251.958-.015.812.49-.303.946-2.703.697-3.669-.112-.438-.209-.22-.237.534m-51.61-.474c0 .22.434 1.21.964 2.2.53.99.964 1.62.964 1.4 0-.22-.434-1.21-.964-2.2-.53-.99-.964-1.62-.964-1.4m261.028 1.3c-1.117 1.77-2.886 5.216-2.482 4.835.402-.379 3.771-6.335 3.584-6.335-.086 0-.582.675-1.102 1.5m8.004 2.6c-1.316 2.155-2.668 4.667-2.668 4.96 0 .426.786-.774 2.331-3.56 1.223-2.204 1.479-3.268.337-1.4m-219.119.965c-.302.365-1.089.995-1.749 1.398-.66.404-.972.735-.694.736.502.001 3.723-2.767 3.243-2.788-.138-.006-.498.288-.8.654m175.168 1.84c-.344.712-1.849 2.735-3.345 4.495-1.495 1.76-2.316 2.849-1.824 2.419 2.101-1.836 6.383-7.621 5.956-8.048-.088-.089-.442.422-.787 1.134m31.019 3.723c-.997 2.105-1.741 3.9-1.653 3.988.088.088.991-1.634 2.005-3.828 1.015-2.193 1.759-3.988 1.653-3.988-.105 0-1.008 1.723-2.005 3.828m-200.9-1.528c-.984 1.438-1.044 1.608-.248.7 1.058-1.208 1.965-2.6 1.694-2.6-.081 0-.731.855-1.446 1.9m84.086-.863-1.122 1.036 1.3-.864c1.191-.791 1.579-1.209 1.122-1.209-.097 0-.682.467-1.3 1.037m93.777 1.074c-.582 1.149-1.446 2.719-1.922 3.489-.82 1.329-.822 1.35-.032.4 1.007-1.211 3.396-5.592 3.171-5.817-.088-.088-.636.779-1.217 1.928m-95.547 1.389c-.65 1.668.617 3.887 2.248 3.937 1.138.036 1.143.029.097-.125-1.518-.224-2.508-2.131-1.945-3.745.516-1.481.173-1.538-.4-.067m164.596 3.3c0 2.31.066 3.255.147 2.1.081-1.155.081-3.045 0-4.2-.081-1.155-.147-.21-.147 2.1m-37.076-2.181c-.94 1.97-.808 2.305.175.443.446-.846.74-1.608.654-1.695-.087-.086-.46.477-.829 1.252m-36.826 4.881c-1.059 1.265-4.389 4.82-7.401 7.9-6.567 6.718-6.49 6.612-4.769 6.56 1.084-.033 1.162-.087.434-.3-.803-.234-.408-.752 4.01-5.26 5.195-5.301 10.365-11.2 9.815-11.2-.089 0-1.029 1.035-2.089 2.3m-17.55 6.403L268 218.607V226h33.229l-.115-3.9-.114-3.9-8.8-.012-8.8-.013 8.7.121 8.7.12v7.184h-32.4v-6.993l8.296-8.304c4.563-4.566 8.207-8.303 8.097-8.303-.11 0-3.934 3.737-8.497 8.303m52.548-6.659c-.246.707-.378 1.356-.292 1.441.086.086.357-.423.604-1.129.246-.707.378-1.356.292-1.441-.086-.086-.357.423-.604 1.129m-9.964 1.036c-.25.814-.388 1.546-.307 1.626.081.081.363-.507.627-1.306s.402-1.531.307-1.626c-.095-.096-.377.492-.627 1.306m-181.78 3.752c-.385.224-.7.607-.7.85s.329.144.731-.22c1.012-.915 11.29-.984 12.192-.082.321.321.701 1.794.851 3.3.358 3.571.927 5.32 1.733 5.32.567 0 .561-.062-.051-.51-.498-.364-.844-1.584-1.21-4.256-.381-2.785-.703-3.887-1.256-4.291-.901-.659-11.189-.752-12.29-.111m180.102 1.228c-.247.957-.551 2.1-.675 2.54-.125.44-.103.684.049.541.353-.332 1.445-4.453 1.236-4.663-.088-.087-.362.624-.61 1.582m9.631.573c-.258 1.026-.394 1.939-.302 2.031.091.092.378-.672.636-1.697.258-1.026.394-1.939.302-2.031-.091-.092-.378.672-.636 1.697m40.93 7.767c0 3.63.06 5.115.135 3.3.074-1.815.074-4.785 0-6.6-.075-1.815-.135-.33-.135 3.3m-251.671 2.108c-2.031 2.039-3.692 3.815-3.692 3.948s1.569-1.362 3.486-3.321c3.672-3.753 4.7-4.324 6.443-3.579.998.426 1.018.415.295-.149-1.637-1.279-2.649-.798-6.532 3.101m45.585-1.901-2.483 1.806-1.581-.806c-.87-.444-1.723-.799-1.897-.788-.174.01.536.462 1.577 1.004l1.893.985 1.938-1.392c1.066-.765 2.464-1.666 3.107-2.001.643-.336.89-.611.549-.613-.341-.001-1.737.811-3.103 1.805m8.401 2.093c2.256 2.277 3.936 4.316 4.038 4.9.174.997.175.996.23-.077.049-.984-6.931-8.723-7.867-8.723-.145 0 1.474 1.755 3.599 3.9m154.972-1.226c-.128 1.059-.347 2.961-.487 4.226l-.255 2.3h-9.168l.201-3.7c.163-3.003.139-3.248-.127-1.3-.18 1.32-.347 3.075-.371 3.9l-.043 1.5h4.776c2.627 0 4.863-.14 4.968-.31.272-.439 1.108-8.172.905-8.374-.092-.092-.271.699-.399 1.758m-201.45-1.332c0 .104.885.734 1.968 1.4l1.967 1.211 2.733-1.166c1.502-.641 2.512-1.17 2.243-1.176-.268-.006-1.495.434-2.725.978l-2.236.989-1.475-.917c-2.277-1.416-2.475-1.522-2.475-1.319m-11.365 7.858c.304 1.1 2.817 5.2 3.187 5.2.128 0-.131-.51-.575-1.134-.444-.623-1.275-2.018-1.847-3.1-.573-1.081-.917-1.516-.765-.966m59.922 3.29c-.856 1.369-1.618 2.674-1.693 2.9-.19.574 2.249-2.953 2.966-4.29 1.051-1.959.325-1.166-1.273 1.39m-34.248 2.022c-4.355 1.526-8.509 4.946-10.066 8.288-.154.33.043.15.437-.4 4.862-6.777 12.935-9.934 19.956-7.804 2.468.748 2.665.735 1.164-.077-2.102-1.138-8.252-1.142-11.491-.007m14.744 2.064c1.124.756 2.809 2.241 3.744 3.3.936 1.058 1.335 1.384.887.724-1.321-1.946-5.377-5.4-6.34-5.4-.184 0 .586.619 1.709 1.376M115 234.261c-.336.804-.518 1.554-.405 1.667.113.113.205.107.205-.012 0-.12.272-.87.605-1.667.333-.797.516-1.449.406-1.449-.11 0-.475.658-.811 1.461m57.639 3.539c.381 1.73.503 1.797 4.281 2.355 1.888.28 3.677.674 3.975.876.299.203.229.078-.153-.277-.393-.364-1.798-.767-3.219-.924-3.588-.397-4.322-.629-4.329-1.373-.003-.362-.189-.927-.412-1.257-.297-.439-.336-.278-.143.6m-13.961 1.995c.366.767.736 1.324.823 1.237.183-.183-1.031-2.632-1.305-2.632-.101 0 .116.628.482 1.395m86.131-1.279c-.056 1.909 3.559 5.496 6.356 6.306 2.957.857 105.583.312 107.235-.569 1.691-.902 3.128-2.171 3.685-3.253.226-.44-.196-.152-.937.639-3.038 3.244 2.418 2.961-57.179 2.961h-53.032l-1.968-1.214c-1.355-.835-2.309-1.833-3.06-3.2-.6-1.092-1.095-1.844-1.1-1.67m122.145.584c-1.218 3.849-3.74 6.775-7.266 8.428L357.4 248.6H250.6l-2.276-1.118c-1.38-.677-3.102-2.016-4.373-3.4-1.582-1.721-1.907-1.953-1.324-.943 1.076 1.864 3.144 3.596 5.755 4.821L250.6 249h106.8l1.968-.908c3.835-1.768 6.834-5.011 7.822-8.458.368-1.282.153-1.766-.236-.534m-253.754-.008c0 .234-1.575.651-3.5.928-1.925.276-3.797.756-4.16 1.067-.699.598-1.321 2.272-.703 1.89.2-.123.363-.477.363-.787 0-.834 1.037-1.228 4.707-1.787 3.075-.468 4.119-.91 3.533-1.496-.132-.132-.24-.049-.24.185m-8.652 8.508c0 2.31.066 3.255.147 2.1.081-1.155.081-3.045 0-4.2-.081-1.155-.147-.21-.147 2.1m21.166-.2c.003 1.1.081 1.503.173.895.092-.609.09-1.509-.005-2-.095-.492-.171.005-.168 1.105M36 247.864c0 .218.495.833 1.1 1.366l1.1.97-1-1.2c-.55-.66-1.045-1.275-1.1-1.367-.055-.091-.1.012-.1.231M126.249 252c.135.77.487 1.85.782 2.4.742 1.381.68.973-.241-1.6-.548-1.53-.713-1.774-.541-.8m-21.558.826c.294 1.123 1.557 1.837 3.709 2.096 1.86.224.924-.165-1.714-.713-.692-.144-1.257-.606-1.49-1.22-.456-1.199-.805-1.312-.505-.163m76.22.562c-.239.426-1.449.83-3.537 1.181-1.746.293-2.814.554-2.374.58 2.789.162 7.331-1.351 6.513-2.169-.132-.132-.403.051-.602.408m-70.111 1.794c.33.223.906.409 1.28.412.374.003.864.321 1.088.706.224.385.413.497.42.249.017-.638-.792-1.195-2.188-1.506-.877-.195-1.038-.158-.6.139m62.271.318c-.097.165-.282.93-.409 1.7l-.233 1.4.461-1.4c.253-.77.652-1.532.885-1.694.287-.198.27-.296-.051-.3-.262-.003-.556.129-.653.294m-44.347 1.925c.904 1.345 4.275 4.578 4.767 4.571.17-.003-.267-.459-.972-1.014-.704-.556-2.032-1.859-2.949-2.896-.918-1.037-1.298-1.335-.846-.661m27.361 1.37c-5.042 5.665-13.673 7.454-20.14 4.177-1.07-.542-1.945-.895-1.945-.785 0 .537 4.194 2.223 6.549 2.634 6.052 1.053 13.387-2.075 17.105-7.296 1.225-1.722.754-1.34-1.569 1.27m-41.657 1.005c0 .22.258.85.572 1.4.314.55.572.82.572.6 0-.22-.258-.85-.572-1.4-.314-.55-.572-.82-.572-.6m56.592 1.755-.705 1.564 1.721 2.533c.946 1.394 1.844 3.167 1.996 3.941.271 1.38.277 1.384.322.203.031-.819-.545-2.085-1.801-3.957l-1.847-2.753.664-1.393c.366-.766.595-1.462.51-1.547-.085-.085-.472.549-.86 1.409m-58.003 5.78c-1.463 2.497-1.403 2.654 2.816 7.27 4.105 4.493 5.301 5.087 7.191 3.573.75-.601.746-.608-.098-.2-2.204 1.065-3.026.636-6.873-3.585-4.034-4.425-4.09-4.576-2.636-7.058.559-.954.927-1.735.817-1.735-.11 0-.658.781-1.217 1.735m57.175 7.492c-3.333 3.365-3.686 3.612-4.901 3.423-.766-.118-1.212-.046-1.076.174.768 1.243 2.481.295 6.185-3.424 2.081-2.09 3.694-3.8 3.584-3.8-.11 0-1.817 1.632-3.792 3.627m-44.001.829c-2.409 1.795-2.67 2.281-.356.662 1.519-1.062 2.203-1.328 2.7-1.051.366.205.665.28.665.167 0-.964-1.572-.849-3.009.222m31.959-.611c-.727.589-.726.595.03.22.62-.307 1.255-.064 3.1 1.189 1.276.867 2.32 1.486 2.32 1.376 0-.906-4.764-3.34-5.45-2.785M131 276.383c.88.438 2.176.909 2.88 1.047.899.177 1.396.567 1.669 1.311.213.582.399.789.413.459.047-1.107-.676-1.725-2.826-2.414-1.175-.377-2.496-.801-2.936-.942-.44-.141-.08.101.8.539m23.2.178c-1.32.475-2.643.955-2.941 1.065-.358.133-.662 1.4-.9 3.747-.489 4.821-.197 4.627-6.985 4.627-5.466 0-5.757-.041-6.351-.889-.343-.489-.623-.697-.623-.462 0 1.405 1.398 1.751 7.07 1.751 6.789 0 6.852-.039 7.204-4.453.301-3.771.458-4.037 2.787-4.706 1.876-.539 4.352-1.642 3.539-1.577-.22.018-1.48.421-2.8.897"/>
  </g>
</svg>
