<svg xmlns="http://www.w3.org/2000/svg" width="400" height="400" fill-rule="evenodd" xmlns:v="https://vecta.io/nano"><path d="M202.489 39.47c-1.99.986-4.16 3.114-5.1 5.003-1.12 2.25-1.303 187.136-.188 189.645 1.974 4.44 4.907 6.24 10.508 6.447l4.01.149v5.301c0 6.416.575 8.064 3.453 9.889l1.778 1.127h62.542 62.543l1.778-1.127c2.883-1.829 3.453-3.469 3.453-9.934v-5.345l3.613-.03c5.519-.045 8.703-1.689 10.584-5.465l1.037-2.08-.021-80.295-.684-81.963c-.987-2.487-27.748-29.677-30.616-31.106l-2.036-1.014h-62.52l-64.134.798m123.683 14.756c0 15.128.681 17.289 6.397 20.304l2.001 1.056 11.817.119 11.816.118v77.954 77.953l-.853 1.518c-1.225 2.179-3.298 3.08-7.083 3.08h-3.001v-69.551c0-76.385.197-70.415-2.408-72.905-2.272-2.172.783-2.075-65.602-2.075-70.064 0-63.744-.286-66.245 2.993l-1.097 1.438-.101 70.05-.101 70.05-2.828-.008c-3.414-.011-5.624-.892-6.97-2.778l-.937-1.315-.101-92.345-.1-92.344.969-1.653c.633-1.079 1.548-1.939 2.639-2.479l1.671-.827 60.058-.001h60.059v11.648m20.06 16.777c-15.664.156-15.373.449-15.373-15.404V45.093l12.886 12.903 12.886 12.902-10.399.105M177.344 57.031c-1.495 1.495-1.048 2.904 1.855 5.85l2.637 2.675-7.617.178c-18.16.424-31.131 8.523-36.683 22.904l-1.144 2.964-41.145.195-41.145.195-2.092 1.159c-2.323 1.287-3.936 3.033-5.243 5.677l-.869 1.758v68.75 68.75l1.069 2.026c1.397 2.65 3.5 4.678 6.158 5.939l2.148 1.019 49.219.126 49.219.126 1.256 2.608c7.694 15.986 20.722 23.071 42.483 23.105l7.802.012-2.626 2.646c-3.477 3.505-3.445 6.729.068 6.729 1.678 0 11.369-9.976 11.369-11.702 0-1.822-9.637-11.736-11.408-11.736-3.502 0-3.511 3.134-.018 6.497l2.636 2.538-9.96-.171c-17.593-.304-27.563-5.317-34.43-17.314l-1.812-3.166 3.666-.192c6.036-.316 9.925-2.738 12.13-7.554l.923-2.016-.102-68.705-.102-68.706-.896-1.677c-3.266-6.117-4.441-6.501-20.295-6.638l-12.989-.244c0-.487 1.909-4.307 3.039-6.082 4.263-6.692 10.278-11.129 18.33-13.52 3.503-1.041 18.866-1.955 18.866-1.123 0 .174-1.143 1.499-2.539 2.946-2.765 2.863-3.148 4.05-1.758 5.44 1.714 1.714 2.707 1.189 8.396-4.44 6.97-6.898 6.976-6.133-.111-13.22-5.766-5.767-6.639-6.252-8.285-4.606m-9.346 40.43c.912.644 2.026 1.875 2.475 2.734l.816 1.563v67.578 67.578l-.816 1.563c-.449.859-1.563 2.089-2.475 2.734l-1.659 1.172h-55.561-55.562l-1.402-.961c-4.157-2.848-3.879 2.709-3.737-74.625l.118-65.039 1.069-1.818c.795-1.352 1.592-2.079 3.114-2.837l2.047-1.02 54.957.103 54.957.103 1.659 1.172m174.067-.518l.904.849v76.567 76.567l-.85.904-.849.904h-61.778-61.778l-.947-1.008-.947-1.008v-76.565-76.566l.922-.747c.9-.728 2.456-.746 62.671-.746h61.748l.904.849m-89.498 6.056c-.319.83.687 1.872 1.504 1.559.339-.13.617-.682.617-1.225 0-1.174-1.697-1.441-2.121-.334m-26.104 3.847c-2.587 2.588-1.005 6.826 2.548 6.826 2.241 0 3.411-1.34 3.411-3.906 0-3.614-3.534-5.345-5.959-2.92m8.871-.028c-1.077 1.077-1.231 2.426-.405 3.555.389.533.433.902.149 1.245-.223.268-.314.833-.203 1.256s-.045.973-.345 1.222c-2.5 2.075 2.997 4.443 5.899 2.542 2.281-1.495.728-4.138-2.43-4.138-2.152 0-2.137-.495.033-1.075 1.865-.499 2.898-2.036 2.407-3.584-.204-.641-.089-.81.55-.81 1.656 0 .734-.681-1.243-.919-3.104-.372-3.378-.328-4.412.706m15.447-.177c0 .607.261.781 1.172.781h1.172v2.539 2.539h-1.367c-.97 0-1.367.175-1.367.601 0 .764 6.671.681 6.925-.086.093-.279-.359-.511-1.14-.586l-1.293-.124-.114-3.223-.113-3.223h-1.937c-1.677 0-1.938.105-1.938.782m8.203 3.125c0 3.645.052 3.906.782 3.906.71 0 .781-.261.781-2.882 0-1.934.172-3.025.524-3.317.843-.699 1.038-.109 1.038 3.139 0 2.799.067 3.06.782 3.06.71 0 .781-.261.781-2.882 0-1.934.172-3.025.524-3.317.843-.699 1.038-.109 1.038 3.139 0 2.799.067 3.06.782 3.06.811 0 1.156-4.225.534-6.547-.306-1.142-2.037-1.63-2.677-.754-.419.573-.514.57-1.117-.033-.546-.545-.792-.576-1.434-.175-.462.288-.775.325-.775.09 0-.216-.352-.394-.781-.394-.73 0-.782.261-.782 3.907m10.686-3.662c-.997.409-.111 1.679.902 1.293 1.298-.493 1.537-.467 2.252.248.979.98.725 1.339-.949 1.339-2.651 0-4.132 2.484-2.411 4.041.833.754 2.828.855 3.505.178.364-.364.469-.364.469 0 0 .258.351.469.781.469.716 0 .781-.261.781-3.125 0-4.169-1.977-5.817-5.33-4.443m8.483.785c-.958 1.218-1.031 2.387-.219 3.545.408.583.458.924.164 1.106-.235.145-.321.684-.193 1.198s.068.934-.137.934c-.531 0-.911 1.425-.622 2.335.326 1.027 2.68 1.643 4.603 1.204 3.928-.896 3.552-4.494-.5-4.781-2.024-.144-2.364-.848-.497-1.028 1.657-.16 2.987-1.789 2.687-3.29-.158-.79-.061-1.081.36-1.081 1.354 0 .422-.696-1.236-.923-2.969-.407-3.557-.303-4.41.781m9.134-.071c-1.384 1.384-1.373 4.522.02 5.915 1.342 1.342 5.001 1.267 5.197-.106.114-.799.039-.824-1.248-.429-1.12.344-1.551.301-2.367-.234-1.829-1.198-1.292-1.808 1.592-1.808h2.59l-.235-1.465c-.443-2.772-3.589-3.833-5.549-1.873m-57.209.995c1.41 1.41.591 4.687-1.172 4.687-.955 0-1.953-1.441-1.953-2.821 0-1.059 1.172-2.648 1.953-2.648.215 0 .742.352 1.172.782m8.747.097c.589.939-.129 2.015-1.448 2.173-.82.098-1.072-.076-1.274-.884-.479-1.909 1.69-2.936 2.722-1.289m42.881.086c.337.738.323 1.106-.056 1.563-.921 1.11-2.744.468-2.744-.965a1.45 1.45 0 0 1 2.8-.598m9.086-.351c1.003 1.003.716 1.339-1.144 1.339-1.925 0-2.078-.17-1.111-1.238.793-.876 1.451-.906 2.255-.101m-17.354 3.214c0 .951-.755 1.641-1.795 1.641-1.011 0-1.531-1.045-.899-1.807.682-.822 2.694-.698 2.694.166m-141.264.824c-8.306 2.096-6.859 16.833 1.653 16.833 4.515 0 7.171-3.184 7.171-8.594 0-5.999-3.765-9.515-8.824-8.239m-65.678 8.293l.106 8.344h1.562 1.563l.115-2.636.116-2.637 1.837-.009c3.783-.017 6.334-1.964 6.632-5.061.425-4.427-1.541-5.983-7.829-6.2l-4.208-.145.106 8.344m12.801-7.915c0 .188 1.136 2.402 2.524 4.919 2.498 4.529 2.526 4.614 2.637 7.959l.112 3.381h1.758 1.758l.113-3.402.112-3.402 2.72-4.718c3.219-5.585 3.119-5.079 1.009-5.079-1.967 0-2.002.033-4.044 3.802l-1.53 2.826-1.681-3.314-1.68-3.314h-1.904c-1.047 0-1.904.154-1.904.342m15.234 1.22v1.563h2.53 2.53l.107 6.738.107 6.738h1.758 1.757l.107-6.738.107-6.738h2.53 2.53v-1.563-1.562h-7.031-7.032v1.562m16.106 6.739l.105 8.3 1.66.12 1.661.121v-3.539-3.538h3.109 3.11l.113 3.418.113 3.418 1.66.12 1.66.121v-8.031l.098-8.323c.053-.161-.738-.347-1.758-.412l-1.855-.119v3.342 3.341h-3.125-3.125v-3.32-3.32h-1.766-1.766l.106 8.301m33.288-7.802c-.106.275-.144 4.01-.086 8.301l.106 7.801h1.563 1.562v-5.598c0-3.079.137-5.364.305-5.078a1322.05 1322.05 0 0 0 3.455 5.717l3.151 5.197 1.427-.119 1.428-.119.105-8.3.106-8.301h-1.591-1.591l.118 5.469c.065 3.008-.013 5.469-.174 5.469s-.293-.199-.293-.44-1.363-2.699-3.028-5.461l-3.027-5.022-1.672-.008c-1.004-.004-1.75.193-1.864.492m99.825 1.454c0 .694.26.781 2.344.781s2.344-.087 2.344-.781-.261-.781-2.344-.781-2.344.086-2.344.781m-4.395.607c.822.252.544 1.338-.459 1.795-1.791.816-3.79-.299-3.216-1.795.201-.524 1.966-.524 3.675 0m43.46.372c.856 1.032-1.941 2.186-3.681 1.518-.555-.213-.872-1.722-.451-2.144.366-.365 3.732.145 4.132.626m-208.596.974c1.727 1.727.102 4.297-2.717 4.297h-1.58v-2.539-2.539h1.758c1.237 0 1.989.231 2.539.781m61.605-.192c1.848 1.294 1.982 7.091.204 8.869-1.971 1.971-5.091.289-5.455-2.943-.548-4.867 2.251-8.027 5.251-5.926m92.829 8.041c-.676.196-1.775.977-2.441 1.736L225 126.59v25.618 25.618l1.517 1.517 1.516 1.516 48.972-.001c48.43-.002 48.986-.01 50.265-.79 2.464-1.503 2.418-.962 2.417-28.005-.001-27.855.15-26.494-3.11-28.137l-1.743-.879-47.475.035-48.706.392m96.891 4.488c.131.339.237 10.749.237 23.133v22.515l-15.239-15.487c-11.56-11.749-15.579-15.6-16.651-15.954-2.863-.944-3.382-.554-15.656 11.794l-11.314 11.382-2.903-2.951c-5.285-5.371-5.78-5.202-17.561 6.008l-9.013 8.577-4.171-.111-4.171-.11-.102-24.219.086-24.707c.318-.832 96.139-.703 96.458.13m-81.403 9.77c-6.661 2.885-7.018 12.326-.586 15.487 7.932 3.898 15.598-6.217 9.927-13.098-2.233-2.708-6.239-3.733-9.341-2.389m5.479 3.949c3.97 2.736 2.267 8.449-2.518 8.449-3.6 0-5.629-3.5-3.933-6.78 1.123-2.171 4.467-3.036 6.451-1.669m-146.288 1.696c-8.913 1.399-10.471 3.245-10.945 12.971l-.262 5.371h9.992 9.992v1.546 1.546l-15.918.114-15.918.114-2.095 1.161c-5.55 3.073-8.128 9.718-7.735 19.933.529 13.746 4.317 18.838 14.319 19.25l4.496.184v-6.601-6.601l1.306-2.652c.901-1.831 1.808-3.021 2.929-3.846 3.355-2.468 3.182-2.441 17.456-2.659 20.149-.308 20.467-.634 20.052-20.608-.265-12.772-.711-14.21-5.162-16.632-4.412-2.402-15.546-3.683-22.507-2.591m205.054 18.146l15.135 15.43H301.11h-22.411l-4.579-4.59-4.578-4.591 10.821-10.839c8.72-8.734 11.022-10.839 11.854-10.839.845 0 3.798 2.818 16.169 15.429m-204.187-10.939c1.206 1.402 1.154 3.327-.132 4.855-2.19 2.602-6.411.911-6.411-2.569 0-3.336 4.337-4.851 6.543-2.286m162.576 19.53l6.858 6.833-15.218.003-15.218.003 1.741-1.797c.958-.988 4.15-4.064 7.093-6.835 7.162-6.745 6.037-6.882 14.744 1.793m-32.4 27.542c0 5.599.035 5.86.781 5.86.702 0 .782-.261.782-2.565 0-2.887.455-4.076 1.562-4.076s1.563 1.189 1.563 4.076c0 2.304.079 2.565.781 2.565 1.038 0 1.178-5.901.173-7.335-.635-.907-2.646-1.217-3.103-.478-.582.941-.976.231-.976-1.758 0-1.888-.095-2.148-.782-2.148-.746 0-.781.26-.781 5.859m25.755-5.761c-.014.053-.121 2.58-.237 5.614-.219 5.694-.002 6.646 1.273 5.588.444-.368.696-.376 1.038-.034 1.821 1.822 4.593-.447 4.593-3.758 0-3.25-2.768-5.365-4.609-3.524-.365.365-.469-.026-.469-1.758 0-1.966-.092-2.226-.781-2.226-.43 0-.793.044-.808.098m27.24.162c-.143.144-.261.671-.261 1.172 0 1.064 1.709 1.33 2.095.326.48-1.251-.93-2.402-1.834-1.498m5.096-.018c-.627.627-.207 1.278.899 1.393l1.177.123.117 4.444c.131 4.967.418 5.517 2.877 5.517 1.71 0 1.902-1.441.218-1.635l-1.074-.123-.196-4.883-.195-4.883-1.772-.115c-.975-.064-1.898.009-2.051.162m-65.122 2.297c0 .781-.196.977-.977.977-.716 0-.976.208-.976.781 0 .563.26.781.932.781.881 0 .941.154 1.09 2.777.184 3.27.782 3.965 3.251 3.783 2.155-.158 2.328-1.626.195-1.657l-1.367-.02-.116-2.442-.116-2.441h1.581c1.32 0 1.581-.129 1.581-.781s-.261-.781-1.563-.781c-1.406 0-1.562-.098-1.562-.977 0-.781-.195-.977-.977-.977s-.976.196-.976.977m15.234 3.685c0 4.555 1.475 6.427 3.947 5.008.991-.569 1.131-.575 1.131-.053 0 .358.274.544.684.466.589-.113.699-.684.795-4.13l.111-3.999h-.974c-.943 0-.977.094-1.088 2.986-.201 5.26-2.653 5.164-2.653-.105 0-2.813-.023-2.881-.976-2.881s-.977.079-.977 2.708m8.203 1.393c0 3.841.05 4.102.782 4.102.705 0 .781-.261.781-2.703 0-3.047.23-3.938 1.018-3.938.423 0 .544.747.544 3.349 0 4.823 1.261 4.797 1.563-.032.284-4.538 1.367-4.535 1.367.003 0 2.865.065 3.125.781 3.125 1.066 0 1.38-5.575.399-7.073-.635-.97-1.981-1.265-2.239-.491-.106.316-.397.289-1.01-.094-.696-.435-1.01-.444-1.642-.05-.463.29-.781.328-.781.094 0-.216-.352-.393-.781-.393-.732 0-.782.26-.782 4.101m17.662-.098c.103 3.707.17 4.004.893 4.004.695 0 .794-.299.899-2.718.221-5.125 2.496-5.454 2.812-.407.175 2.801.276 3.125.976 3.123 1.17-.004 1.19-6.6.023-7.452-1.015-.741-2.534-.7-3.41.093-.664.602-.714.602-.714 0 0-.39-.316-.646-.795-.646-.755 0-.789.201-.684 4.003m9.389-3.745c-1.337.54-.463 1.499 1.367 1.499 1.574 0 1.873.122 1.97.803.101.702-.055.782-1.247.643-1.848-.216-3.562 1.384-3.18 2.969.444 1.842 2.07 2.527 3.802 1.6.455-.244.911-.28 1.049-.085.845 1.203 1.419.213 1.528-2.635.165-4.331-1.868-6.174-5.289-4.794m7.324.523c0 .607.261.781 1.172.781h1.172v2.539 2.539h-1.172c-.909 0-1.172.174-1.172.777 0 1.037 6.353.867 6.572-.175.095-.453-.218-.602-1.27-.602h-1.395v-3.32-3.32h-1.954c-1.692 0-1.953.104-1.953.781m-20.752 1.133c.704.446.767 3.275.091 4.09-1.246 1.501-2.776.452-2.776-1.903 0-2.224 1.149-3.16 2.685-2.187m16.651 3.554c0 .776-.222 1.002-1.077 1.101-1.253.144-1.823-.782-1.052-1.711.78-.939 2.129-.553 2.129.61m-54.538 12.454L225 214.752v12.884c0 17.911-2.534 16.114 22.735 16.113 25.059-.002 22.549 1.759 22.622-15.876.056-13.411.059-13.387-2.019-15.136l-1.21-1.018H247.58h-19.547l-1.516 1.516m40.104 2.886c.105.273.143 4.703.086 9.844l-.105 9.349-4.981-5.717c-6.76-7.759-6.512-7.742-12.784-.882l-4.093 4.476-1.586-1.557c-2.215-2.173-2.358-2.113-7.464 3.132-3.722 3.823-4.769 4.687-5.676 4.687h-1.112v-11.914-11.914h18.763c14.805 0 18.802.105 18.952.496m-29.654 6.003c-2.024 2.024-.435 5.61 2.486 5.61 1.568 0 3.516-1.839 3.516-3.32 0-2.805-3.972-4.321-6.002-2.29m24.36 11.665l4.763 5.469-7.73.106-7.73.106-1.881-1.853c-2.28-2.246-2.463-1.693 2.248-6.777l3.886-4.193.84.837c.462.46 2.984 3.297 5.604 6.305m-17.968 3.125l2.517 2.539h-5.056-5.055l2.516-2.539 2.539-2.539c.013 0 1.155 1.143 2.539 2.539m-93.54 57.005l-.409 1.966c-.194.937-.306.966-4.113 1.074l-3.914.111v13l.001 12.999 12.316.087 12.316.086v-13.183-13.184h-6.014-6.013l.4-1.577c.484-1.904.61-1.779-2.129-2.111-2.172-.264-2.237-.244-2.441.732m40.025 1.784v2.735h-1.563-1.562v1.757 1.758h1.583 1.584l-.243 4.395c-.303 5.508-.72 7.67-1.912 9.908-1.095 2.058-1.112 2.029-1.821-3.17-.573-4.209-.59-4.233-2.781-3.904l-1.73.259.477 2.995c.262 1.646.361 3.103.219 3.236-.234.219-4.375.807-4.35.618.006-.043.595-2.101 1.31-4.571l1.299-4.492 3.085-.196 3.084-.195v-1.758-1.758h-7.031-7.031l-.119 1.856-.119 1.855h2.001c1.722 0 1.972.095 1.798.684-.111.376-.575 2.169-1.031 3.985-1.006 4.005-1.356 4.706-2.348 4.706-.962 0-.958.252.033 2.492.668 1.511.942 1.778 1.66 1.616 1.06-.24 10.496-1.373 11.433-1.373.63 0 .627.059-.051.808-.722.797-.711.824.818 2.126 1.798 1.529 1.674 1.607 3.984-2.5 1.847-3.281 2.396-5.768 2.705-12.251l.256-5.371h1.883 1.882l-.206 6.934c-.303 10.19-.326 10.254-3.599 10.254h-1.532l.396 2.002.396 2.002 2.38-.245c5.115-.529 5.413-1.281 5.628-14.209l.171-10.253h-3.565-3.565v-2.735-2.734h-1.953-1.953v2.734M250 298.401v5.042l-2.149.134-2.149.134.001-4.004v-4.004h-2.148-2.149l.001 4.004v4.004l-2.149-.134-2.149-.134v1.99 1.989h6.446H250v4.414c0 2.518.173 4.587.404 4.818.496.496-5.249 1.977-9.001 2.32-3.675.337-3.547.224-2.823 2.487.756 2.364.886 2.386 6.866 1.169 7.355-1.498 12.863-4.32 16.86-8.636 2.556-2.762 2.531-2.577.541-3.986l-1.589-1.125-1.758 2.009c-.966 1.105-2.533 2.542-3.48 3.194l-1.723 1.186v-3.925-3.925h5.859 5.86v-1.973-1.973l-5.86.118-5.86.117v-1.879l.001-1.879 4.493.121 4.493.121-.001-1.855-.001-1.856h-4.492-4.492v-1.562-1.563h-2.149H250v5.042m-44.131 10.583l-.026 14.844h1.961 1.962v-13.086-13.086h9.57 9.57v10.469c0 11.757.088 11.406-2.858 11.406-1.801 0-1.906.055-1.685.879.13.484.238 1.362.241 1.953.006 1.248 1.149 1.407 4.67.652 3.63-.778 3.539-.373 3.539-15.646v-13.228h-13.46-13.459l-.025 14.843m-32.822-11.889v1.733h6.25c3.437 0 6.371.044 6.518.098s.273-.694.278-1.66l.01-1.758-6.528-.074-6.528-.073v1.734m38.281 4.671v1.766l7.91-.106 7.91-.106.121-1.66.12-1.66h-8.031-8.03v1.766m-49.609.773v1.758h-8.207-8.206l.067-1.758.066-1.758h8.14 8.14v1.758m50.781 8.789v5.86h6.836 6.836v-5.86-5.859h-6.836-6.836v5.859m30.299-1.789c-.324 2.157-1.705 3.917-3.551 4.527l-1.352.446 1.056 1.435 1.131 1.561c.752 1.242 5.784-3.913 6.617-6.779.751-2.581.878-2.369-1.632-2.707l-2.002-.269-.267 1.786m-81.08.625v1.961l-8.099-.105-8.099-.106-.134-1.855-.135-1.856h8.233 8.234v1.961m60.547 1.164v2.344h-2.93-2.93v-2.344-2.344h2.93 2.93v2.344m-60.547 6.25v1.953h-8.106-8.105v-1.953-1.953h8.105 8.106v1.953M98.73 337.035l-1.464.122v10.132 10.133h1.562 1.563v-4.848-4.848l1.201-1.012c3.231-2.718 4.658-.993 4.658 5.63v5.078h1.563 1.562l-.001-5.762c-.002-7.86-.771-9.102-5.312-8.59-.962.108-2.064.481-2.448.829-1.106 1.001-1.165.843-1.158-3.108.003-2.057-.054-3.771-.127-3.809s-.793-.013-1.599.053m62.598 1.637c0 1.823-.065 1.953-.976 1.953-.782 0-.977.195-.977.977s.195.976.977.976c.897 0 .976.143.976 1.758s-.079 1.758-.976 1.758c-.782 0-.977.195-.977.976 0 .712.209.977.771.977 1.183 0-.041 5.55-1.276 5.788-.612.118-.667-.552-.667-8.103V337.5h-3.078-3.079l-.199 8.691c-.114 4.969-.397 9.335-.661 10.192-.451 1.468.154 2.992 1.187 2.992.411 0 1.533-5.083 1.533-6.943 0-1.462.042-1.509 1.172-1.343l1.172.172v2.69 2.69h-1.172c-.68 0-1.17.205-1.166.488.04 3.689 4.24 2.743 4.333-.977.04-1.628.049-1.639.475-.56l.433 1.099 2.845-.266c2.471-.232 2.846-.184 2.846.365 0 .635.968.886 1.307.338.666-1.078-.684-7.128-1.591-7.128-.894 0-.937.108-.818 2.051.124 2.036.117 2.051-1.078 2.168l-1.204.118.808-3.145.808-3.145h1.47c1.307 0 1.47-.108 1.47-.977 0-.855-.17-.976-1.368-.976-1.36 0-1.367-.01-1.367-1.758s.007-1.758 1.367-1.758c1.198 0 1.368-.121 1.368-.976 0-.861-.167-.977-1.405-.977h-1.405l.135-1.953c.132-1.904.108-1.954-.939-1.953-1.028 0-1.074.083-1.074 1.953m24.573-1.686c-.02.175-.006 1.066.03 1.979l.066 1.66h-5.108-5.108v1.159 1.158l4.128.111 4.129.111-2.054 2.93c-1.129 1.611-3.074 3.954-4.323 5.207-2.596 2.603-2.502 2.382-1.527 3.623l.744.946 2.221-2.447c1.222-1.346 3.26-3.996 4.53-5.89l2.309-3.444v4.323 4.322h-2.735c-2.656 0-2.734.028-2.734.977s.078.977 2.734.977h2.735v2.539 2.539h1.171 1.172v-2.539-2.539h2.344c2.24 0 2.344-.044 2.344-.977s-.104-.977-2.344-.977h-2.344l.005-4.004.005-4.003.915 1.599c1.367 2.391 3.801 5.584 5.916 7.759l1.88 1.935.608-1.283.608-1.283-1.654-1.374c-2.136-1.773-6.72-7.872-6.72-8.938 0-.095 1.758-.173 3.906-.173h3.906v-1.172-1.172h-4.837-4.837l.023-1.855c.02-1.677-1.928-3.329-2.104-1.784m-19.104 11.842v10.938h.976c.944 0 .977-.088.989-2.637.009-1.987.11-2.468.411-1.951.292.502.682.62 1.453.441 1.944-.45 2.03-.86 2.03-9.6v-8.128h-2.929-2.93v10.937m-111.552-.975l-.028 9.569h1.688 1.689l.082-2.246c.046-1.236.071-2.796.058-3.468l-.026-1.222 2.829-.182c4.658-.298 6.999-2.375 6.942-6.158-.066-4.405-2.255-5.844-8.909-5.855l-4.297-.007-.028 9.569m158.427-.233l-.001 9.216 1.465-.04 1.466-.041.111-3.768.112-3.768h3.502 3.501v-1.367-1.368h-3.515-3.516v-2.734-2.734h3.931 3.931l-.123-1.27-.122-1.269-5.371-.037-5.371-.036v9.216m64.844-.234v9.166l1.208.177c1.628.239 1.64.175 1.463-7.55-.084-3.666-.035-6.343.11-5.949s.995 3.054 1.89 5.913l1.627 5.198 1.441-.12 1.44-.119 1.959-5.876 1.959-5.875-.006 7.214-.005 7.213 1.367.003 1.367.002.105-9.209.104-9.209-2.058.056-2.057.056-1.489 4.296c-.819 2.364-1.724 5.176-2.011 6.25s-.612 1.691-.722 1.368-.973-3.135-1.918-6.25l-1.718-5.663-2.028-.13-2.028-.129v9.167m-190.137-7.657c-.754.145-.879.416-.879 1.9 0 1.662-.046 1.73-1.172 1.73-1.042 0-1.172.131-1.172 1.172s.13 1.172 1.172 1.172H87.5v4.467c0 6.778 1.542 8.632 6.152 7.396 1.734-.464 1.227-2.878-.605-2.878-2.218 0-2.422-.419-2.422-4.961v-4.024h1.953c1.91 0 1.953-.026 1.953-1.172s-.043-1.172-1.953-1.172h-1.953v-1.953c0-2.071-.041-2.102-2.246-1.677m67.871 1.677c0 1.91-.026 1.953-1.172 1.953s-1.172-.043-1.172-1.953.026-1.953 1.172-1.953 1.172.044 1.172 1.953m109.473-1.48c-1.194.311-1.27.435-1.27 2.077 0 1.681-.044 1.747-1.172 1.747-1.041 0-1.172.13-1.172 1.172s.131 1.172 1.172 1.172h1.172v4.51c0 5.412.571 6.432 3.596 6.421 2.22-.008 2.827-.424 2.503-1.715-.207-.825-.466-1.008-1.334-.942-1.868.142-2.03-.21-2.03-4.391v-3.883h1.757c1.693 0 1.758-.044 1.758-1.172s-.067-1.172-1.738-1.172h-1.739l-.117-2.077-.117-2.078-1.269.331m47.461.034c-1.418.341-1.465.408-1.465 2.071 0 1.573-.083 1.719-.977 1.719-.824 0-.976.182-.976 1.172 0 .975.156 1.172.934 1.172.923 0 .936.053 1.078 4.529.185 5.821 1.519 7.285 5.631 6.181 1.511-.406.79-2.507-.861-2.507-1.712 0-2.095-.929-2.095-5.082v-3.078l1.856-.12c2.907-.186 3.101-2.267.211-2.267h-1.892l.145-1.519c.234-2.462.086-2.674-1.589-2.271m9.179-.034c-1.193.311-1.269.435-1.269 2.077 0 1.681-.045 1.747-1.172 1.747-1.042 0-1.172.13-1.172 1.172s.13 1.172 1.172 1.172h1.172v4.51c0 4.267.051 4.561.959 5.468 1.002 1.003 3.697 1.338 4.855.605 1.007-.638.215-2.333-1.071-2.296-1.874.053-2.009-.242-2.009-4.404v-3.883h1.758c1.693 0 1.758-.044 1.758-1.172s-.068-1.172-1.739-1.172h-1.738l-.117-2.077-.117-2.078-1.27.331m-151.748 6.461c-.106 6.451-.12 6.544-.986 6.668l-.879.124v-6.667-6.668h.986.986l-.107 6.543m-106.8-4.562c2.691 2.117.855 5.596-2.967 5.622l-1.923.014-.068-3.223-.068-3.223h1.998c1.43.001 2.291.231 3.028.81m52.1 2.013c-3.973 2.302-4.071 10.126-.164 12.975 2.787 2.032 7.925.68 9.542-2.51 3.529-6.962-2.949-14.192-9.378-10.465m13.642-.609c-.143.143-.26 3.395-.26 7.227v6.966h1.758 1.758v-5.264-5.263l1.152-.596c3.41-1.763 4.316-.477 4.316 6.132v4.991h1.563 1.562v-5.684c0-7.667-.579-8.769-4.609-8.769-1.335 0-2.231.24-2.919.781-.546.43-1.081.781-1.188.781s-.103-.351.009-.781c.206-.788-2.437-1.226-3.142-.521m-58.677 2.572c.507 1.343 1.738 4.429 2.736 6.859s1.714 4.727 1.594 5.107c-.446 1.403-1.766 2.389-3.2 2.389-1.259 0-1.375.088-1.162.879.129.484.237 1.121.24 1.416.008.798 4.065.386 5.06-.515.859-.777 2.078-3.572 5.275-12.089 2.594-6.91 2.563-6.562.56-6.412l-1.61.12-1.639 4.639-1.639 4.639-1.731-4.736-1.731-4.736-1.838-.001-1.838-.001.923 2.442m157.05-2.131l-1.172.114.085 6.5.084 6.499h1.283l1.282.001.11-4.758c.123-5.363.559-6.14 3.288-5.866 1.238.124 1.29.074 1.29-1.238 0-1.84-2.303-2.225-3.879-.649-.954.954-.961.954-1.08.121-.096-.677-.346-.817-1.291-.724m10.436.317c-4.538 2.315-4.161 11.115.543 12.667 4.643 1.533 8.355-1.337 8.355-6.459 0-5.302-4.508-8.448-8.898-6.208m12.904-.31l-1.27.122v6.378 6.378l1.367.16 1.367.159v-4.782c0-5.348.322-5.998 2.969-5.998 1.859 0 2.074.575 2.195 5.858l.11 4.832 1.367-.002 1.367-.003v-5.57-5.571l-1.325-1.184c-1.52-1.357-4.453-1.429-5.874-.143-.708.641-.752.639-.875-.041-.1-.552-.418-.687-1.398-.593m48.632.33c-2.508 1.041-1.853 3.19.697 2.282 2.683-.955 4.112-.586 4.639 1.2.219.741.001.845-2.597 1.247-3.743.578-5.184 1.962-4.877 4.684.359 3.185 3.979 4.78 6.544 2.884 1.332-.985 1.551-1.024 1.551-.272 0 .799.671 1.112 1.785.832l.959-.241-.207-4.933c-.322-7.669-2.902-10.002-8.494-7.683m31.308.234c-3.735 2.482-4.034 9.493-.503 11.806 2.388 1.565 9.256.923 8.593-.803-.13-.341-.237-.876-.237-1.188 0-.464-.158-.484-.859-.108-1.76.941-4.987.639-6.022-.564-1.933-2.247-1.466-2.603 3.419-2.603h4.352l-.233-1.961c-.559-4.724-4.832-7.023-8.51-4.579m11.954-.571l-1.172.115.078 6.511.078 6.512 1.289.014 1.29.014.109-4.784c.123-5.346.614-6.256 3.176-5.88 1.041.153 1.151.056 1.291-1.139.242-2.078-1.917-2.469-3.714-.672l-1.001 1.001-.126-.903c-.104-.748-.329-.884-1.298-.789m-186.914 3.531c0 1.837-.031 1.888-1.172 1.888s-1.172-.051-1.172-1.888.032-1.888 1.172-1.888 1.172.05 1.172 1.888m-34.403-.469c2.476 3.148.147 8.979-3.246 8.128-3.648-.916-2.811-9.157.93-9.157 1.162 0 1.691.235 2.316 1.029m121.309-.096c2.53 2.53 1.125 8.052-2.05 8.052-1.803 0-2.825-1.626-2.825-4.493 0-3.995 2.566-5.868 4.875-3.559m92.848-.286c1.651 1.493.956 2.282-2.022 2.295-2.996.014-3.244-.233-1.922-1.913.95-1.208 2.831-1.39 3.944-.382m-30.535 5.776c0 2.073-2.834 3.478-4.219 2.093-1.418-1.418.194-3.438 2.743-3.438 1.422 0 1.476.05 1.476 1.345" fill="#16375c"/><path d="M0 200v200h200 200V200 0H200 0v200M331.179 39.686c2.868 1.429 29.629 28.619 30.616 31.106.615 1.549.664 7.42.684 81.963l.021 80.295-1.037 2.08c-1.881 3.776-5.065 5.42-10.584 5.465l-3.613.03v5.345c0 6.465-.57 8.105-3.453 9.934l-1.778 1.127h-62.543-62.542l-1.778-1.127c-2.878-1.825-3.453-3.473-3.453-9.889v-5.301l-4.01-.149c-5.601-.207-8.534-2.007-10.508-6.447-1.115-2.509-.932-187.395.188-189.645.94-1.889 3.11-4.017 5.1-5.003 1.604-.793 1.962-.798 64.134-.798h62.52l2.036 1.014m-145.55 21.951c7.087 7.087 7.081 6.322.111 13.22-5.689 5.629-6.682 6.154-8.396 4.44-1.39-1.39-1.007-2.577 1.758-5.44 1.396-1.447 2.539-2.772 2.539-2.946 0-.832-15.363.082-18.866 1.123-8.052 2.391-14.067 6.828-18.33 13.52-1.13 1.775-3.039 5.595-3.039 6.082 0 .072 5.845.182 12.989.244 15.854.137 17.029.521 20.295 6.638l.896 1.677.102 68.706.102 68.705-.923 2.016c-2.205 4.816-6.094 7.238-12.13 7.554l-3.666.192 1.812 3.166c6.867 11.997 16.837 17.01 34.43 17.314l9.96.171-2.636-2.538c-3.493-3.363-3.484-6.497.018-6.497 1.771 0 11.408 9.914 11.408 11.736 0 1.726-9.691 11.702-11.369 11.702-3.513 0-3.545-3.224-.068-6.729l2.626-2.646-7.802-.012c-21.761-.034-34.789-7.119-42.483-23.105l-1.256-2.608-49.219-.126-49.219-.126-2.148-1.019c-2.658-1.261-4.761-3.289-6.158-5.939l-1.069-2.026v-68.75-68.75l.869-1.758c1.307-2.644 2.92-4.39 5.243-5.677l2.092-1.159 41.145-.195 41.145-.195 1.144-2.964c5.552-14.381 18.523-22.48 36.683-22.904l7.617-.178-2.637-2.675c-2.903-2.946-3.35-4.355-1.855-5.85 1.646-1.646 2.519-1.161 8.285 4.606M55.767 96.48c-1.965.597-3.64 1.904-4.61 3.598l-.962 1.68-.118 65.039c-.142 77.334-.42 71.777 3.737 74.625l1.402.961h55.562 55.561l1.659-1.172c.912-.645 2.026-1.875 2.475-2.734l.816-1.563.101-67.145.101-67.145-.945-2.065c-.667-1.457-1.436-2.389-2.612-3.167l-1.666-1.103-54.716-.067c-30.094-.037-55.197.079-55.785.258m161.371.297c-.474.604-.464.628.08.204.432-.337 3.112-.515 8.984-.595l8.368-.113-8.448-.09c-7.645-.081-8.499-.024-8.984.594m21.046-.408a5.51 5.51 0 0 0 1.757 0c.484-.093.088-.169-.878-.169s-1.363.076-.879.169m7.421.016c1.988.071 5.24.071 7.227 0s.361-.129-3.613-.129-5.601.058-3.614.129m30.079.002h34.57c9.507-.059 1.728-.106-17.285-.106l-17.285.106m55.664-.003c1.665.073 4.389.073 6.054 0s.303-.133-3.027-.133-4.692.06-3.027.133M342.77 175l.101 37.793v-75.586c-.056-20.786-.101-3.779-.101 37.793m-126.633-72.852c.002 1.29.075 1.77.162 1.068s.085-1.757-.004-2.344-.161-.013-.158 1.276m47.726 3.718c-.135.218-.409.296-.609.172s-.363-.039-.363.189c0 .561.437.501 1.344-.185.417-.315.559-.573.316-.573a.91.91 0 0 0-.688.397m2.3.27c.189.28.478 1.08.644 1.777.276 1.161.304 1.181.341.236.022-.567-.268-1.367-.644-1.776s-.529-.517-.341-.237m7.701.212c.517.483 1.003.736 1.079.561.15-.345-1.089-1.408-1.665-1.428-.195-.007.068.383.586.867m-48.112.586l-.947 1.074 1.172-.977c.644-.537 1.245-1.02 1.334-1.074s-.011-.098-.225-.098-.813.484-1.334 1.075m-9.546 53.808l.103 27.216V133.27c-.057-14.968-.103-2.606-.103 27.472m74.14-52.785c.261.562.606 1.023.767 1.024.533.006.305-.646-.474-1.351-.75-.679-.756-.671-.293.327m-61.635-.252c.43.105 1.045.392 1.367.638.51.388.516.357.05-.238a1.84 1.84 0 0 0-1.367-.638c-.79.043-.792.055-.05.238m9.48.84c.128.87-.007 1.199-.554 1.357-.629.182-.622.199.058.13.843-.085 1.313-1.649.685-2.277-.217-.217-.291.095-.189.79m41.057-.732l-.122.878c-.04.269.092.708.292.977.419.561 1.832.664 1.832.134 0-.195-.375-.256-.834-.136-.746.195-.815.088-.654-1.013.099-.677.035-1.231-.142-1.231s-.345.176-.372.391m-54.639 2.148c0 .537.068.977.15.977s.234-.44.337-.977.035-.977-.15-.977-.337.44-.337.977m58.39.293l-.616 1.269.801-.922c.44-.507.8-1.078.8-1.269 0-.683-.38-.327-.985.922m-16.104.879c.005.859.085 1.165.178.679s.09-1.189-.008-1.563-.174.024-.17.884m-36.931-.391c-.152.43-.386 1.045-.519 1.367-.196.475-.114.465.429-.051.368-.351.602-.966.519-1.367-.143-.689-.167-.686-.429.051m38.486.586c0 .752.08 1.06.179.684s.098-.991 0-1.367-.179-.069-.179.683m-41.023.076c.313.472.8.935 1.082 1.029.319.106.232-.213-.229-.846-.897-1.23-1.657-1.393-.853-.183m43.174-.218c-.35.556.683 1.458 1.359 1.186.326-.131.273-.212-.154-.232-.36-.017-.716-.338-.79-.714-.089-.448-.232-.531-.415-.24m-132.595 1.539c3.697 2.447 4.186 10.917.804 13.92-4.072 3.617-10.176 1.764-11.724-3.559-2.324-7.994 4.587-14.551 10.92-10.361m141.514-1.052c-.118.191.223.431.758.533 1.168.223 1.236.072.214-.475-.429-.229-.85-.254-.972-.058m-203.452.949c5.227 2.783 2.108 10.387-4.273 10.416l-1.837.009-.116 2.637-.115 2.636h-1.563-1.562l-.106-8.344-.106-8.344 4.208.159c2.981.113 4.575.355 5.47.831m8.717 2.411l1.681 3.314 1.53-2.826c2.042-3.769 2.077-3.802 4.044-3.802 2.11 0 2.21-.506-1.009 5.079l-2.72 4.718-.112 3.402-.113 3.402h-1.758-1.758l-.112-3.381c-.111-3.345-.139-3.43-2.637-7.959-3.021-5.477-2.995-5.261-.62-5.261h1.904l1.68 3.314m23.809-1.752v1.563h-2.53-2.53l-.107 6.738-.107 6.738h-1.757-1.758l-.107-6.738-.107-6.738h-2.53-2.53v-1.563-1.562h7.032 7.031v1.562m5.469 1.758v3.32h3.125 3.125v-3.341-3.342l1.855.119c1.02.065 1.811.251 1.758.412s-.098 3.907-.098 8.323v8.031l-1.66-.121-1.66-.12-.113-3.418-.113-3.418h-3.11-3.109v3.538 3.539l-1.661-.121-1.66-.12-.105-8.3-.106-8.301h1.766 1.766v3.32m36.425 1.717c1.665 2.762 3.028 5.219 3.028 5.461s.131.44.293.44.239-2.461.174-5.469l-.118-5.469h1.591 1.591l-.106 8.301-.105 8.3-1.428.119-1.427.119-3.151-5.197-3.455-5.717c-.168-.286-.305 1.999-.305 5.078v5.598h-1.562-1.563l-.106-7.801c-.125-9.158-.203-8.802 1.95-8.793l1.672.008 3.027 5.022m85.84-4.887c0 .331 1.986.503 2.181.188.115-.186-.329-.338-.986-.338s-1.195.067-1.195.15m14.942.119c.376.098.991.098 1.367 0s.068-.179-.684-.179-1.059.081-.683.179m3.906 0c.376.098.991.098 1.367 0s.068-.179-.684-.179-1.059.081-.683.179m-19.09 2.15c-.107.173.519.315 1.391.315s1.586-.069 1.586-.152c0-.313-2.79-.465-2.977-.163m44.09.194c.376.098.991.098 1.367 0s.068-.179-.684-.179-1.059.081-.683.179m-40.692.55c-.017.343-.426.814-.91 1.047s-.693.436-.465.451c.753.048 1.846-1.009 1.624-1.57-.172-.435-.225-.42-.249.072m42.45.414c-.796.838-.379.958.668.193.396-.289.561-.613.367-.719s-.659.131-1.035.526m-212.012 2.087v2.539h1.58c1.157 0 1.837-.257 2.539-.959 1.93-1.93.675-4.119-2.361-4.119h-1.758v2.539m62.226-1.952c-1.996 1.398-2.223 6.859-.362 8.72 1.998 1.998 4.66.869 5.367-2.277 1.07-4.761-1.917-8.606-5.005-6.443m102.286 1.579c.355.362.859.588 1.119.501s-.03-.383-.645-.659c-1.047-.469-1.078-.459-.474.158m2.382.837a3.19 3.19 0 0 0 1.368 0c.376-.098.068-.178-.684-.178s-1.06.08-.684.178m42.579 0c.376.099.991.099 1.367 0s.068-.178-.684-.178-1.059.08-.683.178m-31.739 5.098l77.735.004c0-.161-21.314-.251-47.364-.199l-30.371.195m81.936 22.478l.207 24.694c.059 3.008.133-5.342.166-18.554l-.207-24.694c-.146-.369-.221 7.98-.166 18.554m-105.279 6.921l.205 24.865c.259.408.249-25.254-.017-42.443-.059-3.76-.143 4.15-.188 17.578M120.83 144.1c8.98 2.365 9.87 3.984 10.171 18.5.415 19.974.097 20.3-20.052 20.608-14.274.218-14.101.191-17.456 2.659-1.121.825-2.028 2.015-2.929 3.846l-1.306 2.652v6.601 6.601l-4.496-.184c-10.002-.412-13.79-5.504-14.319-19.25-.393-10.215 2.185-16.86 7.735-19.933l2.095-1.161 15.918-.114 15.918-.114v-1.546-1.546h-9.992-9.992l.262-5.371c.415-8.518 1.271-10.161 6.132-11.779 5.435-1.808 16.355-2.038 22.311-.469m-21.983 6.212c-2.438 2.437-.888 6.329 2.52 6.329 4.725 0 5.009-6.67.311-7.3-1.454-.195-1.775-.085-2.831.971m44.824 14.212c5.297 1.362 7.992 6.774 8.526 17.117.597 11.588-1.819 18.34-7.581 21.177l-2.605 1.284-15.048.195-15.049.195-.123 1.27-.122 1.269h9.834 9.834l-.15 5.567c-.265 9.879-3.276 12.742-14.195 13.499-12.598.872-21.585-1.798-24.064-7.152-1.244-2.686-1.095-24.222.187-26.975 2.36-5.068 4.203-5.642 18.107-5.642 19.915 0 22.863-2.05 23.039-16.015l.097-6.464c.193-.207 8.113.367 9.313.675m83.985 16.376c.43.461 8.002.546 49.024.551l48.515.006-48.437-.201-49.024-.552c-.487-.291-.5-.258-.078.196m65.996 10.782c.484.093 1.275.093 1.758 0s.088-.169-.879-.169-1.362.076-.879.169m-59.914 4.412c0 2.256.065 3.178.144 2.051a35.53 35.53 0 0 0 0-4.102c-.079-1.128-.144-.205-.144 2.051m25.785 2.734c0 2.471.063 3.482.141 2.246s.077-3.257 0-4.492-.141-.225-.141 2.246m37.052-3.125c0 .752.08 1.06.179.684s.098-.991 0-1.367-.179-.069-.179.683m-66.79-.512c.376.098.991.098 1.367 0s.069-.178-.683-.178-1.06.08-.684.178m20.752.304c-.121.315-.129.799-.019 1.074s.215.119.232-.349.339-.931.715-1.029c.641-.167.64-.181-.012-.224-.383-.025-.795.213-.916.528m34.363.03c-.127.331-.121.712.013.846s.243-.038.243-.382c0-.382.418-.688 1.074-.787l1.075-.163-1.087-.059c-.66-.035-1.177.178-1.318.545m-40.278 2.131c0 .752.08 1.06.179.684s.098-.991 0-1.367-.179-.069-.179.683m14.089.782c0 1.181.073 1.665.163 1.074s.089-1.558 0-2.149-.163-.107-.163 1.075m-31.63.976c.002 1.504.073 2.071.157 1.261s.083-2.041-.003-2.734-.155-.031-.154 1.473m2.247-.316c-.017 1.33.114 2.508.292 2.618s.253-.802.166-2.027c-.224-3.161-.422-3.416-.458-.591m26.826-1.246c.103.537.254.976.337.976s.15-.439.15-.976-.152-.977-.337-.977-.252.439-.15.977m16.034-.508c.257.258.468.814.468 1.237s.109.659.242.526c.386-.385-.209-2.232-.718-2.232-.35 0-.349.113.008.469m8.173.01a4.77 4.77 0 0 1 .61 1.084c.148.399.227.32.248-.252.017-.46-.258-.948-.61-1.083-.48-.184-.542-.121-.248.251m2.748.986c.239 2.512.392 2.717.439.586.025-1.128-.095-2.051-.266-2.051s-.25.659-.173 1.465m-40.823.293c.004.859.084 1.165.178.679s.09-1.189-.008-1.563-.174.024-.17.884m54.297 0c.004.859.084 1.165.178.679s.09-1.189-.008-1.563-.174.024-.17.884m-28.486 1.953c.002 1.504.072 2.071.157 1.261s.083-2.041-.003-2.735-.156-.03-.154 1.474m-18.753.195c0 1.397.071 1.968.157 1.27s.087-1.841 0-2.539-.157-.127-.157 1.269m21.09.196c.002 1.289.075 1.769.162 1.067s.085-1.757-.004-2.344-.161-.012-.158 1.277m2.329.586c0 .966.076 1.362.169.878a5.57 5.57 0 0 0 0-1.757c-.093-.484-.169-.088-.169.879m-39.071.195c.005.859.085 1.165.178.679s.09-1.189-.008-1.563-.174.024-.17.884m16.797 1.367c.087.322.584.618 1.104.658.746.057.781.027.165-.143-.43-.118-.927-.414-1.104-.658-.213-.293-.269-.244-.165.143m14.921-.038c-.204.194-.722.437-1.152.541-.741.178-.739.19.05.233.457.025 1.05-.218 1.317-.541.53-.639.382-.8-.215-.233m-20.908.577c.497.222 1.124.222 1.621 0 .658-.294.506-.361-.81-.361s-1.469.067-.811.361m35.186-.148c-.805.257-.839.318-.196.345.43.018 1.045-.137 1.367-.345.685-.443.21-.443-1.171 0m6.924.282c.694.086 1.924.087 2.735.003s.243-.155-1.261-.157-2.167.067-1.474.154m-54.678 7.415a5.57 5.57 0 0 0 1.757 0c.484-.093.088-.169-.878-.169s-1.363.076-.879.169m3.716.005c.594.09 1.473.087 1.953-.006s-.005-.166-1.08-.163-1.467.079-.873.169m-114.883 1.506c-2.593 1.09-2.859 4.978-.427 6.236 1.567.81 2.895.709 4.065-.308 3.053-2.652.082-7.492-3.638-5.928m95.408 9.346c0 3.653.059 5.199.131 3.437s.073-4.75.001-6.64-.131-.449-.132 3.203m54.433 1.074c.191 14.345.32 15.664.403 4.102.045-6.392-.049-11.621-.21-11.621s-.248 3.383-.193 7.519m-46.303 4.59c-.041 6.553.055 12.118.213 12.367.261.412.244-12.874-.027-20.96-.062-1.827-.145 2.041-.186 8.593m-8.126 14.063c0 4.189.058 5.903.128 3.808a138.17 138.17 0 0 0 0-7.617c-.07-2.094-.128-.381-.128 3.809m21.196 2.246h19.141c5.332-.062 1.082-.112-9.446-.112l-9.695.112m11.551 8.594h61.523c16.919-.057 3.076-.103-30.761-.103l-30.762.103m-94.285 40.953c.082.072-.031.841-.252 1.708l-.4 1.577h6.013 6.014v13.184 13.183l-12.316-.086-12.316-.087-.001-12.999v-13l3.914-.111c3.807-.108 3.919-.137 4.113-1.074.679-3.281.38-2.998 2.85-2.698 1.228.148 2.299.33 2.381.403m39.109 2.113v2.735h3.565 3.565l-.171 10.253c-.215 12.928-.513 13.68-5.628 14.209l-2.38.245-.396-2.002-.396-2.002h1.532c3.273 0 3.296-.064 3.599-10.254l.206-6.934h-1.882-1.883l-.256 5.371c-.309 6.483-.858 8.97-2.705 12.251-2.31 4.107-2.186 4.029-3.984 2.5-1.529-1.302-1.54-1.329-.818-2.126.678-.749.681-.808.051-.808-.937 0-10.373 1.133-11.433 1.373-.718.162-.992-.105-1.66-1.616-.991-2.24-.995-2.492-.033-2.492.992 0 1.342-.701 2.348-4.706l1.031-3.985c.174-.589-.076-.684-1.798-.684h-2.001l.119-1.855.119-1.856h7.031 7.031v1.758 1.758l-3.084.195-3.085.196-1.299 4.492-1.31 4.571c-.025.189 4.116-.399 4.35-.618.142-.133.043-1.59-.219-3.236l-.477-2.995 1.73-.259c2.191-.329 2.208-.305 2.781 3.904.709 5.199.726 5.228 1.821 3.17 1.192-2.238 1.609-4.4 1.912-9.908l.243-4.395h-1.584-1.583v-1.758-1.757h1.562 1.563v-2.735-2.734h1.953 1.953v2.734m60.547-.781v1.562h4.492 4.492l.001 1.856.001 1.855-4.493-.121-4.493-.121-.001 1.879v1.879l5.86-.117 5.86-.118v1.973 1.973h-5.86-5.859v3.925 3.925l1.723-1.186c.947-.652 2.514-2.089 3.48-3.194l1.758-2.009 1.589 1.125c1.99 1.409 2.015 1.224-.541 3.986-3.997 4.316-9.505 7.138-16.86 8.636-5.98 1.217-6.11 1.195-6.866-1.169-.724-2.263-.852-2.15 2.823-2.487 3.752-.343 9.497-1.824 9.001-2.32-.231-.231-.404-2.3-.404-4.818v-4.414h-6.445-6.446v-1.989-1.99l2.149.134 2.149.134v-4.004l-.001-4.004h2.149 2.148v4.004l-.001 4.004 2.149-.134 2.149-.134v-5.042-5.042h2.148 2.149v1.563m-21.484 12.447c0 15.273.091 14.868-3.539 15.646-3.521.755-4.664.596-4.67-.652-.003-.591-.111-1.469-.241-1.953-.221-.824-.116-.879 1.685-.879 2.946 0 2.858.351 2.858-11.406v-10.469h-9.57-9.57v13.086 13.086h-1.962-1.961l.026-14.844.025-14.843h13.459 13.46v13.228m-46.72-10.103c-.005.966-.13 1.713-.278 1.66s-3.081-.098-6.518-.098h-6.25v-1.733-1.734l6.528.073 6.528.074-.01 1.758m41.176 4.394l-.121 1.66-7.91.106-7.91.106v-1.766V300h8.03 8.031l-.12 1.66m-81.896.879l-.067 1.758h8.206 8.207v-1.758-1.758h-8.14-8.14l-.066 1.758m80.799 8.789v5.86h-6.836-6.836v-5.86-5.859h6.836 6.836v5.859m21.032-2.914c.47.429-1.343 4.732-2.564 6.084-1.214 1.343-4.323 3.397-4.557 3.01-.042-.069-.551-.771-1.131-1.561l-1.056-1.435 1.352-.446c1.846-.61 3.227-2.37 3.551-4.527l.267-1.786 2.002.269c1.101.148 2.063.324 2.136.392m-101.817 1.645l.134 1.855 8.099.106 8.099.105v-1.961-1.961h-8.234-8.233l.135 1.856m71.019 1.269v2.344h2.93 2.93v-2.344-2.344h-2.93-2.93v2.344m-70.898 6.25v1.953h8.105 8.106v-1.953-1.953h-8.106-8.105v1.953m-45.052 23.213c-.007 3.951.052 4.109 1.158 3.108.384-.348 1.486-.721 2.448-.829 4.541-.512 5.31.73 5.312 8.59l.001 5.762h-1.562-1.563v-5.078c0-6.623-1.427-8.348-4.658-5.63l-1.201 1.012v4.848 4.848h-1.563-1.562v-10.133-10.132l1.464-.122c.806-.066 1.525-.09 1.599-.053s.13 1.752.127 3.809m62.885-2.119l-.135 1.953h1.405c1.238 0 1.405.116 1.405.977 0 .855-.17.976-1.368.976-1.36 0-1.367.009-1.367 1.758s.007 1.758 1.367 1.758c1.198 0 1.368.121 1.368.976 0 .869-.163.977-1.47.977h-1.47l-.808 3.145-.808 3.145 1.204-.118c1.195-.117 1.202-.132 1.078-2.168-.119-1.943-.076-2.051.818-2.051.907 0 2.257 6.05 1.591 7.128-.339.548-1.307.297-1.307-.338 0-.549-.375-.597-2.846-.365l-2.845.266-.433-1.099c-.426-1.079-.435-1.068-.475.56-.093 3.72-4.293 4.666-4.333.977-.004-.283.486-.488 1.166-.488h1.172v-2.69-2.69l-1.172-.172c-1.13-.166-1.172-.119-1.172 1.343 0 1.86-1.122 6.943-1.533 6.943-1.033 0-1.638-1.524-1.187-2.992.264-.857.547-5.223.661-10.192l.199-8.691h3.079 3.078v8.232c0 7.551.055 8.221.667 8.103 1.235-.238 2.459-5.788 1.276-5.788-.562 0-.771-.265-.771-.977 0-.781.195-.976.977-.976.897 0 .976-.143.976-1.758s-.079-1.758-.976-1.758c-.782 0-.977-.195-.977-.976s.195-.977.977-.977c.911 0 .976-.13.976-1.953 0-1.87.046-1.953 1.074-1.953 1.047-.001 1.071.049.939 1.953m24.664.098l-.023 1.855h4.837 4.837v1.172 1.172h-3.906c-2.148 0-3.906.078-3.906.173 0 1.066 4.584 7.165 6.72 8.938l1.654 1.374-.608 1.283-.608 1.283-1.88-1.935c-2.115-2.175-4.549-5.368-5.916-7.759l-.915-1.599-.005 4.003-.005 4.004h2.344c2.24 0 2.344.044 2.344.977s-.104.977-2.344.977h-2.344v2.539 2.539h-1.172-1.171v-2.539-2.539h-2.735c-2.656 0-2.734-.028-2.734-.977s.078-.977 2.734-.977h2.735v-4.322-4.323l-2.309 3.444c-1.27 1.894-3.308 4.544-4.53 5.89l-2.221 2.447-.744-.946c-.975-1.241-1.069-1.02 1.527-3.623 1.249-1.253 3.194-3.596 4.323-5.207l2.054-2.93-4.129-.111-4.128-.111v-1.158-1.159h5.108 5.108l-.066-1.66c-.093-2.338-.105-2.311 1.051-2.175.973.116 1.044.253 1.023 1.98m-15.349 7.249c0 8.74-.086 9.15-2.03 9.6-.771.179-1.161.061-1.453-.441-.301-.517-.402-.036-.411 1.951-.012 2.549-.045 2.637-.989 2.637h-.976v-10.938-10.937h2.93 2.929v8.128M65.501 339.04c6.029 2.737 3.19 10.805-3.964 11.264l-2.829.182.026 1.222c.013.672-.012 2.232-.058 3.468l-.082 2.246h-1.689-1.688l.028-9.569.028-9.569 4.297.007c3.376.006 4.647.166 5.931.749m159.035.706l.123 1.27h-3.931-3.931v2.734 2.734h3.516 3.515v1.368 1.367h-3.501-3.502l-.112 3.768-.111 3.768-1.466.041-1.465.04.001-9.216v-9.216l5.371.036 5.371.037.122 1.269m59.754 4.395l1.918 6.25c.11.323.434-.29.722-1.368s1.192-3.886 2.011-6.25l1.489-4.296 2.057-.056 2.058-.056-.104 9.209-.105 9.209-1.367-.002-1.367-.003.005-7.213.006-7.214-1.959 5.875-1.959 5.876-1.44.119-1.441.12-1.627-5.198-1.89-5.913c-.145-.394-.194 2.283-.11 5.949.177 7.725.165 7.789-1.463 7.55l-1.208-.177v-9.166-9.167l2.028.129 2.028.13 1.718 5.663m-193.665-2.735v1.953h1.953c1.91 0 1.953.026 1.953 1.172s-.043 1.172-1.953 1.172h-1.953v4.024c0 4.542.204 4.961 2.422 4.961 1.832 0 2.339 2.414.605 2.878-4.61 1.236-6.152-.618-6.152-7.396v-4.467h-1.172c-1.042 0-1.172-.13-1.172-1.172s.13-1.172 1.172-1.172c1.126 0 1.172-.068 1.172-1.73 0-1.484.125-1.755.879-1.9 2.205-.425 2.246-.394 2.246 1.677m63.281 0c0 1.91.026 1.953 1.172 1.953s1.172-.043 1.172-1.953-.026-1.953-1.172-1.953-1.172.044-1.172 1.953m115.059 2.344c1.671 0 1.738.045 1.738 1.172s-.065 1.172-1.758 1.172h-1.757v3.883c0 4.181.162 4.533 2.03 4.391.868-.066 1.127.117 1.334.942.324 1.291-.283 1.707-2.503 1.715-3.025.011-3.596-1.009-3.596-6.421v-4.51h-1.172c-1.041 0-1.172-.13-1.172-1.172s.131-1.172 1.172-1.172c1.128 0 1.172-.066 1.172-1.747 0-1.642.076-1.766 1.27-2.077l1.269-.331.117 2.078.117 2.077h1.739m45.808-1.519l-.145 1.519h1.892c2.89 0 2.696 2.081-.211 2.267l-1.856.12v3.078c0 4.153.383 5.082 2.095 5.082 1.651 0 2.372 2.101.861 2.507-4.112 1.104-5.446-.36-5.631-6.181-.142-4.476-.155-4.529-1.078-4.529-.778 0-.934-.197-.934-1.172 0-.99.152-1.172.976-1.172.894 0 .977-.146.977-1.719 0-1.663.047-1.73 1.465-2.071 1.675-.403 1.823-.191 1.589 2.271m10.832 1.519c1.671 0 1.739.045 1.739 1.172s-.065 1.172-1.758 1.172h-1.758v3.883c0 4.162.135 4.457 2.009 4.404 1.286-.037 2.078 1.658 1.071 2.296-1.158.733-3.853.398-4.855-.605-.908-.907-.959-1.201-.959-5.468v-4.51h-1.172c-1.042 0-1.172-.13-1.172-1.172s.13-1.172 1.172-1.172c1.127 0 1.172-.066 1.172-1.747 0-1.642.076-1.766 1.269-2.077l1.27-.331.117 2.078.117 2.077h1.738m-156.855 2.762v6.667l.879-.124c.866-.124.88-.217.986-6.668l.107-6.543h-.986-.986v6.668m-109.893-2.274l.068 3.223 1.923-.014c2.837-.019 3.996-.916 3.996-3.092 0-2.322-1.236-3.339-4.057-3.34h-1.998l.068 3.223m64.105-.493c4.293 1.949 4.349 10.621.085 13.08-4.908 2.829-10.156-.576-10.156-6.589 0-5.883 4.715-8.922 10.071-6.491m9.737.005c-.112.43-.116.781-.009.781s.642-.351 1.188-.781c.688-.541 1.584-.781 2.919-.781 4.03 0 4.609 1.102 4.609 8.769v5.684h-1.562-1.563v-4.991c0-6.609-.906-7.895-4.316-6.132l-1.152.596v5.263 5.264h-1.758-1.758v-6.966c0-7.75-.072-7.487 2.064-7.487 1.35 0 1.517.097 1.338.781m-57.335 4.347l1.731 4.736 1.639-4.639 1.639-4.639 1.61-.12c2.003-.15 2.034-.498-.56 6.412-3.197 8.517-4.416 11.312-5.275 12.089-.995.901-5.052 1.313-5.06.515-.003-.295-.111-.932-.24-1.416-.213-.791-.097-.879 1.162-.879 1.434 0 2.754-.986 3.2-2.389.12-.38-.597-2.678-1.594-5.107l-2.736-6.859-.923-2.442 1.838.001 1.838.001 1.731 4.736m154.937-3.824c1.576-1.576 3.879-1.191 3.879.649 0 1.312-.052 1.362-1.29 1.238-2.729-.274-3.165.503-3.288 5.866l-.11 4.758-1.282-.001h-1.283l-.084-6.499-.085-6.5 1.172-.114c.945-.093 1.195.047 1.291.724.119.833.126.833 1.08-.121m14.539.124c4.584 3.36 2.701 11.912-2.757 12.527-4.427.5-6.731-1.793-6.731-6.698 0-5.821 5.168-8.996 9.488-5.829m8.703-.086c1.421-1.286 4.354-1.214 5.874.143l1.325 1.184v5.571 5.57l-1.367.003-1.367.002-.11-4.832c-.121-5.283-.336-5.858-2.195-5.858-2.647 0-2.969.65-2.969 5.998v4.782l-1.367-.159-1.367-.16v-6.378-6.378l1.27-.122c.98-.094 1.298.041 1.398.593.123.68.167.682.875.041m52.316-.267c1.938.968 2.303 2.066 2.537 7.646l.207 4.933-.959.241c-1.114.28-1.785-.033-1.785-.832 0-.752-.219-.713-1.551.272-2.565 1.896-6.185.301-6.544-2.884-.307-2.722 1.134-4.106 4.877-4.684 2.598-.402 2.816-.506 2.597-1.247-.527-1.786-1.956-2.155-4.639-1.2-1.198.427-1.618.445-1.85.081-1.438-2.263 3.805-3.978 7.11-2.326m31.013-.092c1.598.758 2.555 2.394 2.848 4.868l.233 1.961h-4.352c-4.885 0-5.352.356-3.419 2.603 1.035 1.203 4.262 1.505 6.022.564.701-.376.859-.356.859.108 0 .312.107.847.237 1.188.663 1.726-6.205 2.368-8.593.803-6.233-4.084-.53-15.272 6.165-12.095m8.717.409c1.797-1.797 3.956-1.406 3.714.672-.14 1.195-.25 1.292-1.291 1.139-2.562-.376-3.053.534-3.176 5.88l-.109 4.784-1.29-.014-1.289-.014-.078-6.512-.078-6.511 1.172-.115c.969-.095 1.194.041 1.298.789l.126.903 1.001-1.001m-191.683 2.84c0 1.837.032 1.888 1.172 1.888s1.172-.051 1.172-1.888-.031-1.888-1.172-1.888-1.172.05-1.172 1.888m-36.69-.469c-2.61 3.318.055 9.377 3.497 7.952s2.448-8.981-1.182-8.981c-1.161 0-1.691.235-2.315 1.029m122.024-.07c-2.213 2.213-.861 8.026 1.866 8.026 1.392 0 2.574-1.043 3.074-2.711 1.277-4.262-2.225-8.03-4.94-5.315m92.82.07c-1.322 1.68-1.074 1.927 1.922 1.913 2.509-.011 2.733-.079 2.735-.831.005-2.123-3.244-2.878-4.657-1.082m-30.411 4.657c-1.61 1.128-.902 3.299 1.077 3.299 1.644 0 2.743-1.027 2.743-2.562 0-1.551-2.083-1.953-3.82-.737" fill="#bbe1fb"/><path d="M331.349 58.398c.004.86.084 1.165.177.679s.09-1.189-.008-1.562-.174.024-.169.883m12.01.416c0 .205.367.602.814.881.462.289.721.752.599 1.071-.119.309-.036.562.185.562s.293.176.16.391c-.352.569.027.478.53-.127.329-.397.112-.826-.929-1.835-.747-.724-1.359-1.149-1.359-.943M215.82 60.623c-1.589.902-1.845 2.571-.586 3.83.774.773 1.302.781 51.563.781s50.789-.008 51.562-.781c1.091-1.09.989-2.514-.248-3.487l-1.029-.81-50.24.012-51.022.455m116.161 5.1c-.266.515-.087 2.176.228 2.121.224-.039.41.225.413.585s.163.801.356.977.235.12.086-.141.122-.732.61-1.074c.481-.337.748-.635.593-.662a11.34 11.34 0 0 1-.673-.146 7.73 7.73 0 0 0-.805-.147c-.227-.027-.288-.251-.135-.499.186-.301.106-.344-.238-.132-.376.232-.449.142-.268-.33.195-.51.053-.98-.167-.552m18.65 1.292c-.127.332-.076.508.114.39s.446.05.569.371.493.583.822.583.95.352 1.38.782.781.595.781.367.179-.303.397-.168.278.453.133.707-.121.331.055.171.599-.079.941.179.025-.175-.705-.961-1.433-1.417-1.563-1.402c-1.083.125-1.992-.162-1.992-.628 0-.82-.661-1.097-.932-.391m-15.859 1.66c-.004.582-.167.803-.457.624-.282-.174-.345-.107-.169.178.156.252.476.338.713.192.272-.168.343-.04.194.35-.197.512-.05.561.881.295.614-.177 1.188-.249 1.276-.161s.16-.095.16-.405c0-.42-.178-.47-.693-.195-.445.239-.778.231-.934-.021-.133-.215.032-.391.367-.391s.609-.195.609-.433-.285-.323-.653-.182c-.359.138-.795.025-.97-.251-.217-.342-.32-.215-.324.4m-82.986 6.211c-32.716.108-35.972.175-36.621.763-1.455 1.316-.535 4.037 1.367 4.04l37.374.011 36.524.01.683-.836c1.457-1.78.388-3.819-2.1-4.007-.725-.054-17.477-.046-37.227.019m-40.267 92.497l.102 34.442v-69.141c-.056-18.943-.102-3.329-.102 34.699m4.297 7.031l.102 37.567V136.59c-.056-20.662-.102-3.641-.102 37.824m49.159-63.476c0 1.611.069 2.27.153 1.464s.085-2.124 0-2.929-.153-.147-.153 1.465m-40.182 41.21l.109 12.236v-24.219c-.06-6.729-.109-1.337-.109 11.983m100.78-.585l.11 10.644v-21.289c-.06-5.855-.11-1.064-.11 10.645m-41.404-3.809l-2.724 2.832 2.832-2.724c1.558-1.498 2.832-2.773 2.832-2.832 0-.287-.41.094-2.94 2.724m7.255-1.259c.409.253-.961.916-1.678.813-.161-.023-.249.111-.195.299s-2.334 2.831-5.306 5.875-5.274 5.307-5.114 5.03c.17-.295.143-.369-.064-.179a1.3 1.3 0 0 0-.374.782c-.01.25-.242.407-.517.348s-.401.053-.28.249-.075.595-.436.888c-.565.458-.61.451-.319-.053.214-.373.032-.318-.502.15-.462.404-.728.915-.593 1.134s.074.292-.138.161-1.337.765-2.502 1.99l-2.117 2.227 1.953-1.757 1.953-1.757-1.741 1.856c-.958 1.02-1.941 1.855-2.186 1.855s-.779.382-1.188.849-.538.728-.287.582c.272-.158 1.052.489 1.926 1.597.809 1.024 2.009 2.227 2.668 2.672s1.155 1.014 1.101 1.265.114.413.373.359.479.166.488.489.282.594.604.603.542.23.488.489.114.426.373.373.479.166.489.488c.015.514 2.809.587 22.674.599 12.726.008 18.975-.083 14.257-.207l-8.398-.22 8-.086 8-.086-3.673-3.689c-2.02-2.028-3.862-3.654-4.094-3.613s-.372-.157-.313-.442-.037-.428-.213-.319c-.337.208-7.37-7.141-7.242-7.567.041-.137-2.047-2.345-4.641-4.907s-4.572-4.395-4.395-4.072c.277.503.23.511-.334.053-.361-.293-.544-.716-.405-.939s.064-.291-.173-.145-1.176-.612-2.111-1.697c-.928-1.078-1.951-1.962-2.273-1.966-.454-.005-.473-.078-.083-.326.324-.205.075-.319-.698-.319-.662 0-1.006.122-.764.271m11.896 10.146c2.141 2.148 3.804 3.906 3.697 3.906s-1.947-1.758-4.087-3.906-3.804-3.907-3.697-3.907 1.947 1.758 4.087 3.907m-45.661 7.098c.128.207-.089.32-.482.252s-.718.069-.723.304c-.01.496-4.501 4.695-4.501 4.209 0-.179-1.661 1.329-3.691 3.351-3.875 3.859-4.07 4.277-2.048 4.381.805.041.484.157-.901.327-1.182.144 4.707.251 13.085.237l15.235-.026-13.086-.211-13.086-.212 12.429-.089 12.429-.09-.838-1.177c-.461-.647-1.027-1.059-1.259-.916s-.315.09-.186-.119-2.084-2.653-4.918-5.432-3.924-3.728-2.421-2.11l2.733 2.941-2.984-2.941c-2.563-2.527-5.819-4.349-4.787-2.679m-123.11 4.667c.544 8.813-1.554 13.819-6.991 16.684l-1.972 1.039-13.086.197c-15.76.238-16.537.452-19.085 5.276l-1.032 1.953v12.109c0 13.379-.032 13.188 2.598 15.759 3.313 3.24 8.332 4.535 17.519 4.522 14.854-.021 18.164-2.417 18.638-13.488l.232-5.426h-9.826-9.825v-1.545-1.546l15.527-.115 15.527-.114 2.007-1.059c5.295-2.792 7.179-7.688 7.166-18.623-.016-14.712-3.18-19.469-13.226-19.885l-4.445-.184.274 4.446m183.615-2.39c1.058 1.074 2.012 1.953 2.119 1.953s-.67-.879-1.728-1.953-2.012-1.953-2.119-1.953.67.878 1.728 1.953m-66.211 2.84c0 .058-1.626 1.684-3.613 3.613l-3.613 3.508 3.507-3.614c3.258-3.356 3.719-3.791 3.719-3.507m66.992 3.8c1.709 1.719 3.019 3.125 2.912 3.125s-1.594-1.406-3.302-3.125-3.019-3.125-2.912-3.125 1.594 1.407 3.302 3.125m-51.367-1.367c.729.752 1.237 1.367 1.13 1.367s-.792-.615-1.52-1.367-1.238-1.367-1.13-1.367.791.615 1.52 1.367m32.299 5.175a486.78 486.78 0 0 1-13.672 0c-3.692-.064-.56-.116 6.959-.116s10.54.052 6.713.116m-68.515.388c1.243.077 3.177.077 4.297-.002s.103-.142-2.261-.141-3.279.065-2.036.143m28.502 17.093c.004.86.084 1.165.178.679s.09-1.189-.008-1.562-.174.024-.17.883m28.71 9.456c.484.093 1.275.093 1.758 0s.088-.17-.879-.17-1.362.077-.879.17m-165.013 9.145c4.262 2.179 1.782 8.672-2.612 6.836-2.848-1.19-3.403-3.803-1.262-5.944 1.387-1.387 2.435-1.628 3.874-.892m111.791 3.361c16.981.272 31.354.277 31.189.011-.099-.161-8.652-.253-19.005-.205l-12.184.194m-10.57 11.632c0 6.445.054 9.137.119 5.981s.066-8.429.001-11.719-.119-.707-.12 5.738m41.792-1.953c0 4.941.056 6.909.124 4.372s.068-6.579 0-8.984-.125-.329-.124 4.612m3.909 2.734c0 5.801.055 8.229.121 5.395a278.77 278.77 0 0 0 .001-10.547c-.067-2.967-.121-.648-.122 5.152m-15.844-1.562c-.027.107-.071.338-.098.513s-.907 1.274-1.957 2.442-1.668 1.771-1.374 1.342c.527-.771.523-.772-.329-.046-.474.405-.752.915-.616 1.135s.067.288-.152.152-.73.142-1.135.617c-.726.851-.726.855.045.318.43-.3.12.112-.688.915-1.303 1.294-1.71 2.624-.591 1.933.236-.146.312-.082.172.145s.044.646.405.939c.564.457.614.45.354-.054-.167-.322.255.008.939.732l1.243 1.318 7.157.05c7.704.053 8.439-.184 6.257-2.018-.771-.648-.777-.644-.208.134.322.441.027.184-.656-.571s-1.17-1.488-1.083-1.628-.19-.57-.614-.955-.772-.544-.772-.356-.307-.091-.681-.623-.682-1.098-.684-1.26-.982-1.217-2.18-2.344-1.725-1.698-1.172-1.269c.907.703.893.655-.142-.488-1.16-1.283-1.352-1.426-1.44-1.073m-17.551 6.347l-1.346 1.465 1.465-1.346c1.363-1.253 1.644-1.583 1.346-1.583-.065 0-.724.659-1.465 1.464m2.055 2.966c-.708.695-1.147 1.417-.977 1.605s.116.229-.121.094-.852.216-1.367.782-.675.875-.355.689 1.11-.295 1.757-.242c3.074.253 6.904.279 7.047.048.231-.374-1.652-1.923-1.962-1.613-.144.144-.203.06-.131-.185.118-.405-1.942-2.511-2.409-2.462-.107.011-.774.589-1.482 1.284" fill="#ebc65d"/><path d="M205.469 43.035c-1.676.473-3.432 2.051-4.15 3.73-.452 1.055-.538 15.954-.538 92.915v91.659l.864 1.537c1.295 2.303 2.982 3.165 6.611 3.375l3.062.177.103-69.679c.116-78.738-.226-70.802 3.166-73.544l1.501-1.213L279 91.891l62.912-.101 1.69.99a8.34 8.34 0 0 1 2.682 2.684l.992 1.693.092 69.488.093 69.488 3.402-.009c3.684-.01 4.651-.42 6.339-2.681l.806-1.078.1-78.271.101-78.27-11.819-.119c-13.304-.134-13.737-.22-16.877-3.348-3.151-3.139-3.131-3.034-3.264-17.181l-.117-12.598-59.648.035-61.015.422m125.484 12.887l.102 10.804 1.207 1.5c2.112 2.624 2.289 2.659 14.027 2.788 9.313.102 10.456.049 9.77-.454-.427-.313-.938-.469-1.135-.348s-.229.014-.072-.24c.179-.291-4.207-4.974-11.857-12.658l-12.143-12.197.101 10.805m.573 3.155c-.093.486-.173.181-.177-.679s.072-1.256.169-.883.102 1.077.008 1.562m14.121 2.515c-.503.605-.882.696-.53.127.133-.215.061-.391-.16-.391s-.304-.253-.185-.562c.122-.319-.137-.782-.599-1.071-.447-.279-.814-.676-.814-.881s.612.219 1.359.943c1.041 1.009 1.258 1.438.929 1.835m-27.536-.626c1.237.973 1.339 2.397.248 3.487-.773.773-1.302.781-51.562.781s-50.789-.008-51.563-.781c-.787-.787-1.013-2.178-.482-2.963.875-1.292 1.566-1.31 52.09-1.322l50.24-.012 1.029.81m14.037 5.309c-.181.472-.108.562.268.33.344-.212.424-.169.238.132-.153.248-.092.472.135.499a7.73 7.73 0 0 1 .805.147 12.73 12.73 0 0 0 .66.146c.149.027-.071.299-.488.604-.825.603-2.492-1.208-1.938-2.105.39-.631.596-.472.32.247m19.415 1.131c0 .309.324.563.72.563.81 0 2.28 1.426 1.881 1.825-.142.142-.258.044-.258-.218s-.615-.732-1.367-1.046-1.367-.756-1.367-.98-.174-.301-.386-.17c-.221.137-.287-.019-.155-.365.271-.706.932-.429.932.391m-15.497 1.12c.368-.141.653-.061.653.182s-.274.433-.609.433-.5.176-.367.391c.156.252.489.26.934.021.491-.262.693-.228.693.117 0 .267-.498.524-1.107.571s-1.107-.105-1.107-.336-.163-.319-.363-.195-.491.019-.647-.233c-.176-.285-.113-.352.169-.178.29.179.453-.042.457-.624.004-.615.107-.742.324-.4.175.276.611.389.97.251m-45.002 7.104c.919.831.939 2.157.049 3.244l-.683.836-36.524-.01-37.374-.011c-1.902-.003-2.822-2.724-1.367-4.04.649-.588 3.905-.655 36.621-.763 40.074-.131 38.273-.166 39.278.744m-64.862 20.765c-5.898.074-8.543.247-8.961.586-.49.396-.537.378-.266-.106.243-.436.21-.478-.132-.165-.75.688-.663 154.292.088 155.042.305.305.663.446.796.313s.242-.081.242.116c0 .659 123.394.262 124.055-.399 1.036-1.036 1.005-153.778-.032-154.658-.747-.635-82.491-1.15-115.79-.729m28.017 5.636c.879.88.589 2.918-.41 2.883-1.474-.052-2.272-2.57-.814-2.57.311 0 .458-.176.325-.391-.338-.547.332-.489.899.078m-23.75 3.902c0 .2.144.274.321.165.589-.364 1.444 1.11 1.561 2.691.064.859.197 1.845.297 2.191.23.793-2.071 3.099-2.809 2.816-.298-.114-.542-.042-.542.16s-.256.367-.569.367-.468-.163-.344-.363-.096-.302-.486-.226c-.894.172-2.507-1.402-2.507-2.447 0-.432-.176-.678-.391-.545-.222.137-.391-.191-.391-.758 0-.55.205-1 .456-1s.34-.115.199-.257-.039-.526.228-.856c.402-.497.385-.542-.101-.262-.341.196-.259-.037.195-.557 1.128-1.291 4.883-2.151 4.883-1.119m8.931.089c.248.153.776.175 1.173.049 1.134-.36 1.756.684.773 1.298-.442.276-.686.312-.544.082s.055-.42-.196-.42c-.28 0-.347.263-.174.684.58 1.407.663 2.051.265 2.051-.226 0-.52.348-.655.773s-.367.756-.515.735c-.733-.104-1.774.139-1.341.314.27.108.391.358.27.555-.19.306 1.314.564 2.296.394.177-.031.21.125.073.347s-.006.496.291.61c.362.139.481.618.359 1.449-.189 1.287-.967 2.388-1.389 1.965-.133-.133-.242-.042-.242.202s-.264.342-.586.219-.586-.03-.586.207-.527.433-1.172.433-1.172-.171-1.172-.379-.266-.276-.591-.151c-.681.261-1.849-.561-1.53-1.077.118-.191.047-.346-.156-.346-.638 0-.298-1.337.519-2.038.43-.369.6-.677.378-.684-.474-.015-.468-1.825.008-2.256.179-.163.182-.049.007.253-.216.372-.171.457.139.266.252-.156.355-.449.229-.653s-.422-.25-.659-.104c-.276.171-.341.034-.18-.384.137-.358.101-.65-.08-.65-.495 0-.402-2.107.107-2.428a1.09 1.09 0 0 0 .46-.781c.009-.276.229-.458.488-.405s.471-.04.471-.21c0-.374 2.832-.309 3.462.08m14.604-.207c.586.038.684.461.684 2.974v2.93h1.145c1.06 0 2.055 1.226 1.47 1.811-.397.397-6.483.521-6.72.137-.536-.868.238-1.948 1.396-1.948 1.115 0 1.146-.054 1.146-1.953 0-1.665-.111-1.953-.749-1.953-1.251 0-1.985-.437-1.985-1.182 0-.821.583-1.11 1.953-.964.537.057 1.284.123 1.66.148m6.313-.11c.339.13.516.438.394.684s.062.095.41-.334.756-.72.908-.645.573.295.936.489c.398.213.749.209.885-.011.361-.585 2.24-.209 2.802.56.488.668.602 6.53.135 6.957-1.593 1.456-2.71-.827-1.982-4.054.271-1.203.214-1.388-.443-1.438-.695-.052-.742.17-.602 2.838.152 2.864-.023 3.312-1.292 3.312-.197 0-.359-1.308-.359-2.907s-.14-2.993-.311-3.099c-.771-.477-1.22.565-1.329 3.083-.096 2.223-.242 2.743-.801 2.849-.616.118-.684-.274-.684-3.934 0-4.502.099-4.824 1.333-4.35m14.06.423c1.735.97.724 8.434-1.016 7.503-.488-.261-.705-.24-.705.069 0 .245-.242.353-.538.24s-.761-.001-1.034.251c-.386.357-.426.336-.182-.092.24-.42.118-.499-.515-.333-.509.133-.796.043-.745-.232.047-.246-.148-.4-.433-.341s-.406-.073-.27-.293.062-.4-.166-.4c-.677 0-.469-2.017.27-2.623.376-.308.437-.432.135-.275-.352.182-.453.129-.281-.15.148-.238.527-.334.842-.213s.574.064.574-.125.703-.279 1.562-.197c1.013.097 1.563-.01 1.563-.305 0-.25-.206-.328-.458-.173-.297.184-.378.078-.231-.305.177-.462-.093-.582-1.269-.561-.822.014-1.4.179-1.284.367s-.162.142-.618-.102c-.985-.528-1.016-.733-.236-1.594.668-.738 3.795-.81 5.035-.116m8.175-.163c-.154.249.145.324.798.199 1.323-.253 1.688.31.821 1.268-.389.429-.566 1.018-.42 1.398.294.767-.8 2.63-1.346 2.292-.206-.127-.374-.061-.374.147s-.379.277-.842.156c-.547-.143-.751-.072-.581.203.143.232-.049.508-.427.614s.146.104 1.167-.003c1.243-.13 1.855-.047 1.855.252 0 .245.176.337.391.204s.39.033.39.368.156.609.345.609c.785 0 .224 2.54-.646 2.925-.479.212-.87.514-.87.671s-.246.191-.547.076-.662-.022-.804.207-.785.418-1.43.418c-.682 0-1.071-.164-.93-.391.136-.221-.184-.39-.736-.39-1.654 0-2.472-2.861-.955-3.342.521-.166.638-.381.377-.695-.47-.567-.47-1.044-.001-1.921.244-.457.224-.683-.062-.683-.235 0-.319-.176-.186-.391s.066-.39-.148-.39c-.482 0-.433-1.583.07-2.246.203-.269.238-.489.078-.489s-.074-.261.192-.581.626-.493.802-.385.403.063.506-.102.99-.321 1.972-.348c1.126-.03 1.696.099 1.541.35m9.034-.02l.899 1.308c1.101 1.598.776 3.532-.51 3.038-.318-.122-.848.001-1.176.274-.453.375-.707.386-1.05.043-.249-.248-.812-.438-1.253-.421s-.591.116-.334.221.376.424.266.711.015.654.278.816c.303.188.377.133.201-.151-.178-.289-.062-.365.328-.215.332.127.507.389.388.581s.146.35.588.35.805-.176.805-.391c0-.517 1.446-.503 1.768.017.377.61-.467 1.422-1.741 1.677-2.341.468-5.402-1.248-4.84-2.713.175-.456.111-.581-.199-.389-.293.181-.457-.007-.457-.522 0-.442.187-.804.415-.804s.361-.317.296-.705c-.123-.725 1.155-3.027 1.493-2.69.104.104.661.056 1.239-.106.935-.263 2.399-.223 2.596.071m-54.77 1.575c.054.268-.122.444-.39.39s-.488.264-.488.707.175.695.39.563.391.016.391.331c0 .388.262.503.817.358.64-.167.783-.451.657-1.31-.095-.648-.005-1 .219-.861.211.13.256.034.102-.216-.376-.608-1.82-.577-1.698.038m42.939.875c-.083 1.238-.001 1.356.888 1.283 1.295-.107 1.554-.918.598-1.874-1.087-1.087-1.38-.971-1.486.591m9.698-1.021c0 .241-.299.439-.664.439-.887 0-.148.744.948.956.565.108.875-.085 1.019-.634.114-.435.103-.687-.024-.56s-.466.035-.755-.204c-.385-.32-.524-.319-.524.003m-61.764.439c-.024.107-.016.546.018.976.052.65-.005.683-.34.195-.329-.479-.403-.422-.408.315-.003.495.498 1.438 1.113 2.097l1.118 1.197.531-1.199c.352-.795.631-1.041.828-.73.182.285.301.074.304-.54.004-.555-.125-1.141-.287-1.302s-.293-.482-.293-.712c0-.404-2.493-.692-2.584-.297m43.292 2.586c-.106.106-.108.518-.004.916.235.898 1.679 1.362 1.679.539 0-.314.176-.463.391-.331s.391-.061.391-.432-.106-.568-.236-.439-.639.082-1.132-.105-.983-.254-1.089-.148m-22.189 2.98c.444 1.189-.095 1.452-2.482 1.209-3.824-.389-4.007-1.565-.279-1.8 1.216-.077 2.261-.174 2.321-.214s.259.322.44.805m-11.39.971c-2.043.161-2.235.419-1.084 1.461.974.882 3.135.182 3.135-1.015 0-.403-.044-.702-.098-.663s-.932.136-1.953.217m41.331.689c.04.43.271.737.513.684s.442.078.442.293.351.39.781.39.781-.194.781-.432.227-.345.504-.239c.306.117.532-.136.573-.642.061-.746-.13-.835-1.799-.835-1.631 0-1.858.099-1.795.781m46.658 8.022c0 .226.219.375.488.331.877-.143 2.637.793 2.637 1.403 0 .328.186.596.413.596s.315.16.193.357 0 .431.27.521c.803.267.884 50.129.083 51.352-.323.492-.496.895-.385.895s-.175.433-.636.963-.987.871-1.169.758-.332-.008-.332.232-.176.328-.39.195-.391-.099-.391.075-21.929.314-48.731.312l-48.73-.004 48.047.204 48.047.203-48.372-.004-48.866-.682c-.273-.373-.654-.549-.848-.391s-.222.127-.062-.068c.386-.473-.463-1.463-.98-1.143-.224.138-.296.071-.16-.149s-.1-.802-.525-1.292c-.917-1.057-1.25-49.6-.341-49.6.238 0 .326-.277.197-.615s.029-.881.354-1.206 1.035-1.172 1.577-1.883c.7-.917 1.209-1.235 1.752-1.093.421.11.766.007.766-.23 0-.31 13.334-.432 48.047-.439l48.047.402m-96.224 4.543c-.144.143-.261 11.218-.261 24.61v24.349h4.42 4.42l8.12-7.715c12.525-11.901 13.005-12.058 18.583-6.095l2.476 2.647 11.362-11.575c12.142-12.371 12.336-12.52 15.41-11.844.88.193 5.051 4.171 16.421 15.662l15.355 15.404c.191 0-.023-44.263-.218-45.007-.187-.714-95.378-1.146-96.088-.436m21.569 10.264c6.244 3.185 6.295 12.22.088 15.43-6.356 3.287-13.811-3.176-11.633-10.085 1.578-5.006 7.151-7.587 11.545-5.345m-5.228 3.52c-4.411 1.825-3.314 8.612 1.393 8.612 3.042 0 4.662-1.604 4.662-4.619 0-3.067-3.197-5.175-6.055-3.993m45.703 5.083c-.783.322-13.419 12.973-14.059 14.076-.187.322 2.818-2.651 6.677-6.608 8.497-8.713 8.176-8.593 12.033-4.492 1.398 1.486 2.549 2.601 2.559 2.478.112-1.483-5.867-6.005-7.21-5.454m14.29 12.709l8.092 8.398c.898.967 1.633 1.582 1.632 1.367s-3.641-3.994-8.091-8.398c-7.648-7.57-7.737-7.645-1.633-1.367m-32.529 5.477c-1.008.962-1.704 1.749-1.546 1.749s1.063-.791 2.012-1.758c2.223-2.266 1.912-2.26-.466.009m-138.853-.382c-.127.331-.122.712.012.846s.244-.036.244-.379.308-.703.684-.801c.64-.167.639-.181-.013-.224-.382-.025-.8.226-.927.558m116.331 5.736l-6.667 6.446c-.09.058.701.082 1.757.054 1.679-.045 1.76-.082.641-.293l-1.279-.241 5.186-5.111c2.852-2.811 5.77-5.579 6.485-6.152s1.093-1.042.84-1.042-3.386 2.853-6.963 6.339m9.316-6.232c0 .059 1.362 1.422 3.027 3.028l3.027 2.92-2.92-3.028c-2.712-2.812-3.134-3.205-3.134-2.92m10.527 3.628c-.432.52-.258.851 1.184 2.246l1.691 1.636-1.419-1.787c-1.087-1.369-1.311-1.894-.958-2.246.252-.252.357-.459.233-.459s-.453.274-.731.61m-135.79 3.882c.002 1.504.073 2.071.157 1.261s.083-2.041-.003-2.734-.156-.031-.154 1.473m184.052 1.367c1.708 1.719 3.194 3.125 3.302 3.125s-1.203-1.406-2.912-3.125-3.194-3.125-3.302-3.125 1.203 1.407 2.912 3.125m-51.367-1.367c.728.752 1.413 1.367 1.52 1.367s-.401-.615-1.13-1.367-1.413-1.367-1.52-1.367.401.615 1.13 1.367m7.493 1.527c.791.772 1.569 1.403 1.728 1.403.446 0-1.505-1.975-2.386-2.415-.429-.215-.133.241.658 1.012m2.272 1.972c0 .424 1.581 1.775 2.078 1.775.218 0 .323-.044.233-.098s-.646-.524-1.237-1.045-1.074-.805-1.074-.632m-5.083.792c.424.511-1.006.594-11.963.69l-12.446.109 12.853.092c12.832.091 12.853.09 12.147-.69-.815-.9-1.312-1.069-.591-.201m14.335.884a486.78 486.78 0 0 0 13.672 0c3.827-.064.807-.116-6.713-.116s-10.651.052-6.959.116m24.851 0a162.56 162.56 0 0 0 8.204-.001c2.19-.069.291-.126-4.221-.126s-6.304.057-3.983.127m-158.955 7.911c0 2.471.063 3.481.141 2.246s.077-3.257 0-4.492-.141-.225-.141 2.246m83.842 9.71c.005 1.53.119 2.026.374 1.623.381-.603 3.136-.845 3.136-.275 0 .174.176.208.391.075s.39.032.39.367.18.609.398.609c.23 0 .295.414.153.977-.151.602-.079.977.188.977.238 0 .431.307.427.683-.005.59-.062.603-.418.098-.305-.433-.37-.049-.247 1.468.101 1.241-.019 2.308-.303 2.696-.835 1.142-1.369.192-1.369-2.429 0-2.027-.158-2.674-.812-3.328-.743-.743-2.02-.797-1.864-.078.036.167-.067.605-.229.974s-.234 1.644-.16 2.833c.144 2.312-.122 2.668-1.525 2.039-.693-.311-.868-.692-.828-1.797l.052-1.402.287 1.368c.174.822.279-.733.264-3.907l-.024-5.273-.24 3.906-.239 3.906-.076-3.863c-.063-3.249.031-3.941.592-4.351 1.185-.866 1.676-.252 1.682 2.104m25.624-2.218c.157.254.254 1.353.216 2.442-.059 1.705.003 1.889.447 1.321.412-.526.804-.593 1.955-.334.792.179 1.448.212 1.458.073s.454.586.987 1.61c.746 1.432.877 2.033.569 2.608-.219.411-.293 1.025-.162 1.365.591 1.541-3.169 3.671-4.367 2.473-.138-.138-.684-.085-1.214.116-1.814.69-2.102-.159-2.057-6.06.025-3.154.195-5.293.422-5.293.21 0 .273-.176.14-.391s.11-.391.54-.391.909.208 1.066.461m34.748-.162c.257.177.419 2.157.422 5.17.005 4.634.046 4.885.8 4.925 2.232.117 2.022 2.103-.216 2.037-2.398-.071-2.8-.859-2.899-5.688l-.086-4.204-.977.115c-.772.091-.854.031-.39-.287.509-.349.5-.402-.065-.408-.897-.008-1.113-.881-.36-1.458.683-.524 3.114-.654 3.771-.202m-6.974.405c.994.632.107 2.031-1.288 2.031-.985 0-1.264-.146-1.127-.586l.366-1.172c.196-.626 1.269-.769 2.049-.273m-59.889 1.48c.131.342.139.781.018.977s.216.355.748.355c1.479 0 2.204.399 2.204 1.214 0 .584-.286.739-1.367.739h-1.367l.005 2.051c.008 2.682.403 3.323 1.686 2.738 1.061-.484 1.679.431 1.016 1.504-.377.61-3.489.812-3.489.226 0-.219-.115-.284-.257-.142-.353.353-1.348-.522-1.083-.953.118-.19.028-.346-.199-.346-.249 0-.414-1.012-.414-2.539 0-2.253-.085-2.539-.758-2.539-.417 0-.872-.183-1.01-.408-.312-.505.556-1.616 1.032-1.322.191.118.512-.221.715-.753.315-.83.795-1.155 2.03-1.378.138-.025.359.234.49.576m14.996 1.82c.222.269.371 1.658.332 3.087-.058 2.114.058 2.678.621 3.03.481.301.693.305.693.016 0-.23.203-.292.451-.139.269.167.345.108.189-.145-.144-.233-.088-.532.125-.663s.374-1.273.356-2.537c-.037-2.586.175-3.137 1.203-3.137 1.036 0 1.803 7.184.897 8.398-.492.659-1.659.671-1.659.017 0-.758-.286-.763-1.032-.017-1.095 1.096-3.512.022-4.005-1.778-.511-1.865-.306-6.198.3-6.36 1.064-.284 1.113-.276 1.529.228m7.921-.084c.416.223.756.26.756.084s.352-.321.781-.321.782.129.782.287.514.107 1.144-.112c1.234-.431 2.985.152 2.554.849-.126.204-.035.371.201.371.748 0 .338 6.666-.44 7.156-1.049.662-1.806-.469-1.8-2.688.014-4.885-.791-5.278-.96-.468-.166 4.692-1.389 5.024-1.562.425-.175-4.678-1.481-4.792-1.481-.129 0 3.075-.029 3.176-.879 3.056-.844-.12-.881-.289-.932-4.227-.065-5.012.036-5.246 1.836-4.283m17.441.031a.78.78 0 0 0 .957.109c.985-.613 2.849-.433 3.609.35.963.989 1.236 7.531.329 7.879-1.488.571-2.081-.489-1.954-3.498.066-1.588.045-2.81-.049-2.717s-.411-.031-.706-.276c-.902-.748-1.587.657-1.378 2.83.324 3.367-.816 5.025-2.258 3.287-.384-.462-.397-6.276-.019-8.301.052-.279 1.092-.04 1.469.337m12.549.407c.073.189.378.589.678.889.967.967.692 6.376-.341 6.704-.487.155-.886.081-.973-.18-.081-.244-.319-.443-.529-.443s-.275.171-.146.38c.362.585-1.577.913-2.496.421-.45-.241-.818-.336-.818-.213s-.246-.002-.548-.279-.538-.592-.524-.699-.106-.492-.265-.854c-.488-1.11 1.844-3.348 3.27-3.139.963.141 1.14.04 1.091-.62-.051-.677-.299-.776-1.737-.695-1.749.098-2.183-.434-1.206-1.48.524-.56 4.315-.387 4.544.208m6.602-.152c.109.283.22 1.782.247 3.331l.05 2.815 1.269-.004c.699-.002 1.283.086 1.3.195s.087.495.157.856c.26 1.347-5.824 1.645-7.002.344-.445-.492-.544-.805-.254-.805.261 0 .388-.139.283-.309s.38-.243 1.078-.161l1.268.148.092-2.02c.095-2.079-.413-3.224-1.282-2.891-.662.254-1.546-.858-1.265-1.59.288-.751 3.766-.673 4.059.091m-26.278 1.633c.109.178-.063.54-.383.805-.644.536-.826 3.319-.191 2.927.215-.133.391.032.391.367 0 .769.779.628 1.63-.295.607-.658.64-1.647.113-3.407-.099-.331-.536-.628-.97-.66s-.7.086-.59.263m16.227 2.945c-.693.836-.228 1.665.935 1.665.55 0 .914-.138.81-.308s-.004-.371.224-.447c.654-.218-.025-1.491-.795-1.491-.38 0-.908.262-1.174.581m-160.062 4.009c4.028.063 10.62.063 14.648 0s.733-.116-7.324-.116-11.353.052-7.324.116m114.843 7.014a5.57 5.57 0 0 1-1.757 0c-.484-.093-.088-.169.879-.169s1.362.076.878.169m3.912-.001c-.48.093-1.359.096-1.953.006s-.201-.166.873-.169 1.56.071 1.08.163m30.151.792c.115.3.379.441.586.313s.652.3.989.951.803 1.185 1.035 1.185.322.264.198.586-.05.586.163.586c.839 0 .429 23.824-.429 24.914-.415.527-.656 1.119-.535 1.313s.074.308-.103.251c-.529-.172-2.099 1.105-1.784 1.451.159.176-.018.21-.394.075s-.683-.081-.683.119c0 .221-7.66.373-19.363.385-11.578.013-19.275-.122-19.143-.335.121-.196-.052-.461-.384-.589-.369-.141-.504-.07-.347.184.141.228-.102.191-.541-.083s-.717-.626-.62-.783-.217-.562-.698-.899-.735-.612-.565-.612.034-.277-.303-.614c-.724-.723-.952-24.386-.236-24.386.208 0 .287-.24.174-.532s.493-1.258 1.346-2.145l1.549-1.613 19.468-.101 19.939-.134c.259-.018.566.213.681.513m-149.304 4.012c0 .752.08 1.059.179.683s.098-.991 0-1.367-.179-.068-.179.684m110.456 11.715v11.722h1.138c.949 0 1.843-.754 5.366-4.528 5.457-5.845 5.252-5.748 7.507-3.546l1.81 1.768 4.223-4.658c6.009-6.628 6-6.629 12.197.49l4.821 5.483c.585.622.627-.045.545-8.789l-.089-9.462-18.759-.101-18.759-.102v11.723m13.105-5.604c1.238 1.337 1.22 2.892-.054 4.406-2.07 2.46-6.019 1.07-6.019-2.119 0-3.082 3.956-4.571 6.073-2.287m11.271 6.486c-.862.913-1.804 2.012-2.093 2.442s.405-.241 1.542-1.491l2.066-2.272 1.606 1.491 1.605 1.49-1.544-1.66-1.579-1.66c-.019 0-.74.747-1.603 1.66m9.462 7.349c1.307 1.785 2.91 3.593 3.052 3.443.077-.081-.744-1.114-1.823-2.296s-1.632-1.698-1.229-1.147m-14.086 1.147c.798 1.633 1.878 2.344 3.461 2.278l1.592-.065-1.493-.155c-1.046-.109-1.845-.527-2.67-1.399-.647-.685-1.048-.981-.89-.659m-11.939 1.758c-.422.509-.235.577 1.417.52 1.71-.059 1.754-.081.43-.219-.81-.084-1.371-.319-1.246-.52.359-.581-.066-.426-.601.219m4.4.476c.593.09 1.472.087 1.953-.006s-.006-.166-1.08-.163-1.467.079-.873.169m16.596.006c.913.082 2.407.082 3.32 0s.166-.15-1.66-.15-2.573.067-1.66.15" fill="#fae9ac"/></svg>